M48
; DRILL file {KiCad 7.0.7} date Tue Oct 31 18:35:31 2023
; FORMAT={-:-/ absolute / inch / decimal}
; #@! TF.CreationDate,2023-10-31T18:35:31+09:00
; #@! TF.GenerationSoftware,Kicad,Pcbnew,7.0.7
; #@! TF.FileFunction,Plated,1,2,PTH
FMAT,2
INCH
; #@! TA.AperFunction,Plated,PTH,ViaDrill
T1C0.0157
; #@! TA.AperFunction,Plated,PTH,ComponentDrill
T2C0.0300
; #@! TA.AperFunction,Plated,PTH,ComponentDrill
T3C0.0315
; #@! TA.AperFunction,Plated,PTH,ComponentDrill
T4C0.0354
; #@! TA.AperFunction,Plated,PTH,ComponentDrill
T5C0.0402
; #@! TA.AperFunction,Plated,PTH,ComponentDrill
T6C0.0433
; #@! TA.AperFunction,Plated,PTH,ComponentDrill
T7C0.0500
; #@! TA.AperFunction,Plated,PTH,ComponentDrill
T8C0.0531
; #@! TA.AperFunction,Plated,PTH,ComponentDrill
T9C0.0744
%
G90
G05
T1
X2.9094Y-5.0354
X2.9094Y-5.1299
X3.2717Y-5.0157
X3.2717Y-5.1181
X3.4882Y-4.4449
X3.4892Y-4.1457
X3.4892Y-4.248
X3.4892Y-4.6496
X3.4892Y-4.3425
X3.5906Y-3.0039
X3.5945Y-3.189
X3.6535Y-2.878
X3.6535Y-3.0039
X3.6693Y-3.5827
X3.6693Y-3.7362
X3.685Y-4.5472
X3.689Y-4.7008
X3.6969Y-4.0591
X3.6969Y-4.1535
X3.7165Y-4.3425
X3.8858Y-3.5354
X4.0276Y-4.4803
X4.1969Y-5.2205
X4.3976Y-4.0856
T2
X3.2717Y-5.3465
X3.2717Y-5.4465
X3.3717Y-5.3465
T3
X3.8047Y-3.4567
X3.8047Y-4.8701
X3.8079Y-3.6732
X3.8079Y-3.8937
X3.8079Y-4.3386
X3.8087Y-3.2362
X3.8087Y-4.6024
X3.8126Y-4.1142
X4.2047Y-3.4567
X4.2047Y-4.8701
X4.2079Y-3.6732
X4.2079Y-3.8937
X4.2079Y-4.3386
X4.2087Y-3.2362
X4.2087Y-4.6024
X4.2126Y-4.1142
X5.185Y-3.8622
X5.185Y-4.0591
X5.189Y-4.2874
X5.189Y-4.4843
X5.189Y-4.7756
X5.189Y-4.9724
X5.1969Y-3.4213
X5.1969Y-3.6181
X5.2008Y-2.5906
X5.2008Y-2.7874
T4
X2.0443Y-4.7638
X2.0443Y-5.1102
X2.0472Y-4.4449
X2.0482Y-4.126
X2.1443Y-4.7638
X2.1443Y-5.1102
X2.1472Y-4.4449
X2.1482Y-4.126
T5
X2.6701Y-2.8465
X2.6701Y-2.9465
X2.6701Y-3.0465
X2.6701Y-3.1465
X2.6701Y-3.2465
X2.6701Y-3.3465
X2.6701Y-3.4465
X2.6701Y-3.5465
X2.6701Y-3.6465
X2.6701Y-3.7465
X2.6701Y-3.8465
X2.6701Y-3.9465
X2.6701Y-4.0465
X2.6701Y-4.1465
X2.6701Y-4.2465
X2.6701Y-4.3465
X2.6701Y-4.4465
X2.6701Y-4.5465
X2.6701Y-4.6465
X2.6701Y-4.7465
X2.9201Y-4.7374
X3.0201Y-4.7374
X3.1201Y-4.7374
X3.3701Y-2.8465
X3.3701Y-2.9465
X3.3701Y-3.0465
X3.3701Y-3.1465
X3.3701Y-3.2465
X3.3701Y-3.3465
X3.3701Y-3.4465
X3.3701Y-3.5465
X3.3701Y-3.6465
X3.3701Y-3.7465
X3.3701Y-3.8465
X3.3701Y-3.9465
X3.3701Y-4.0465
X3.3701Y-4.1465
X3.3701Y-4.2465
X3.3701Y-4.3465
X3.3701Y-4.4465
X3.3701Y-4.5465
X3.3701Y-4.6465
X3.3701Y-4.7465
T6
X2.7126Y-5.2008
X2.811Y-5.2008
X2.9094Y-5.2008
X4.563Y-3.2362
X4.563Y-3.4134
X4.563Y-3.6732
X4.563Y-3.8504
X4.5669Y-4.1142
X4.5669Y-4.2913
X4.5669Y-4.6024
X4.5669Y-4.7795
X4.8189Y-3.2362
X4.8189Y-3.4134
X4.8189Y-3.6732
X4.8189Y-3.8504
X4.8228Y-4.1142
X4.8228Y-4.2913
X4.8228Y-4.6024
X4.8228Y-4.7795
T7
X4.7756Y-5.4488
X4.8756Y-5.4488
X4.9756Y-5.4488
T8
X2.2264Y-3.3524
X2.2264Y-3.4508
X2.2303Y-2.9587
X2.2303Y-3.0571
X2.2303Y-3.7343
X2.2303Y-3.8327
X2.2382Y-2.4035
X2.2382Y-2.502
X2.3445Y-5.439
X2.3445Y-5.5374
T9
X3.8292Y-2.6019
X4.0182Y-2.4916
X4.0182Y-2.72
T0
M30
