G04 #@! TF.GenerationSoftware,KiCad,Pcbnew,7.0.7*
G04 #@! TF.CreationDate,2023-10-31T18:35:25+09:00*
G04 #@! TF.ProjectId,PCB_PracticeBoard,5043425f-5072-4616-9374-696365426f61,rev?*
G04 #@! TF.SameCoordinates,Original*
G04 #@! TF.FileFunction,Legend,Top*
G04 #@! TF.FilePolarity,Positive*
%FSLAX46Y46*%
G04 Gerber Fmt 4.6, Leading zero omitted, Abs format (unit mm)*
G04 Created by KiCad (PCBNEW 7.0.7) date 2023-10-31 18:35:25*
%MOMM*%
%LPD*%
G01*
G04 APERTURE LIST*
%ADD10C,0.150000*%
%ADD11C,0.090000*%
%ADD12C,0.100000*%
%ADD13C,0.140000*%
%ADD14C,0.254000*%
%ADD15C,0.120000*%
%ADD16C,0.200000*%
G04 APERTURE END LIST*
D10*
X49179636Y-91469819D02*
X49084398Y-91422200D01*
X49084398Y-91422200D02*
X49036779Y-91326961D01*
X49036779Y-91326961D02*
X49036779Y-90469819D01*
X49512970Y-90565057D02*
X49560589Y-90517438D01*
X49560589Y-90517438D02*
X49655827Y-90469819D01*
X49655827Y-90469819D02*
X49893922Y-90469819D01*
X49893922Y-90469819D02*
X49989160Y-90517438D01*
X49989160Y-90517438D02*
X50036779Y-90565057D01*
X50036779Y-90565057D02*
X50084398Y-90660295D01*
X50084398Y-90660295D02*
X50084398Y-90755533D01*
X50084398Y-90755533D02*
X50036779Y-90898390D01*
X50036779Y-90898390D02*
X49465351Y-91469819D01*
X49465351Y-91469819D02*
X50084398Y-91469819D01*
X51084398Y-91374580D02*
X51036779Y-91422200D01*
X51036779Y-91422200D02*
X50893922Y-91469819D01*
X50893922Y-91469819D02*
X50798684Y-91469819D01*
X50798684Y-91469819D02*
X50655827Y-91422200D01*
X50655827Y-91422200D02*
X50560589Y-91326961D01*
X50560589Y-91326961D02*
X50512970Y-91231723D01*
X50512970Y-91231723D02*
X50465351Y-91041247D01*
X50465351Y-91041247D02*
X50465351Y-90898390D01*
X50465351Y-90898390D02*
X50512970Y-90707914D01*
X50512970Y-90707914D02*
X50560589Y-90612676D01*
X50560589Y-90612676D02*
X50655827Y-90517438D01*
X50655827Y-90517438D02*
X50798684Y-90469819D01*
X50798684Y-90469819D02*
X50893922Y-90469819D01*
X50893922Y-90469819D02*
X51036779Y-90517438D01*
X51036779Y-90517438D02*
X51084398Y-90565057D01*
X52036779Y-91469819D02*
X51465351Y-91469819D01*
X51751065Y-91469819D02*
X51751065Y-90469819D01*
X51751065Y-90469819D02*
X51655827Y-90612676D01*
X51655827Y-90612676D02*
X51560589Y-90707914D01*
X51560589Y-90707914D02*
X51465351Y-90755533D01*
X115889160Y-124122200D02*
X116032017Y-124169819D01*
X116032017Y-124169819D02*
X116270112Y-124169819D01*
X116270112Y-124169819D02*
X116365350Y-124122200D01*
X116365350Y-124122200D02*
X116412969Y-124074580D01*
X116412969Y-124074580D02*
X116460588Y-123979342D01*
X116460588Y-123979342D02*
X116460588Y-123884104D01*
X116460588Y-123884104D02*
X116412969Y-123788866D01*
X116412969Y-123788866D02*
X116365350Y-123741247D01*
X116365350Y-123741247D02*
X116270112Y-123693628D01*
X116270112Y-123693628D02*
X116079636Y-123646009D01*
X116079636Y-123646009D02*
X115984398Y-123598390D01*
X115984398Y-123598390D02*
X115936779Y-123550771D01*
X115936779Y-123550771D02*
X115889160Y-123455533D01*
X115889160Y-123455533D02*
X115889160Y-123360295D01*
X115889160Y-123360295D02*
X115936779Y-123265057D01*
X115936779Y-123265057D02*
X115984398Y-123217438D01*
X115984398Y-123217438D02*
X116079636Y-123169819D01*
X116079636Y-123169819D02*
X116317731Y-123169819D01*
X116317731Y-123169819D02*
X116460588Y-123217438D01*
X116793922Y-123169819D02*
X117032017Y-124169819D01*
X117032017Y-124169819D02*
X117222493Y-123455533D01*
X117222493Y-123455533D02*
X117412969Y-124169819D01*
X117412969Y-124169819D02*
X117651065Y-123169819D01*
X117793922Y-124265057D02*
X118555826Y-124265057D01*
X118793922Y-124169819D02*
X118793922Y-123169819D01*
X118793922Y-123169819D02*
X119174874Y-123169819D01*
X119174874Y-123169819D02*
X119270112Y-123217438D01*
X119270112Y-123217438D02*
X119317731Y-123265057D01*
X119317731Y-123265057D02*
X119365350Y-123360295D01*
X119365350Y-123360295D02*
X119365350Y-123503152D01*
X119365350Y-123503152D02*
X119317731Y-123598390D01*
X119317731Y-123598390D02*
X119270112Y-123646009D01*
X119270112Y-123646009D02*
X119174874Y-123693628D01*
X119174874Y-123693628D02*
X118793922Y-123693628D01*
X120222493Y-123503152D02*
X120222493Y-124169819D01*
X119793922Y-123503152D02*
X119793922Y-124026961D01*
X119793922Y-124026961D02*
X119841541Y-124122200D01*
X119841541Y-124122200D02*
X119936779Y-124169819D01*
X119936779Y-124169819D02*
X120079636Y-124169819D01*
X120079636Y-124169819D02*
X120174874Y-124122200D01*
X120174874Y-124122200D02*
X120222493Y-124074580D01*
X120651065Y-124122200D02*
X120746303Y-124169819D01*
X120746303Y-124169819D02*
X120936779Y-124169819D01*
X120936779Y-124169819D02*
X121032017Y-124122200D01*
X121032017Y-124122200D02*
X121079636Y-124026961D01*
X121079636Y-124026961D02*
X121079636Y-123979342D01*
X121079636Y-123979342D02*
X121032017Y-123884104D01*
X121032017Y-123884104D02*
X120936779Y-123836485D01*
X120936779Y-123836485D02*
X120793922Y-123836485D01*
X120793922Y-123836485D02*
X120698684Y-123788866D01*
X120698684Y-123788866D02*
X120651065Y-123693628D01*
X120651065Y-123693628D02*
X120651065Y-123646009D01*
X120651065Y-123646009D02*
X120698684Y-123550771D01*
X120698684Y-123550771D02*
X120793922Y-123503152D01*
X120793922Y-123503152D02*
X120936779Y-123503152D01*
X120936779Y-123503152D02*
X121032017Y-123550771D01*
X121508208Y-124169819D02*
X121508208Y-123169819D01*
X121936779Y-124169819D02*
X121936779Y-123646009D01*
X121936779Y-123646009D02*
X121889160Y-123550771D01*
X121889160Y-123550771D02*
X121793922Y-123503152D01*
X121793922Y-123503152D02*
X121651065Y-123503152D01*
X121651065Y-123503152D02*
X121555827Y-123550771D01*
X121555827Y-123550771D02*
X121508208Y-123598390D01*
X122841541Y-123503152D02*
X122841541Y-124169819D01*
X122603446Y-123122200D02*
X122365351Y-123836485D01*
X122365351Y-123836485D02*
X122984398Y-123836485D01*
D11*
X51073495Y-144093320D02*
X51159210Y-144121891D01*
X51159210Y-144121891D02*
X51302067Y-144121891D01*
X51302067Y-144121891D02*
X51359210Y-144093320D01*
X51359210Y-144093320D02*
X51387781Y-144064748D01*
X51387781Y-144064748D02*
X51416352Y-144007605D01*
X51416352Y-144007605D02*
X51416352Y-143950462D01*
X51416352Y-143950462D02*
X51387781Y-143893320D01*
X51387781Y-143893320D02*
X51359210Y-143864748D01*
X51359210Y-143864748D02*
X51302067Y-143836177D01*
X51302067Y-143836177D02*
X51187781Y-143807605D01*
X51187781Y-143807605D02*
X51130638Y-143779034D01*
X51130638Y-143779034D02*
X51102067Y-143750462D01*
X51102067Y-143750462D02*
X51073495Y-143693320D01*
X51073495Y-143693320D02*
X51073495Y-143636177D01*
X51073495Y-143636177D02*
X51102067Y-143579034D01*
X51102067Y-143579034D02*
X51130638Y-143550462D01*
X51130638Y-143550462D02*
X51187781Y-143521891D01*
X51187781Y-143521891D02*
X51330638Y-143521891D01*
X51330638Y-143521891D02*
X51416352Y-143550462D01*
X51759210Y-144121891D02*
X51702067Y-144093320D01*
X51702067Y-144093320D02*
X51673496Y-144064748D01*
X51673496Y-144064748D02*
X51644924Y-144007605D01*
X51644924Y-144007605D02*
X51644924Y-143836177D01*
X51644924Y-143836177D02*
X51673496Y-143779034D01*
X51673496Y-143779034D02*
X51702067Y-143750462D01*
X51702067Y-143750462D02*
X51759210Y-143721891D01*
X51759210Y-143721891D02*
X51844924Y-143721891D01*
X51844924Y-143721891D02*
X51902067Y-143750462D01*
X51902067Y-143750462D02*
X51930639Y-143779034D01*
X51930639Y-143779034D02*
X51959210Y-143836177D01*
X51959210Y-143836177D02*
X51959210Y-144007605D01*
X51959210Y-144007605D02*
X51930639Y-144064748D01*
X51930639Y-144064748D02*
X51902067Y-144093320D01*
X51902067Y-144093320D02*
X51844924Y-144121891D01*
X51844924Y-144121891D02*
X51759210Y-144121891D01*
X52130638Y-143721891D02*
X52359210Y-143721891D01*
X52216353Y-144121891D02*
X52216353Y-143607605D01*
X52216353Y-143607605D02*
X52244924Y-143550462D01*
X52244924Y-143550462D02*
X52302067Y-143521891D01*
X52302067Y-143521891D02*
X52359210Y-143521891D01*
X52473495Y-143721891D02*
X52702067Y-143721891D01*
X52559210Y-143521891D02*
X52559210Y-144036177D01*
X52559210Y-144036177D02*
X52587781Y-144093320D01*
X52587781Y-144093320D02*
X52644924Y-144121891D01*
X52644924Y-144121891D02*
X52702067Y-144121891D01*
X52844924Y-143721891D02*
X52959210Y-144121891D01*
X52959210Y-144121891D02*
X53073495Y-143836177D01*
X53073495Y-143836177D02*
X53187781Y-144121891D01*
X53187781Y-144121891D02*
X53302067Y-143721891D01*
X53787781Y-144121891D02*
X53787781Y-143807605D01*
X53787781Y-143807605D02*
X53759209Y-143750462D01*
X53759209Y-143750462D02*
X53702066Y-143721891D01*
X53702066Y-143721891D02*
X53587781Y-143721891D01*
X53587781Y-143721891D02*
X53530638Y-143750462D01*
X53787781Y-144093320D02*
X53730638Y-144121891D01*
X53730638Y-144121891D02*
X53587781Y-144121891D01*
X53587781Y-144121891D02*
X53530638Y-144093320D01*
X53530638Y-144093320D02*
X53502066Y-144036177D01*
X53502066Y-144036177D02*
X53502066Y-143979034D01*
X53502066Y-143979034D02*
X53530638Y-143921891D01*
X53530638Y-143921891D02*
X53587781Y-143893320D01*
X53587781Y-143893320D02*
X53730638Y-143893320D01*
X53730638Y-143893320D02*
X53787781Y-143864748D01*
X54073495Y-144121891D02*
X54073495Y-143721891D01*
X54073495Y-143836177D02*
X54102066Y-143779034D01*
X54102066Y-143779034D02*
X54130638Y-143750462D01*
X54130638Y-143750462D02*
X54187780Y-143721891D01*
X54187780Y-143721891D02*
X54244923Y-143721891D01*
X54673495Y-144093320D02*
X54616352Y-144121891D01*
X54616352Y-144121891D02*
X54502067Y-144121891D01*
X54502067Y-144121891D02*
X54444924Y-144093320D01*
X54444924Y-144093320D02*
X54416352Y-144036177D01*
X54416352Y-144036177D02*
X54416352Y-143807605D01*
X54416352Y-143807605D02*
X54444924Y-143750462D01*
X54444924Y-143750462D02*
X54502067Y-143721891D01*
X54502067Y-143721891D02*
X54616352Y-143721891D01*
X54616352Y-143721891D02*
X54673495Y-143750462D01*
X54673495Y-143750462D02*
X54702067Y-143807605D01*
X54702067Y-143807605D02*
X54702067Y-143864748D01*
X54702067Y-143864748D02*
X54416352Y-143921891D01*
X54816353Y-144179034D02*
X55273495Y-144179034D01*
X55387781Y-144093320D02*
X55473496Y-144121891D01*
X55473496Y-144121891D02*
X55616353Y-144121891D01*
X55616353Y-144121891D02*
X55673496Y-144093320D01*
X55673496Y-144093320D02*
X55702067Y-144064748D01*
X55702067Y-144064748D02*
X55730638Y-144007605D01*
X55730638Y-144007605D02*
X55730638Y-143950462D01*
X55730638Y-143950462D02*
X55702067Y-143893320D01*
X55702067Y-143893320D02*
X55673496Y-143864748D01*
X55673496Y-143864748D02*
X55616353Y-143836177D01*
X55616353Y-143836177D02*
X55502067Y-143807605D01*
X55502067Y-143807605D02*
X55444924Y-143779034D01*
X55444924Y-143779034D02*
X55416353Y-143750462D01*
X55416353Y-143750462D02*
X55387781Y-143693320D01*
X55387781Y-143693320D02*
X55387781Y-143636177D01*
X55387781Y-143636177D02*
X55416353Y-143579034D01*
X55416353Y-143579034D02*
X55444924Y-143550462D01*
X55444924Y-143550462D02*
X55502067Y-143521891D01*
X55502067Y-143521891D02*
X55644924Y-143521891D01*
X55644924Y-143521891D02*
X55730638Y-143550462D01*
X56216353Y-144093320D02*
X56159210Y-144121891D01*
X56159210Y-144121891D02*
X56044925Y-144121891D01*
X56044925Y-144121891D02*
X55987782Y-144093320D01*
X55987782Y-144093320D02*
X55959210Y-144036177D01*
X55959210Y-144036177D02*
X55959210Y-143807605D01*
X55959210Y-143807605D02*
X55987782Y-143750462D01*
X55987782Y-143750462D02*
X56044925Y-143721891D01*
X56044925Y-143721891D02*
X56159210Y-143721891D01*
X56159210Y-143721891D02*
X56216353Y-143750462D01*
X56216353Y-143750462D02*
X56244925Y-143807605D01*
X56244925Y-143807605D02*
X56244925Y-143864748D01*
X56244925Y-143864748D02*
X55959210Y-143921891D01*
X56502068Y-144121891D02*
X56502068Y-143721891D01*
X56502068Y-143836177D02*
X56530639Y-143779034D01*
X56530639Y-143779034D02*
X56559211Y-143750462D01*
X56559211Y-143750462D02*
X56616353Y-143721891D01*
X56616353Y-143721891D02*
X56673496Y-143721891D01*
X56873497Y-144121891D02*
X56873497Y-143721891D01*
X56873497Y-143521891D02*
X56844925Y-143550462D01*
X56844925Y-143550462D02*
X56873497Y-143579034D01*
X56873497Y-143579034D02*
X56902068Y-143550462D01*
X56902068Y-143550462D02*
X56873497Y-143521891D01*
X56873497Y-143521891D02*
X56873497Y-143579034D01*
X57416354Y-144121891D02*
X57416354Y-143807605D01*
X57416354Y-143807605D02*
X57387782Y-143750462D01*
X57387782Y-143750462D02*
X57330639Y-143721891D01*
X57330639Y-143721891D02*
X57216354Y-143721891D01*
X57216354Y-143721891D02*
X57159211Y-143750462D01*
X57416354Y-144093320D02*
X57359211Y-144121891D01*
X57359211Y-144121891D02*
X57216354Y-144121891D01*
X57216354Y-144121891D02*
X57159211Y-144093320D01*
X57159211Y-144093320D02*
X57130639Y-144036177D01*
X57130639Y-144036177D02*
X57130639Y-143979034D01*
X57130639Y-143979034D02*
X57159211Y-143921891D01*
X57159211Y-143921891D02*
X57216354Y-143893320D01*
X57216354Y-143893320D02*
X57359211Y-143893320D01*
X57359211Y-143893320D02*
X57416354Y-143864748D01*
X57787782Y-144121891D02*
X57730639Y-144093320D01*
X57730639Y-144093320D02*
X57702068Y-144036177D01*
X57702068Y-144036177D02*
X57702068Y-143521891D01*
D10*
X115689160Y-89422200D02*
X115832017Y-89469819D01*
X115832017Y-89469819D02*
X116070112Y-89469819D01*
X116070112Y-89469819D02*
X116165350Y-89422200D01*
X116165350Y-89422200D02*
X116212969Y-89374580D01*
X116212969Y-89374580D02*
X116260588Y-89279342D01*
X116260588Y-89279342D02*
X116260588Y-89184104D01*
X116260588Y-89184104D02*
X116212969Y-89088866D01*
X116212969Y-89088866D02*
X116165350Y-89041247D01*
X116165350Y-89041247D02*
X116070112Y-88993628D01*
X116070112Y-88993628D02*
X115879636Y-88946009D01*
X115879636Y-88946009D02*
X115784398Y-88898390D01*
X115784398Y-88898390D02*
X115736779Y-88850771D01*
X115736779Y-88850771D02*
X115689160Y-88755533D01*
X115689160Y-88755533D02*
X115689160Y-88660295D01*
X115689160Y-88660295D02*
X115736779Y-88565057D01*
X115736779Y-88565057D02*
X115784398Y-88517438D01*
X115784398Y-88517438D02*
X115879636Y-88469819D01*
X115879636Y-88469819D02*
X116117731Y-88469819D01*
X116117731Y-88469819D02*
X116260588Y-88517438D01*
X116593922Y-88469819D02*
X116832017Y-89469819D01*
X116832017Y-89469819D02*
X117022493Y-88755533D01*
X117022493Y-88755533D02*
X117212969Y-89469819D01*
X117212969Y-89469819D02*
X117451065Y-88469819D01*
X117593922Y-89565057D02*
X118355826Y-89565057D01*
X118593922Y-89469819D02*
X118593922Y-88469819D01*
X118593922Y-88469819D02*
X118974874Y-88469819D01*
X118974874Y-88469819D02*
X119070112Y-88517438D01*
X119070112Y-88517438D02*
X119117731Y-88565057D01*
X119117731Y-88565057D02*
X119165350Y-88660295D01*
X119165350Y-88660295D02*
X119165350Y-88803152D01*
X119165350Y-88803152D02*
X119117731Y-88898390D01*
X119117731Y-88898390D02*
X119070112Y-88946009D01*
X119070112Y-88946009D02*
X118974874Y-88993628D01*
X118974874Y-88993628D02*
X118593922Y-88993628D01*
X120022493Y-88803152D02*
X120022493Y-89469819D01*
X119593922Y-88803152D02*
X119593922Y-89326961D01*
X119593922Y-89326961D02*
X119641541Y-89422200D01*
X119641541Y-89422200D02*
X119736779Y-89469819D01*
X119736779Y-89469819D02*
X119879636Y-89469819D01*
X119879636Y-89469819D02*
X119974874Y-89422200D01*
X119974874Y-89422200D02*
X120022493Y-89374580D01*
X120451065Y-89422200D02*
X120546303Y-89469819D01*
X120546303Y-89469819D02*
X120736779Y-89469819D01*
X120736779Y-89469819D02*
X120832017Y-89422200D01*
X120832017Y-89422200D02*
X120879636Y-89326961D01*
X120879636Y-89326961D02*
X120879636Y-89279342D01*
X120879636Y-89279342D02*
X120832017Y-89184104D01*
X120832017Y-89184104D02*
X120736779Y-89136485D01*
X120736779Y-89136485D02*
X120593922Y-89136485D01*
X120593922Y-89136485D02*
X120498684Y-89088866D01*
X120498684Y-89088866D02*
X120451065Y-88993628D01*
X120451065Y-88993628D02*
X120451065Y-88946009D01*
X120451065Y-88946009D02*
X120498684Y-88850771D01*
X120498684Y-88850771D02*
X120593922Y-88803152D01*
X120593922Y-88803152D02*
X120736779Y-88803152D01*
X120736779Y-88803152D02*
X120832017Y-88850771D01*
X121308208Y-89469819D02*
X121308208Y-88469819D01*
X121736779Y-89469819D02*
X121736779Y-88946009D01*
X121736779Y-88946009D02*
X121689160Y-88850771D01*
X121689160Y-88850771D02*
X121593922Y-88803152D01*
X121593922Y-88803152D02*
X121451065Y-88803152D01*
X121451065Y-88803152D02*
X121355827Y-88850771D01*
X121355827Y-88850771D02*
X121308208Y-88898390D01*
X122736779Y-89469819D02*
X122165351Y-89469819D01*
X122451065Y-89469819D02*
X122451065Y-88469819D01*
X122451065Y-88469819D02*
X122355827Y-88612676D01*
X122355827Y-88612676D02*
X122260589Y-88707914D01*
X122260589Y-88707914D02*
X122165351Y-88755533D01*
D12*
X112956265Y-145067657D02*
X113575312Y-145067657D01*
X112861027Y-145258133D02*
X113670550Y-145258133D01*
X113384836Y-145877180D02*
X113575312Y-145877180D01*
X113861027Y-145972419D02*
X114099122Y-145972419D01*
X112956265Y-145496228D02*
X112956265Y-145877180D01*
X113241979Y-144829561D02*
X113241979Y-145972419D01*
X112956265Y-145496228D02*
X113575312Y-145496228D01*
X113575312Y-145496228D02*
X113575312Y-145877180D01*
X113861027Y-144972419D02*
X113861027Y-145639085D01*
X114099122Y-144829561D02*
X114099122Y-145972419D01*
X113051503Y-144877180D02*
X112908646Y-145210514D01*
X114908645Y-145115276D02*
X115575312Y-145115276D01*
X115099121Y-145353371D02*
X115575312Y-145353371D01*
X115099121Y-145639085D02*
X115575312Y-145639085D01*
X114575312Y-145067657D02*
X114575312Y-145972419D01*
X115099121Y-145067657D02*
X115099121Y-145972419D01*
X114670550Y-144877180D02*
X114527693Y-145162895D01*
X114527693Y-145162895D02*
X114337217Y-145353371D01*
X115003883Y-144877180D02*
X114861026Y-145210514D01*
X114861026Y-145210514D02*
X114718169Y-145353371D01*
X116241978Y-145639085D02*
X116289597Y-145686704D01*
X116289597Y-145686704D02*
X116241978Y-145734323D01*
X116241978Y-145734323D02*
X116194359Y-145686704D01*
X116194359Y-145686704D02*
X116241978Y-145639085D01*
X116241978Y-145639085D02*
X116241978Y-145734323D01*
X116241978Y-145115276D02*
X116289597Y-145162895D01*
X116289597Y-145162895D02*
X116241978Y-145210514D01*
X116241978Y-145210514D02*
X116194359Y-145162895D01*
X116194359Y-145162895D02*
X116241978Y-145115276D01*
X116241978Y-145115276D02*
X116241978Y-145210514D01*
X117051502Y-145115276D02*
X117908645Y-145115276D01*
X117051502Y-145305752D02*
X117908645Y-145305752D01*
X117051502Y-145448609D02*
X118099121Y-145448609D01*
X117765788Y-145972419D02*
X117956264Y-145972419D01*
X117051502Y-144972419D02*
X117908645Y-144972419D01*
X117908645Y-144972419D02*
X117908645Y-145305752D01*
X117670549Y-145734323D02*
X117813407Y-145829561D01*
X117480073Y-144829561D02*
X117384835Y-144924800D01*
X117241978Y-145734323D02*
X117241978Y-145924800D01*
X117480073Y-145734323D02*
X117480073Y-145877180D01*
X117003883Y-145734323D02*
X116908645Y-145972419D01*
X117051502Y-144972419D02*
X117051502Y-145591466D01*
X117051502Y-145591466D02*
X118051502Y-145591466D01*
X118051502Y-145591466D02*
X117956264Y-145972419D01*
X118337216Y-145210514D02*
X118861025Y-145210514D01*
X118622930Y-144924800D02*
X118622930Y-145972419D01*
X119384835Y-144829561D02*
X119384835Y-145972419D01*
X118622930Y-145258133D02*
X118718168Y-145400990D01*
X118718168Y-145400990D02*
X118813406Y-145496228D01*
X119003882Y-144972419D02*
X119194358Y-145020038D01*
X118956263Y-145305752D02*
X119146739Y-145400990D01*
X118622930Y-145210514D02*
X118384835Y-145639085D01*
X118765787Y-144877180D02*
X118337216Y-144924800D01*
X119527692Y-145591466D02*
X118908644Y-145686704D01*
X119956263Y-145067657D02*
X120003882Y-145020038D01*
X120003882Y-145020038D02*
X120099120Y-144972419D01*
X120099120Y-144972419D02*
X120337215Y-144972419D01*
X120337215Y-144972419D02*
X120432453Y-145020038D01*
X120432453Y-145020038D02*
X120480072Y-145067657D01*
X120480072Y-145067657D02*
X120527691Y-145162895D01*
X120527691Y-145162895D02*
X120527691Y-145258133D01*
X120527691Y-145258133D02*
X120480072Y-145400990D01*
X120480072Y-145400990D02*
X119908644Y-145972419D01*
X119908644Y-145972419D02*
X120527691Y-145972419D01*
X121432453Y-145305752D02*
X121432453Y-145972419D01*
X121194358Y-144924800D02*
X120956263Y-145639085D01*
X120956263Y-145639085D02*
X121575310Y-145639085D01*
X122194358Y-145115276D02*
X122194358Y-145972419D01*
X122908644Y-144924800D02*
X123051501Y-145067657D01*
X122337215Y-144877180D02*
X122194358Y-145162895D01*
X122194358Y-145162895D02*
X121908644Y-145353371D01*
X122337215Y-145305752D02*
X123051501Y-145210514D01*
X122670548Y-144877180D02*
X122670548Y-145210514D01*
X122670548Y-145210514D02*
X122813406Y-145877180D01*
X122813406Y-145877180D02*
X123051501Y-145972419D01*
X123051501Y-145972419D02*
X123146739Y-145781942D01*
X123480072Y-144924800D02*
X124480072Y-144924800D01*
X123527691Y-145210514D02*
X123813405Y-145210514D01*
X124099119Y-145210514D02*
X124432453Y-145210514D01*
X123480072Y-145353371D02*
X123813405Y-145353371D01*
X124099119Y-145353371D02*
X124480072Y-145353371D01*
X123527691Y-145639085D02*
X124480072Y-145639085D01*
X123527691Y-145829561D02*
X124480072Y-145829561D01*
X124003881Y-145972419D02*
X124575310Y-145972419D01*
X123384834Y-145067657D02*
X123384834Y-145258133D01*
X123527691Y-145496228D02*
X123527691Y-145877180D01*
X123956262Y-144924800D02*
X123956262Y-145400990D01*
X124003881Y-145496228D02*
X124003881Y-145972419D01*
X123527691Y-145496228D02*
X124480072Y-145496228D01*
X124480072Y-145496228D02*
X124480072Y-145829561D01*
X123384834Y-145067657D02*
X124575310Y-145067657D01*
X124575310Y-145067657D02*
X124575310Y-145258133D01*
X124622929Y-145829561D02*
X124575310Y-145972419D01*
X125337214Y-145067657D02*
X126099119Y-145067657D01*
X125384833Y-145353371D02*
X126051500Y-145353371D01*
X124861024Y-145543847D02*
X126099119Y-145543847D01*
X125241976Y-145686704D02*
X125241976Y-145924800D01*
X125194357Y-144829561D02*
X125194357Y-145400990D01*
X125718166Y-144829561D02*
X125718166Y-145353371D01*
X124956262Y-144924800D02*
X125051500Y-145020038D01*
X125480071Y-145543847D02*
X125718166Y-145829561D01*
X125718166Y-145829561D02*
X126099119Y-145972419D01*
X125956262Y-145639085D02*
X125670547Y-145781942D01*
X125099119Y-145210514D02*
X124861024Y-145305752D01*
X125480071Y-145400990D02*
X125480071Y-145591466D01*
X125480071Y-145591466D02*
X125146738Y-145734323D01*
X125146738Y-145734323D02*
X124861024Y-145781942D01*
X125527690Y-145924800D02*
X125099119Y-145972419D01*
X127099118Y-144924800D02*
X127527690Y-144924800D01*
X126337214Y-144924800D02*
X126718166Y-144924800D01*
X126384833Y-145353371D02*
X126718166Y-145353371D01*
X127146737Y-145400990D02*
X127527690Y-145400990D01*
X127003880Y-145924800D02*
X127575309Y-145924800D01*
X126527690Y-144924800D02*
X126527690Y-145781942D01*
X126813404Y-144972419D02*
X126813404Y-145543847D01*
X127337214Y-144924800D02*
X127337214Y-145924800D01*
X126956261Y-145781942D02*
X126765785Y-145972419D01*
X126765785Y-145734323D02*
X126337214Y-145829561D01*
X127051499Y-144829561D02*
X127051499Y-145496228D01*
X127051499Y-145496228D02*
X126956261Y-145781942D01*
D13*
X113230200Y-144170339D02*
X113230200Y-143170339D01*
X113230200Y-143170339D02*
X113611152Y-143170339D01*
X113611152Y-143170339D02*
X113706390Y-143217958D01*
X113706390Y-143217958D02*
X113754009Y-143265577D01*
X113754009Y-143265577D02*
X113801628Y-143360815D01*
X113801628Y-143360815D02*
X113801628Y-143503672D01*
X113801628Y-143503672D02*
X113754009Y-143598910D01*
X113754009Y-143598910D02*
X113706390Y-143646529D01*
X113706390Y-143646529D02*
X113611152Y-143694148D01*
X113611152Y-143694148D02*
X113230200Y-143694148D01*
X114230200Y-144170339D02*
X114230200Y-143503672D01*
X114230200Y-143694148D02*
X114277819Y-143598910D01*
X114277819Y-143598910D02*
X114325438Y-143551291D01*
X114325438Y-143551291D02*
X114420676Y-143503672D01*
X114420676Y-143503672D02*
X114515914Y-143503672D01*
X115277819Y-144170339D02*
X115277819Y-143646529D01*
X115277819Y-143646529D02*
X115230200Y-143551291D01*
X115230200Y-143551291D02*
X115134962Y-143503672D01*
X115134962Y-143503672D02*
X114944486Y-143503672D01*
X114944486Y-143503672D02*
X114849248Y-143551291D01*
X115277819Y-144122720D02*
X115182581Y-144170339D01*
X115182581Y-144170339D02*
X114944486Y-144170339D01*
X114944486Y-144170339D02*
X114849248Y-144122720D01*
X114849248Y-144122720D02*
X114801629Y-144027481D01*
X114801629Y-144027481D02*
X114801629Y-143932243D01*
X114801629Y-143932243D02*
X114849248Y-143837005D01*
X114849248Y-143837005D02*
X114944486Y-143789386D01*
X114944486Y-143789386D02*
X115182581Y-143789386D01*
X115182581Y-143789386D02*
X115277819Y-143741767D01*
X116182581Y-144122720D02*
X116087343Y-144170339D01*
X116087343Y-144170339D02*
X115896867Y-144170339D01*
X115896867Y-144170339D02*
X115801629Y-144122720D01*
X115801629Y-144122720D02*
X115754010Y-144075100D01*
X115754010Y-144075100D02*
X115706391Y-143979862D01*
X115706391Y-143979862D02*
X115706391Y-143694148D01*
X115706391Y-143694148D02*
X115754010Y-143598910D01*
X115754010Y-143598910D02*
X115801629Y-143551291D01*
X115801629Y-143551291D02*
X115896867Y-143503672D01*
X115896867Y-143503672D02*
X116087343Y-143503672D01*
X116087343Y-143503672D02*
X116182581Y-143551291D01*
X116468296Y-143503672D02*
X116849248Y-143503672D01*
X116611153Y-143170339D02*
X116611153Y-144027481D01*
X116611153Y-144027481D02*
X116658772Y-144122720D01*
X116658772Y-144122720D02*
X116754010Y-144170339D01*
X116754010Y-144170339D02*
X116849248Y-144170339D01*
X117182582Y-144170339D02*
X117182582Y-143503672D01*
X117182582Y-143170339D02*
X117134963Y-143217958D01*
X117134963Y-143217958D02*
X117182582Y-143265577D01*
X117182582Y-143265577D02*
X117230201Y-143217958D01*
X117230201Y-143217958D02*
X117182582Y-143170339D01*
X117182582Y-143170339D02*
X117182582Y-143265577D01*
X118087343Y-144122720D02*
X117992105Y-144170339D01*
X117992105Y-144170339D02*
X117801629Y-144170339D01*
X117801629Y-144170339D02*
X117706391Y-144122720D01*
X117706391Y-144122720D02*
X117658772Y-144075100D01*
X117658772Y-144075100D02*
X117611153Y-143979862D01*
X117611153Y-143979862D02*
X117611153Y-143694148D01*
X117611153Y-143694148D02*
X117658772Y-143598910D01*
X117658772Y-143598910D02*
X117706391Y-143551291D01*
X117706391Y-143551291D02*
X117801629Y-143503672D01*
X117801629Y-143503672D02*
X117992105Y-143503672D01*
X117992105Y-143503672D02*
X118087343Y-143551291D01*
X118896867Y-144122720D02*
X118801629Y-144170339D01*
X118801629Y-144170339D02*
X118611153Y-144170339D01*
X118611153Y-144170339D02*
X118515915Y-144122720D01*
X118515915Y-144122720D02*
X118468296Y-144027481D01*
X118468296Y-144027481D02*
X118468296Y-143646529D01*
X118468296Y-143646529D02*
X118515915Y-143551291D01*
X118515915Y-143551291D02*
X118611153Y-143503672D01*
X118611153Y-143503672D02*
X118801629Y-143503672D01*
X118801629Y-143503672D02*
X118896867Y-143551291D01*
X118896867Y-143551291D02*
X118944486Y-143646529D01*
X118944486Y-143646529D02*
X118944486Y-143741767D01*
X118944486Y-143741767D02*
X118468296Y-143837005D01*
X119706391Y-143646529D02*
X119849248Y-143694148D01*
X119849248Y-143694148D02*
X119896867Y-143741767D01*
X119896867Y-143741767D02*
X119944486Y-143837005D01*
X119944486Y-143837005D02*
X119944486Y-143979862D01*
X119944486Y-143979862D02*
X119896867Y-144075100D01*
X119896867Y-144075100D02*
X119849248Y-144122720D01*
X119849248Y-144122720D02*
X119754010Y-144170339D01*
X119754010Y-144170339D02*
X119373058Y-144170339D01*
X119373058Y-144170339D02*
X119373058Y-143170339D01*
X119373058Y-143170339D02*
X119706391Y-143170339D01*
X119706391Y-143170339D02*
X119801629Y-143217958D01*
X119801629Y-143217958D02*
X119849248Y-143265577D01*
X119849248Y-143265577D02*
X119896867Y-143360815D01*
X119896867Y-143360815D02*
X119896867Y-143456053D01*
X119896867Y-143456053D02*
X119849248Y-143551291D01*
X119849248Y-143551291D02*
X119801629Y-143598910D01*
X119801629Y-143598910D02*
X119706391Y-143646529D01*
X119706391Y-143646529D02*
X119373058Y-143646529D01*
X120515915Y-144170339D02*
X120420677Y-144122720D01*
X120420677Y-144122720D02*
X120373058Y-144075100D01*
X120373058Y-144075100D02*
X120325439Y-143979862D01*
X120325439Y-143979862D02*
X120325439Y-143694148D01*
X120325439Y-143694148D02*
X120373058Y-143598910D01*
X120373058Y-143598910D02*
X120420677Y-143551291D01*
X120420677Y-143551291D02*
X120515915Y-143503672D01*
X120515915Y-143503672D02*
X120658772Y-143503672D01*
X120658772Y-143503672D02*
X120754010Y-143551291D01*
X120754010Y-143551291D02*
X120801629Y-143598910D01*
X120801629Y-143598910D02*
X120849248Y-143694148D01*
X120849248Y-143694148D02*
X120849248Y-143979862D01*
X120849248Y-143979862D02*
X120801629Y-144075100D01*
X120801629Y-144075100D02*
X120754010Y-144122720D01*
X120754010Y-144122720D02*
X120658772Y-144170339D01*
X120658772Y-144170339D02*
X120515915Y-144170339D01*
X121706391Y-144170339D02*
X121706391Y-143646529D01*
X121706391Y-143646529D02*
X121658772Y-143551291D01*
X121658772Y-143551291D02*
X121563534Y-143503672D01*
X121563534Y-143503672D02*
X121373058Y-143503672D01*
X121373058Y-143503672D02*
X121277820Y-143551291D01*
X121706391Y-144122720D02*
X121611153Y-144170339D01*
X121611153Y-144170339D02*
X121373058Y-144170339D01*
X121373058Y-144170339D02*
X121277820Y-144122720D01*
X121277820Y-144122720D02*
X121230201Y-144027481D01*
X121230201Y-144027481D02*
X121230201Y-143932243D01*
X121230201Y-143932243D02*
X121277820Y-143837005D01*
X121277820Y-143837005D02*
X121373058Y-143789386D01*
X121373058Y-143789386D02*
X121611153Y-143789386D01*
X121611153Y-143789386D02*
X121706391Y-143741767D01*
X122182582Y-144170339D02*
X122182582Y-143503672D01*
X122182582Y-143694148D02*
X122230201Y-143598910D01*
X122230201Y-143598910D02*
X122277820Y-143551291D01*
X122277820Y-143551291D02*
X122373058Y-143503672D01*
X122373058Y-143503672D02*
X122468296Y-143503672D01*
X123230201Y-144170339D02*
X123230201Y-143170339D01*
X123230201Y-144122720D02*
X123134963Y-144170339D01*
X123134963Y-144170339D02*
X122944487Y-144170339D01*
X122944487Y-144170339D02*
X122849249Y-144122720D01*
X122849249Y-144122720D02*
X122801630Y-144075100D01*
X122801630Y-144075100D02*
X122754011Y-143979862D01*
X122754011Y-143979862D02*
X122754011Y-143694148D01*
X122754011Y-143694148D02*
X122801630Y-143598910D01*
X122801630Y-143598910D02*
X122849249Y-143551291D01*
X122849249Y-143551291D02*
X122944487Y-143503672D01*
X122944487Y-143503672D02*
X123134963Y-143503672D01*
X123134963Y-143503672D02*
X123230201Y-143551291D01*
X124325440Y-143503672D02*
X124706392Y-143503672D01*
X124468297Y-144170339D02*
X124468297Y-143313196D01*
X124468297Y-143313196D02*
X124515916Y-143217958D01*
X124515916Y-143217958D02*
X124611154Y-143170339D01*
X124611154Y-143170339D02*
X124706392Y-143170339D01*
X125182583Y-144170339D02*
X125087345Y-144122720D01*
X125087345Y-144122720D02*
X125039726Y-144075100D01*
X125039726Y-144075100D02*
X124992107Y-143979862D01*
X124992107Y-143979862D02*
X124992107Y-143694148D01*
X124992107Y-143694148D02*
X125039726Y-143598910D01*
X125039726Y-143598910D02*
X125087345Y-143551291D01*
X125087345Y-143551291D02*
X125182583Y-143503672D01*
X125182583Y-143503672D02*
X125325440Y-143503672D01*
X125325440Y-143503672D02*
X125420678Y-143551291D01*
X125420678Y-143551291D02*
X125468297Y-143598910D01*
X125468297Y-143598910D02*
X125515916Y-143694148D01*
X125515916Y-143694148D02*
X125515916Y-143979862D01*
X125515916Y-143979862D02*
X125468297Y-144075100D01*
X125468297Y-144075100D02*
X125420678Y-144122720D01*
X125420678Y-144122720D02*
X125325440Y-144170339D01*
X125325440Y-144170339D02*
X125182583Y-144170339D01*
X125944488Y-144170339D02*
X125944488Y-143503672D01*
X125944488Y-143694148D02*
X125992107Y-143598910D01*
X125992107Y-143598910D02*
X126039726Y-143551291D01*
X126039726Y-143551291D02*
X126134964Y-143503672D01*
X126134964Y-143503672D02*
X126230202Y-143503672D01*
X127896869Y-144170339D02*
X127563536Y-143694148D01*
X127325441Y-144170339D02*
X127325441Y-143170339D01*
X127325441Y-143170339D02*
X127706393Y-143170339D01*
X127706393Y-143170339D02*
X127801631Y-143217958D01*
X127801631Y-143217958D02*
X127849250Y-143265577D01*
X127849250Y-143265577D02*
X127896869Y-143360815D01*
X127896869Y-143360815D02*
X127896869Y-143503672D01*
X127896869Y-143503672D02*
X127849250Y-143598910D01*
X127849250Y-143598910D02*
X127801631Y-143646529D01*
X127801631Y-143646529D02*
X127706393Y-143694148D01*
X127706393Y-143694148D02*
X127325441Y-143694148D01*
X128754012Y-144170339D02*
X128754012Y-143646529D01*
X128754012Y-143646529D02*
X128706393Y-143551291D01*
X128706393Y-143551291D02*
X128611155Y-143503672D01*
X128611155Y-143503672D02*
X128420679Y-143503672D01*
X128420679Y-143503672D02*
X128325441Y-143551291D01*
X128754012Y-144122720D02*
X128658774Y-144170339D01*
X128658774Y-144170339D02*
X128420679Y-144170339D01*
X128420679Y-144170339D02*
X128325441Y-144122720D01*
X128325441Y-144122720D02*
X128277822Y-144027481D01*
X128277822Y-144027481D02*
X128277822Y-143932243D01*
X128277822Y-143932243D02*
X128325441Y-143837005D01*
X128325441Y-143837005D02*
X128420679Y-143789386D01*
X128420679Y-143789386D02*
X128658774Y-143789386D01*
X128658774Y-143789386D02*
X128754012Y-143741767D01*
X129182584Y-144122720D02*
X129277822Y-144170339D01*
X129277822Y-144170339D02*
X129468298Y-144170339D01*
X129468298Y-144170339D02*
X129563536Y-144122720D01*
X129563536Y-144122720D02*
X129611155Y-144027481D01*
X129611155Y-144027481D02*
X129611155Y-143979862D01*
X129611155Y-143979862D02*
X129563536Y-143884624D01*
X129563536Y-143884624D02*
X129468298Y-143837005D01*
X129468298Y-143837005D02*
X129325441Y-143837005D01*
X129325441Y-143837005D02*
X129230203Y-143789386D01*
X129230203Y-143789386D02*
X129182584Y-143694148D01*
X129182584Y-143694148D02*
X129182584Y-143646529D01*
X129182584Y-143646529D02*
X129230203Y-143551291D01*
X129230203Y-143551291D02*
X129325441Y-143503672D01*
X129325441Y-143503672D02*
X129468298Y-143503672D01*
X129468298Y-143503672D02*
X129563536Y-143551291D01*
X130039727Y-143503672D02*
X130039727Y-144503672D01*
X130039727Y-143551291D02*
X130134965Y-143503672D01*
X130134965Y-143503672D02*
X130325441Y-143503672D01*
X130325441Y-143503672D02*
X130420679Y-143551291D01*
X130420679Y-143551291D02*
X130468298Y-143598910D01*
X130468298Y-143598910D02*
X130515917Y-143694148D01*
X130515917Y-143694148D02*
X130515917Y-143979862D01*
X130515917Y-143979862D02*
X130468298Y-144075100D01*
X130468298Y-144075100D02*
X130420679Y-144122720D01*
X130420679Y-144122720D02*
X130325441Y-144170339D01*
X130325441Y-144170339D02*
X130134965Y-144170339D01*
X130134965Y-144170339D02*
X130039727Y-144122720D01*
X130944489Y-144170339D02*
X130944489Y-143170339D01*
X130944489Y-143551291D02*
X131039727Y-143503672D01*
X131039727Y-143503672D02*
X131230203Y-143503672D01*
X131230203Y-143503672D02*
X131325441Y-143551291D01*
X131325441Y-143551291D02*
X131373060Y-143598910D01*
X131373060Y-143598910D02*
X131420679Y-143694148D01*
X131420679Y-143694148D02*
X131420679Y-143979862D01*
X131420679Y-143979862D02*
X131373060Y-144075100D01*
X131373060Y-144075100D02*
X131325441Y-144122720D01*
X131325441Y-144122720D02*
X131230203Y-144170339D01*
X131230203Y-144170339D02*
X131039727Y-144170339D01*
X131039727Y-144170339D02*
X130944489Y-144122720D01*
X132230203Y-144122720D02*
X132134965Y-144170339D01*
X132134965Y-144170339D02*
X131944489Y-144170339D01*
X131944489Y-144170339D02*
X131849251Y-144122720D01*
X131849251Y-144122720D02*
X131801632Y-144027481D01*
X131801632Y-144027481D02*
X131801632Y-143646529D01*
X131801632Y-143646529D02*
X131849251Y-143551291D01*
X131849251Y-143551291D02*
X131944489Y-143503672D01*
X131944489Y-143503672D02*
X132134965Y-143503672D01*
X132134965Y-143503672D02*
X132230203Y-143551291D01*
X132230203Y-143551291D02*
X132277822Y-143646529D01*
X132277822Y-143646529D02*
X132277822Y-143741767D01*
X132277822Y-143741767D02*
X131801632Y-143837005D01*
X132706394Y-144170339D02*
X132706394Y-143503672D01*
X132706394Y-143694148D02*
X132754013Y-143598910D01*
X132754013Y-143598910D02*
X132801632Y-143551291D01*
X132801632Y-143551291D02*
X132896870Y-143503672D01*
X132896870Y-143503672D02*
X132992108Y-143503672D01*
X133325442Y-144170339D02*
X133325442Y-143503672D01*
X133325442Y-143694148D02*
X133373061Y-143598910D01*
X133373061Y-143598910D02*
X133420680Y-143551291D01*
X133420680Y-143551291D02*
X133515918Y-143503672D01*
X133515918Y-143503672D02*
X133611156Y-143503672D01*
X133849252Y-143503672D02*
X134087347Y-144170339D01*
X134325442Y-143503672D02*
X134087347Y-144170339D01*
X134087347Y-144170339D02*
X133992109Y-144408434D01*
X133992109Y-144408434D02*
X133944490Y-144456053D01*
X133944490Y-144456053D02*
X133849252Y-144503672D01*
X135468300Y-144170339D02*
X135468300Y-143170339D01*
X135468300Y-143170339D02*
X135849252Y-143170339D01*
X135849252Y-143170339D02*
X135944490Y-143217958D01*
X135944490Y-143217958D02*
X135992109Y-143265577D01*
X135992109Y-143265577D02*
X136039728Y-143360815D01*
X136039728Y-143360815D02*
X136039728Y-143503672D01*
X136039728Y-143503672D02*
X135992109Y-143598910D01*
X135992109Y-143598910D02*
X135944490Y-143646529D01*
X135944490Y-143646529D02*
X135849252Y-143694148D01*
X135849252Y-143694148D02*
X135468300Y-143694148D01*
X136468300Y-144170339D02*
X136468300Y-143503672D01*
X136468300Y-143170339D02*
X136420681Y-143217958D01*
X136420681Y-143217958D02*
X136468300Y-143265577D01*
X136468300Y-143265577D02*
X136515919Y-143217958D01*
X136515919Y-143217958D02*
X136468300Y-143170339D01*
X136468300Y-143170339D02*
X136468300Y-143265577D01*
X137706395Y-144170339D02*
X137706395Y-143170339D01*
X137706395Y-143170339D02*
X138087347Y-143170339D01*
X138087347Y-143170339D02*
X138182585Y-143217958D01*
X138182585Y-143217958D02*
X138230204Y-143265577D01*
X138230204Y-143265577D02*
X138277823Y-143360815D01*
X138277823Y-143360815D02*
X138277823Y-143503672D01*
X138277823Y-143503672D02*
X138230204Y-143598910D01*
X138230204Y-143598910D02*
X138182585Y-143646529D01*
X138182585Y-143646529D02*
X138087347Y-143694148D01*
X138087347Y-143694148D02*
X137706395Y-143694148D01*
X138706395Y-144170339D02*
X138706395Y-143503672D01*
X138706395Y-143170339D02*
X138658776Y-143217958D01*
X138658776Y-143217958D02*
X138706395Y-143265577D01*
X138706395Y-143265577D02*
X138754014Y-143217958D01*
X138754014Y-143217958D02*
X138706395Y-143170339D01*
X138706395Y-143170339D02*
X138706395Y-143265577D01*
X139611156Y-144122720D02*
X139515918Y-144170339D01*
X139515918Y-144170339D02*
X139325442Y-144170339D01*
X139325442Y-144170339D02*
X139230204Y-144122720D01*
X139230204Y-144122720D02*
X139182585Y-144075100D01*
X139182585Y-144075100D02*
X139134966Y-143979862D01*
X139134966Y-143979862D02*
X139134966Y-143694148D01*
X139134966Y-143694148D02*
X139182585Y-143598910D01*
X139182585Y-143598910D02*
X139230204Y-143551291D01*
X139230204Y-143551291D02*
X139325442Y-143503672D01*
X139325442Y-143503672D02*
X139515918Y-143503672D01*
X139515918Y-143503672D02*
X139611156Y-143551291D01*
X140182585Y-144170339D02*
X140087347Y-144122720D01*
X140087347Y-144122720D02*
X140039728Y-144075100D01*
X140039728Y-144075100D02*
X139992109Y-143979862D01*
X139992109Y-143979862D02*
X139992109Y-143694148D01*
X139992109Y-143694148D02*
X140039728Y-143598910D01*
X140039728Y-143598910D02*
X140087347Y-143551291D01*
X140087347Y-143551291D02*
X140182585Y-143503672D01*
X140182585Y-143503672D02*
X140325442Y-143503672D01*
X140325442Y-143503672D02*
X140420680Y-143551291D01*
X140420680Y-143551291D02*
X140468299Y-143598910D01*
X140468299Y-143598910D02*
X140515918Y-143694148D01*
X140515918Y-143694148D02*
X140515918Y-143979862D01*
X140515918Y-143979862D02*
X140468299Y-144075100D01*
X140468299Y-144075100D02*
X140420680Y-144122720D01*
X140420680Y-144122720D02*
X140325442Y-144170339D01*
X140325442Y-144170339D02*
X140182585Y-144170339D01*
D10*
X99260588Y-72869819D02*
X98689160Y-72869819D01*
X98974874Y-72869819D02*
X98974874Y-71869819D01*
X98974874Y-71869819D02*
X98879636Y-72012676D01*
X98879636Y-72012676D02*
X98784398Y-72107914D01*
X98784398Y-72107914D02*
X98689160Y-72155533D01*
X99832017Y-72298390D02*
X99736779Y-72250771D01*
X99736779Y-72250771D02*
X99689160Y-72203152D01*
X99689160Y-72203152D02*
X99641541Y-72107914D01*
X99641541Y-72107914D02*
X99641541Y-72060295D01*
X99641541Y-72060295D02*
X99689160Y-71965057D01*
X99689160Y-71965057D02*
X99736779Y-71917438D01*
X99736779Y-71917438D02*
X99832017Y-71869819D01*
X99832017Y-71869819D02*
X100022493Y-71869819D01*
X100022493Y-71869819D02*
X100117731Y-71917438D01*
X100117731Y-71917438D02*
X100165350Y-71965057D01*
X100165350Y-71965057D02*
X100212969Y-72060295D01*
X100212969Y-72060295D02*
X100212969Y-72107914D01*
X100212969Y-72107914D02*
X100165350Y-72203152D01*
X100165350Y-72203152D02*
X100117731Y-72250771D01*
X100117731Y-72250771D02*
X100022493Y-72298390D01*
X100022493Y-72298390D02*
X99832017Y-72298390D01*
X99832017Y-72298390D02*
X99736779Y-72346009D01*
X99736779Y-72346009D02*
X99689160Y-72393628D01*
X99689160Y-72393628D02*
X99641541Y-72488866D01*
X99641541Y-72488866D02*
X99641541Y-72679342D01*
X99641541Y-72679342D02*
X99689160Y-72774580D01*
X99689160Y-72774580D02*
X99736779Y-72822200D01*
X99736779Y-72822200D02*
X99832017Y-72869819D01*
X99832017Y-72869819D02*
X100022493Y-72869819D01*
X100022493Y-72869819D02*
X100117731Y-72822200D01*
X100117731Y-72822200D02*
X100165350Y-72774580D01*
X100165350Y-72774580D02*
X100212969Y-72679342D01*
X100212969Y-72679342D02*
X100212969Y-72488866D01*
X100212969Y-72488866D02*
X100165350Y-72393628D01*
X100165350Y-72393628D02*
X100117731Y-72346009D01*
X100117731Y-72346009D02*
X100022493Y-72298390D01*
X100546303Y-71869819D02*
X101212969Y-71869819D01*
X101212969Y-71869819D02*
X100784398Y-72869819D01*
X102022493Y-72203152D02*
X102022493Y-72869819D01*
X101784398Y-71822200D02*
X101546303Y-72536485D01*
X101546303Y-72536485D02*
X102165350Y-72536485D01*
X102498684Y-71965057D02*
X102546303Y-71917438D01*
X102546303Y-71917438D02*
X102641541Y-71869819D01*
X102641541Y-71869819D02*
X102879636Y-71869819D01*
X102879636Y-71869819D02*
X102974874Y-71917438D01*
X102974874Y-71917438D02*
X103022493Y-71965057D01*
X103022493Y-71965057D02*
X103070112Y-72060295D01*
X103070112Y-72060295D02*
X103070112Y-72155533D01*
X103070112Y-72155533D02*
X103022493Y-72298390D01*
X103022493Y-72298390D02*
X102451065Y-72869819D01*
X102451065Y-72869819D02*
X103070112Y-72869819D01*
X49279636Y-101269819D02*
X49184398Y-101222200D01*
X49184398Y-101222200D02*
X49136779Y-101126961D01*
X49136779Y-101126961D02*
X49136779Y-100269819D01*
X49612970Y-100365057D02*
X49660589Y-100317438D01*
X49660589Y-100317438D02*
X49755827Y-100269819D01*
X49755827Y-100269819D02*
X49993922Y-100269819D01*
X49993922Y-100269819D02*
X50089160Y-100317438D01*
X50089160Y-100317438D02*
X50136779Y-100365057D01*
X50136779Y-100365057D02*
X50184398Y-100460295D01*
X50184398Y-100460295D02*
X50184398Y-100555533D01*
X50184398Y-100555533D02*
X50136779Y-100698390D01*
X50136779Y-100698390D02*
X49565351Y-101269819D01*
X49565351Y-101269819D02*
X50184398Y-101269819D01*
X51184398Y-101174580D02*
X51136779Y-101222200D01*
X51136779Y-101222200D02*
X50993922Y-101269819D01*
X50993922Y-101269819D02*
X50898684Y-101269819D01*
X50898684Y-101269819D02*
X50755827Y-101222200D01*
X50755827Y-101222200D02*
X50660589Y-101126961D01*
X50660589Y-101126961D02*
X50612970Y-101031723D01*
X50612970Y-101031723D02*
X50565351Y-100841247D01*
X50565351Y-100841247D02*
X50565351Y-100698390D01*
X50565351Y-100698390D02*
X50612970Y-100507914D01*
X50612970Y-100507914D02*
X50660589Y-100412676D01*
X50660589Y-100412676D02*
X50755827Y-100317438D01*
X50755827Y-100317438D02*
X50898684Y-100269819D01*
X50898684Y-100269819D02*
X50993922Y-100269819D01*
X50993922Y-100269819D02*
X51136779Y-100317438D01*
X51136779Y-100317438D02*
X51184398Y-100365057D01*
X51803446Y-100269819D02*
X51898684Y-100269819D01*
X51898684Y-100269819D02*
X51993922Y-100317438D01*
X51993922Y-100317438D02*
X52041541Y-100365057D01*
X52041541Y-100365057D02*
X52089160Y-100460295D01*
X52089160Y-100460295D02*
X52136779Y-100650771D01*
X52136779Y-100650771D02*
X52136779Y-100888866D01*
X52136779Y-100888866D02*
X52089160Y-101079342D01*
X52089160Y-101079342D02*
X52041541Y-101174580D01*
X52041541Y-101174580D02*
X51993922Y-101222200D01*
X51993922Y-101222200D02*
X51898684Y-101269819D01*
X51898684Y-101269819D02*
X51803446Y-101269819D01*
X51803446Y-101269819D02*
X51708208Y-101222200D01*
X51708208Y-101222200D02*
X51660589Y-101174580D01*
X51660589Y-101174580D02*
X51612970Y-101079342D01*
X51612970Y-101079342D02*
X51565351Y-100888866D01*
X51565351Y-100888866D02*
X51565351Y-100650771D01*
X51565351Y-100650771D02*
X51612970Y-100460295D01*
X51612970Y-100460295D02*
X51660589Y-100365057D01*
X51660589Y-100365057D02*
X51708208Y-100317438D01*
X51708208Y-100317438D02*
X51803446Y-100269819D01*
X115889160Y-112022200D02*
X116032017Y-112069819D01*
X116032017Y-112069819D02*
X116270112Y-112069819D01*
X116270112Y-112069819D02*
X116365350Y-112022200D01*
X116365350Y-112022200D02*
X116412969Y-111974580D01*
X116412969Y-111974580D02*
X116460588Y-111879342D01*
X116460588Y-111879342D02*
X116460588Y-111784104D01*
X116460588Y-111784104D02*
X116412969Y-111688866D01*
X116412969Y-111688866D02*
X116365350Y-111641247D01*
X116365350Y-111641247D02*
X116270112Y-111593628D01*
X116270112Y-111593628D02*
X116079636Y-111546009D01*
X116079636Y-111546009D02*
X115984398Y-111498390D01*
X115984398Y-111498390D02*
X115936779Y-111450771D01*
X115936779Y-111450771D02*
X115889160Y-111355533D01*
X115889160Y-111355533D02*
X115889160Y-111260295D01*
X115889160Y-111260295D02*
X115936779Y-111165057D01*
X115936779Y-111165057D02*
X115984398Y-111117438D01*
X115984398Y-111117438D02*
X116079636Y-111069819D01*
X116079636Y-111069819D02*
X116317731Y-111069819D01*
X116317731Y-111069819D02*
X116460588Y-111117438D01*
X116793922Y-111069819D02*
X117032017Y-112069819D01*
X117032017Y-112069819D02*
X117222493Y-111355533D01*
X117222493Y-111355533D02*
X117412969Y-112069819D01*
X117412969Y-112069819D02*
X117651065Y-111069819D01*
X117793922Y-112165057D02*
X118555826Y-112165057D01*
X118793922Y-112069819D02*
X118793922Y-111069819D01*
X118793922Y-111069819D02*
X119174874Y-111069819D01*
X119174874Y-111069819D02*
X119270112Y-111117438D01*
X119270112Y-111117438D02*
X119317731Y-111165057D01*
X119317731Y-111165057D02*
X119365350Y-111260295D01*
X119365350Y-111260295D02*
X119365350Y-111403152D01*
X119365350Y-111403152D02*
X119317731Y-111498390D01*
X119317731Y-111498390D02*
X119270112Y-111546009D01*
X119270112Y-111546009D02*
X119174874Y-111593628D01*
X119174874Y-111593628D02*
X118793922Y-111593628D01*
X120222493Y-111403152D02*
X120222493Y-112069819D01*
X119793922Y-111403152D02*
X119793922Y-111926961D01*
X119793922Y-111926961D02*
X119841541Y-112022200D01*
X119841541Y-112022200D02*
X119936779Y-112069819D01*
X119936779Y-112069819D02*
X120079636Y-112069819D01*
X120079636Y-112069819D02*
X120174874Y-112022200D01*
X120174874Y-112022200D02*
X120222493Y-111974580D01*
X120651065Y-112022200D02*
X120746303Y-112069819D01*
X120746303Y-112069819D02*
X120936779Y-112069819D01*
X120936779Y-112069819D02*
X121032017Y-112022200D01*
X121032017Y-112022200D02*
X121079636Y-111926961D01*
X121079636Y-111926961D02*
X121079636Y-111879342D01*
X121079636Y-111879342D02*
X121032017Y-111784104D01*
X121032017Y-111784104D02*
X120936779Y-111736485D01*
X120936779Y-111736485D02*
X120793922Y-111736485D01*
X120793922Y-111736485D02*
X120698684Y-111688866D01*
X120698684Y-111688866D02*
X120651065Y-111593628D01*
X120651065Y-111593628D02*
X120651065Y-111546009D01*
X120651065Y-111546009D02*
X120698684Y-111450771D01*
X120698684Y-111450771D02*
X120793922Y-111403152D01*
X120793922Y-111403152D02*
X120936779Y-111403152D01*
X120936779Y-111403152D02*
X121032017Y-111450771D01*
X121508208Y-112069819D02*
X121508208Y-111069819D01*
X121936779Y-112069819D02*
X121936779Y-111546009D01*
X121936779Y-111546009D02*
X121889160Y-111450771D01*
X121889160Y-111450771D02*
X121793922Y-111403152D01*
X121793922Y-111403152D02*
X121651065Y-111403152D01*
X121651065Y-111403152D02*
X121555827Y-111450771D01*
X121555827Y-111450771D02*
X121508208Y-111498390D01*
X122317732Y-111069819D02*
X122936779Y-111069819D01*
X122936779Y-111069819D02*
X122603446Y-111450771D01*
X122603446Y-111450771D02*
X122746303Y-111450771D01*
X122746303Y-111450771D02*
X122841541Y-111498390D01*
X122841541Y-111498390D02*
X122889160Y-111546009D01*
X122889160Y-111546009D02*
X122936779Y-111641247D01*
X122936779Y-111641247D02*
X122936779Y-111879342D01*
X122936779Y-111879342D02*
X122889160Y-111974580D01*
X122889160Y-111974580D02*
X122841541Y-112022200D01*
X122841541Y-112022200D02*
X122746303Y-112069819D01*
X122746303Y-112069819D02*
X122460589Y-112069819D01*
X122460589Y-112069819D02*
X122365351Y-112022200D01*
X122365351Y-112022200D02*
X122317732Y-111974580D01*
X48836779Y-66369819D02*
X48836779Y-67179342D01*
X48836779Y-67179342D02*
X48884398Y-67274580D01*
X48884398Y-67274580D02*
X48932017Y-67322200D01*
X48932017Y-67322200D02*
X49027255Y-67369819D01*
X49027255Y-67369819D02*
X49217731Y-67369819D01*
X49217731Y-67369819D02*
X49312969Y-67322200D01*
X49312969Y-67322200D02*
X49360588Y-67274580D01*
X49360588Y-67274580D02*
X49408207Y-67179342D01*
X49408207Y-67179342D02*
X49408207Y-66369819D01*
X49836779Y-67084104D02*
X50312969Y-67084104D01*
X49741541Y-67369819D02*
X50074874Y-66369819D01*
X50074874Y-66369819D02*
X50408207Y-67369819D01*
X51312969Y-67369819D02*
X50979636Y-66893628D01*
X50741541Y-67369819D02*
X50741541Y-66369819D01*
X50741541Y-66369819D02*
X51122493Y-66369819D01*
X51122493Y-66369819D02*
X51217731Y-66417438D01*
X51217731Y-66417438D02*
X51265350Y-66465057D01*
X51265350Y-66465057D02*
X51312969Y-66560295D01*
X51312969Y-66560295D02*
X51312969Y-66703152D01*
X51312969Y-66703152D02*
X51265350Y-66798390D01*
X51265350Y-66798390D02*
X51217731Y-66846009D01*
X51217731Y-66846009D02*
X51122493Y-66893628D01*
X51122493Y-66893628D02*
X50741541Y-66893628D01*
X51598684Y-66369819D02*
X52170112Y-66369819D01*
X51884398Y-67369819D02*
X51884398Y-66369819D01*
X52693922Y-66369819D02*
X52789160Y-66369819D01*
X52789160Y-66369819D02*
X52884398Y-66417438D01*
X52884398Y-66417438D02*
X52932017Y-66465057D01*
X52932017Y-66465057D02*
X52979636Y-66560295D01*
X52979636Y-66560295D02*
X53027255Y-66750771D01*
X53027255Y-66750771D02*
X53027255Y-66988866D01*
X53027255Y-66988866D02*
X52979636Y-67179342D01*
X52979636Y-67179342D02*
X52932017Y-67274580D01*
X52932017Y-67274580D02*
X52884398Y-67322200D01*
X52884398Y-67322200D02*
X52789160Y-67369819D01*
X52789160Y-67369819D02*
X52693922Y-67369819D01*
X52693922Y-67369819D02*
X52598684Y-67322200D01*
X52598684Y-67322200D02*
X52551065Y-67274580D01*
X52551065Y-67274580D02*
X52503446Y-67179342D01*
X52503446Y-67179342D02*
X52455827Y-66988866D01*
X52455827Y-66988866D02*
X52455827Y-66750771D01*
X52455827Y-66750771D02*
X52503446Y-66560295D01*
X52503446Y-66560295D02*
X52551065Y-66465057D01*
X52551065Y-66465057D02*
X52598684Y-66417438D01*
X52598684Y-66417438D02*
X52693922Y-66369819D01*
X115789160Y-100822200D02*
X115932017Y-100869819D01*
X115932017Y-100869819D02*
X116170112Y-100869819D01*
X116170112Y-100869819D02*
X116265350Y-100822200D01*
X116265350Y-100822200D02*
X116312969Y-100774580D01*
X116312969Y-100774580D02*
X116360588Y-100679342D01*
X116360588Y-100679342D02*
X116360588Y-100584104D01*
X116360588Y-100584104D02*
X116312969Y-100488866D01*
X116312969Y-100488866D02*
X116265350Y-100441247D01*
X116265350Y-100441247D02*
X116170112Y-100393628D01*
X116170112Y-100393628D02*
X115979636Y-100346009D01*
X115979636Y-100346009D02*
X115884398Y-100298390D01*
X115884398Y-100298390D02*
X115836779Y-100250771D01*
X115836779Y-100250771D02*
X115789160Y-100155533D01*
X115789160Y-100155533D02*
X115789160Y-100060295D01*
X115789160Y-100060295D02*
X115836779Y-99965057D01*
X115836779Y-99965057D02*
X115884398Y-99917438D01*
X115884398Y-99917438D02*
X115979636Y-99869819D01*
X115979636Y-99869819D02*
X116217731Y-99869819D01*
X116217731Y-99869819D02*
X116360588Y-99917438D01*
X116693922Y-99869819D02*
X116932017Y-100869819D01*
X116932017Y-100869819D02*
X117122493Y-100155533D01*
X117122493Y-100155533D02*
X117312969Y-100869819D01*
X117312969Y-100869819D02*
X117551065Y-99869819D01*
X117693922Y-100965057D02*
X118455826Y-100965057D01*
X118693922Y-100869819D02*
X118693922Y-99869819D01*
X118693922Y-99869819D02*
X119074874Y-99869819D01*
X119074874Y-99869819D02*
X119170112Y-99917438D01*
X119170112Y-99917438D02*
X119217731Y-99965057D01*
X119217731Y-99965057D02*
X119265350Y-100060295D01*
X119265350Y-100060295D02*
X119265350Y-100203152D01*
X119265350Y-100203152D02*
X119217731Y-100298390D01*
X119217731Y-100298390D02*
X119170112Y-100346009D01*
X119170112Y-100346009D02*
X119074874Y-100393628D01*
X119074874Y-100393628D02*
X118693922Y-100393628D01*
X120122493Y-100203152D02*
X120122493Y-100869819D01*
X119693922Y-100203152D02*
X119693922Y-100726961D01*
X119693922Y-100726961D02*
X119741541Y-100822200D01*
X119741541Y-100822200D02*
X119836779Y-100869819D01*
X119836779Y-100869819D02*
X119979636Y-100869819D01*
X119979636Y-100869819D02*
X120074874Y-100822200D01*
X120074874Y-100822200D02*
X120122493Y-100774580D01*
X120551065Y-100822200D02*
X120646303Y-100869819D01*
X120646303Y-100869819D02*
X120836779Y-100869819D01*
X120836779Y-100869819D02*
X120932017Y-100822200D01*
X120932017Y-100822200D02*
X120979636Y-100726961D01*
X120979636Y-100726961D02*
X120979636Y-100679342D01*
X120979636Y-100679342D02*
X120932017Y-100584104D01*
X120932017Y-100584104D02*
X120836779Y-100536485D01*
X120836779Y-100536485D02*
X120693922Y-100536485D01*
X120693922Y-100536485D02*
X120598684Y-100488866D01*
X120598684Y-100488866D02*
X120551065Y-100393628D01*
X120551065Y-100393628D02*
X120551065Y-100346009D01*
X120551065Y-100346009D02*
X120598684Y-100250771D01*
X120598684Y-100250771D02*
X120693922Y-100203152D01*
X120693922Y-100203152D02*
X120836779Y-100203152D01*
X120836779Y-100203152D02*
X120932017Y-100250771D01*
X121408208Y-100869819D02*
X121408208Y-99869819D01*
X121836779Y-100869819D02*
X121836779Y-100346009D01*
X121836779Y-100346009D02*
X121789160Y-100250771D01*
X121789160Y-100250771D02*
X121693922Y-100203152D01*
X121693922Y-100203152D02*
X121551065Y-100203152D01*
X121551065Y-100203152D02*
X121455827Y-100250771D01*
X121455827Y-100250771D02*
X121408208Y-100298390D01*
X122265351Y-99965057D02*
X122312970Y-99917438D01*
X122312970Y-99917438D02*
X122408208Y-99869819D01*
X122408208Y-99869819D02*
X122646303Y-99869819D01*
X122646303Y-99869819D02*
X122741541Y-99917438D01*
X122741541Y-99917438D02*
X122789160Y-99965057D01*
X122789160Y-99965057D02*
X122836779Y-100060295D01*
X122836779Y-100060295D02*
X122836779Y-100155533D01*
X122836779Y-100155533D02*
X122789160Y-100298390D01*
X122789160Y-100298390D02*
X122217732Y-100869819D01*
X122217732Y-100869819D02*
X122836779Y-100869819D01*
X48836779Y-80569819D02*
X48836779Y-81379342D01*
X48836779Y-81379342D02*
X48884398Y-81474580D01*
X48884398Y-81474580D02*
X48932017Y-81522200D01*
X48932017Y-81522200D02*
X49027255Y-81569819D01*
X49027255Y-81569819D02*
X49217731Y-81569819D01*
X49217731Y-81569819D02*
X49312969Y-81522200D01*
X49312969Y-81522200D02*
X49360588Y-81474580D01*
X49360588Y-81474580D02*
X49408207Y-81379342D01*
X49408207Y-81379342D02*
X49408207Y-80569819D01*
X49836779Y-81284104D02*
X50312969Y-81284104D01*
X49741541Y-81569819D02*
X50074874Y-80569819D01*
X50074874Y-80569819D02*
X50408207Y-81569819D01*
X51312969Y-81569819D02*
X50979636Y-81093628D01*
X50741541Y-81569819D02*
X50741541Y-80569819D01*
X50741541Y-80569819D02*
X51122493Y-80569819D01*
X51122493Y-80569819D02*
X51217731Y-80617438D01*
X51217731Y-80617438D02*
X51265350Y-80665057D01*
X51265350Y-80665057D02*
X51312969Y-80760295D01*
X51312969Y-80760295D02*
X51312969Y-80903152D01*
X51312969Y-80903152D02*
X51265350Y-80998390D01*
X51265350Y-80998390D02*
X51217731Y-81046009D01*
X51217731Y-81046009D02*
X51122493Y-81093628D01*
X51122493Y-81093628D02*
X50741541Y-81093628D01*
X51598684Y-80569819D02*
X52170112Y-80569819D01*
X51884398Y-81569819D02*
X51884398Y-80569819D01*
X53027255Y-81569819D02*
X52455827Y-81569819D01*
X52741541Y-81569819D02*
X52741541Y-80569819D01*
X52741541Y-80569819D02*
X52646303Y-80712676D01*
X52646303Y-80712676D02*
X52551065Y-80807914D01*
X52551065Y-80807914D02*
X52455827Y-80855533D01*
X52456905Y-134554819D02*
X52456905Y-133554819D01*
X52456905Y-133554819D02*
X52695000Y-133554819D01*
X52695000Y-133554819D02*
X52837857Y-133602438D01*
X52837857Y-133602438D02*
X52933095Y-133697676D01*
X52933095Y-133697676D02*
X52980714Y-133792914D01*
X52980714Y-133792914D02*
X53028333Y-133983390D01*
X53028333Y-133983390D02*
X53028333Y-134126247D01*
X53028333Y-134126247D02*
X52980714Y-134316723D01*
X52980714Y-134316723D02*
X52933095Y-134411961D01*
X52933095Y-134411961D02*
X52837857Y-134507200D01*
X52837857Y-134507200D02*
X52695000Y-134554819D01*
X52695000Y-134554819D02*
X52456905Y-134554819D01*
X53885476Y-133888152D02*
X53885476Y-134554819D01*
X53647381Y-133507200D02*
X53409286Y-134221485D01*
X53409286Y-134221485D02*
X54028333Y-134221485D01*
D14*
X131888333Y-68753365D02*
X131827857Y-68813842D01*
X131827857Y-68813842D02*
X131646428Y-68874318D01*
X131646428Y-68874318D02*
X131525476Y-68874318D01*
X131525476Y-68874318D02*
X131344047Y-68813842D01*
X131344047Y-68813842D02*
X131223095Y-68692889D01*
X131223095Y-68692889D02*
X131162618Y-68571937D01*
X131162618Y-68571937D02*
X131102142Y-68330032D01*
X131102142Y-68330032D02*
X131102142Y-68148603D01*
X131102142Y-68148603D02*
X131162618Y-67906699D01*
X131162618Y-67906699D02*
X131223095Y-67785746D01*
X131223095Y-67785746D02*
X131344047Y-67664794D01*
X131344047Y-67664794D02*
X131525476Y-67604318D01*
X131525476Y-67604318D02*
X131646428Y-67604318D01*
X131646428Y-67604318D02*
X131827857Y-67664794D01*
X131827857Y-67664794D02*
X131888333Y-67725270D01*
X133097857Y-68874318D02*
X132372142Y-68874318D01*
X132734999Y-68874318D02*
X132734999Y-67604318D01*
X132734999Y-67604318D02*
X132614047Y-67785746D01*
X132614047Y-67785746D02*
X132493095Y-67906699D01*
X132493095Y-67906699D02*
X132372142Y-67967175D01*
D10*
X75948095Y-95884819D02*
X75948095Y-96694342D01*
X75948095Y-96694342D02*
X75995714Y-96789580D01*
X75995714Y-96789580D02*
X76043333Y-96837200D01*
X76043333Y-96837200D02*
X76138571Y-96884819D01*
X76138571Y-96884819D02*
X76329047Y-96884819D01*
X76329047Y-96884819D02*
X76424285Y-96837200D01*
X76424285Y-96837200D02*
X76471904Y-96789580D01*
X76471904Y-96789580D02*
X76519523Y-96694342D01*
X76519523Y-96694342D02*
X76519523Y-95884819D01*
X77519523Y-96884819D02*
X76948095Y-96884819D01*
X77233809Y-96884819D02*
X77233809Y-95884819D01*
X77233809Y-95884819D02*
X77138571Y-96027676D01*
X77138571Y-96027676D02*
X77043333Y-96122914D01*
X77043333Y-96122914D02*
X76948095Y-96170533D01*
X88630749Y-75500242D02*
X89384996Y-75877366D01*
X89384996Y-75877366D02*
X89007873Y-75123118D01*
X89708245Y-75500242D02*
X89815995Y-75446367D01*
X89815995Y-75446367D02*
X89950682Y-75311680D01*
X89950682Y-75311680D02*
X89977619Y-75230868D01*
X89977619Y-75230868D02*
X89977619Y-75176993D01*
X89977619Y-75176993D02*
X89950682Y-75096181D01*
X89950682Y-75096181D02*
X89896807Y-75042306D01*
X89896807Y-75042306D02*
X89815995Y-75015369D01*
X89815995Y-75015369D02*
X89762120Y-75015369D01*
X89762120Y-75015369D02*
X89681308Y-75042306D01*
X89681308Y-75042306D02*
X89546621Y-75123118D01*
X89546621Y-75123118D02*
X89465808Y-75150056D01*
X89465808Y-75150056D02*
X89411934Y-75150056D01*
X89411934Y-75150056D02*
X89331121Y-75123118D01*
X89331121Y-75123118D02*
X89277247Y-75069244D01*
X89277247Y-75069244D02*
X89250309Y-74988431D01*
X89250309Y-74988431D02*
X89250309Y-74934557D01*
X89250309Y-74934557D02*
X89277247Y-74853744D01*
X89277247Y-74853744D02*
X89411934Y-74719057D01*
X89411934Y-74719057D02*
X89519683Y-74665183D01*
X90139244Y-74584370D02*
X90408618Y-74853744D01*
X89654370Y-74476621D02*
X90139244Y-74584370D01*
X90139244Y-74584370D02*
X90031494Y-74099497D01*
X90731866Y-74476621D02*
X90839616Y-74422746D01*
X90839616Y-74422746D02*
X90974303Y-74288059D01*
X90974303Y-74288059D02*
X91001240Y-74207247D01*
X91001240Y-74207247D02*
X91001240Y-74153372D01*
X91001240Y-74153372D02*
X90974303Y-74072560D01*
X90974303Y-74072560D02*
X90920428Y-74018685D01*
X90920428Y-74018685D02*
X90839616Y-73991748D01*
X90839616Y-73991748D02*
X90785741Y-73991748D01*
X90785741Y-73991748D02*
X90704929Y-74018685D01*
X90704929Y-74018685D02*
X90570242Y-74099497D01*
X90570242Y-74099497D02*
X90489430Y-74126435D01*
X90489430Y-74126435D02*
X90435555Y-74126435D01*
X90435555Y-74126435D02*
X90354743Y-74099497D01*
X90354743Y-74099497D02*
X90300868Y-74045622D01*
X90300868Y-74045622D02*
X90273930Y-73964810D01*
X90273930Y-73964810D02*
X90273930Y-73910935D01*
X90273930Y-73910935D02*
X90300868Y-73830123D01*
X90300868Y-73830123D02*
X90435555Y-73695436D01*
X90435555Y-73695436D02*
X90543304Y-73641561D01*
X62653998Y-118410868D02*
X62573185Y-118437805D01*
X62573185Y-118437805D02*
X62492373Y-118518618D01*
X62492373Y-118518618D02*
X62438498Y-118626367D01*
X62438498Y-118626367D02*
X62438498Y-118734117D01*
X62438498Y-118734117D02*
X62465436Y-118814929D01*
X62465436Y-118814929D02*
X62546248Y-118949616D01*
X62546248Y-118949616D02*
X62627060Y-119030428D01*
X62627060Y-119030428D02*
X62761747Y-119111241D01*
X62761747Y-119111241D02*
X62842560Y-119138178D01*
X62842560Y-119138178D02*
X62950309Y-119138178D01*
X62950309Y-119138178D02*
X63058059Y-119084303D01*
X63058059Y-119084303D02*
X63111934Y-119030428D01*
X63111934Y-119030428D02*
X63165808Y-118922679D01*
X63165808Y-118922679D02*
X63165808Y-118868804D01*
X63165808Y-118868804D02*
X62977247Y-118680242D01*
X62977247Y-118680242D02*
X62869497Y-118787992D01*
X63462120Y-118680242D02*
X62896434Y-118114557D01*
X62896434Y-118114557D02*
X63111934Y-117899057D01*
X63111934Y-117899057D02*
X63192746Y-117872120D01*
X63192746Y-117872120D02*
X63246621Y-117872120D01*
X63246621Y-117872120D02*
X63327433Y-117899057D01*
X63327433Y-117899057D02*
X63408245Y-117979870D01*
X63408245Y-117979870D02*
X63435182Y-118060682D01*
X63435182Y-118060682D02*
X63435182Y-118114557D01*
X63435182Y-118114557D02*
X63408245Y-118195369D01*
X63408245Y-118195369D02*
X63192746Y-118410868D01*
X64324117Y-117818245D02*
X64000868Y-118141494D01*
X64162492Y-117979870D02*
X63596807Y-117414184D01*
X63596807Y-117414184D02*
X63623744Y-117548871D01*
X63623744Y-117548871D02*
X63623744Y-117656621D01*
X63623744Y-117656621D02*
X63596807Y-117737433D01*
X64431866Y-116956248D02*
X64808990Y-117333372D01*
X64081680Y-116875436D02*
X64351054Y-117414184D01*
X64351054Y-117414184D02*
X64701240Y-117063998D01*
X88807998Y-93020868D02*
X88727185Y-93047805D01*
X88727185Y-93047805D02*
X88646373Y-93128618D01*
X88646373Y-93128618D02*
X88592498Y-93236367D01*
X88592498Y-93236367D02*
X88592498Y-93344117D01*
X88592498Y-93344117D02*
X88619436Y-93424929D01*
X88619436Y-93424929D02*
X88700248Y-93559616D01*
X88700248Y-93559616D02*
X88781060Y-93640428D01*
X88781060Y-93640428D02*
X88915747Y-93721241D01*
X88915747Y-93721241D02*
X88996560Y-93748178D01*
X88996560Y-93748178D02*
X89104309Y-93748178D01*
X89104309Y-93748178D02*
X89212059Y-93694303D01*
X89212059Y-93694303D02*
X89265934Y-93640428D01*
X89265934Y-93640428D02*
X89319808Y-93532679D01*
X89319808Y-93532679D02*
X89319808Y-93478804D01*
X89319808Y-93478804D02*
X89131247Y-93290242D01*
X89131247Y-93290242D02*
X89023497Y-93397992D01*
X89616120Y-93290242D02*
X89050434Y-92724557D01*
X89050434Y-92724557D02*
X89265934Y-92509057D01*
X89265934Y-92509057D02*
X89346746Y-92482120D01*
X89346746Y-92482120D02*
X89400621Y-92482120D01*
X89400621Y-92482120D02*
X89481433Y-92509057D01*
X89481433Y-92509057D02*
X89562245Y-92589870D01*
X89562245Y-92589870D02*
X89589182Y-92670682D01*
X89589182Y-92670682D02*
X89589182Y-92724557D01*
X89589182Y-92724557D02*
X89562245Y-92805369D01*
X89562245Y-92805369D02*
X89346746Y-93020868D01*
X89643057Y-92239683D02*
X89643057Y-92185809D01*
X89643057Y-92185809D02*
X89669995Y-92104996D01*
X89669995Y-92104996D02*
X89804682Y-91970309D01*
X89804682Y-91970309D02*
X89885494Y-91943372D01*
X89885494Y-91943372D02*
X89939369Y-91943372D01*
X89939369Y-91943372D02*
X90020181Y-91970309D01*
X90020181Y-91970309D02*
X90074056Y-92024184D01*
X90074056Y-92024184D02*
X90127930Y-92131934D01*
X90127930Y-92131934D02*
X90127930Y-92778431D01*
X90127930Y-92778431D02*
X90478117Y-92428245D01*
X90100993Y-91673998D02*
X90478117Y-91296874D01*
X90478117Y-91296874D02*
X90801366Y-92104996D01*
X63223372Y-72421494D02*
X63142560Y-72448431D01*
X63142560Y-72448431D02*
X63061748Y-72529243D01*
X63061748Y-72529243D02*
X63007873Y-72636993D01*
X63007873Y-72636993D02*
X63007873Y-72744742D01*
X63007873Y-72744742D02*
X63034810Y-72825555D01*
X63034810Y-72825555D02*
X63115623Y-72960242D01*
X63115623Y-72960242D02*
X63196435Y-73041054D01*
X63196435Y-73041054D02*
X63331122Y-73121866D01*
X63331122Y-73121866D02*
X63411934Y-73148803D01*
X63411934Y-73148803D02*
X63519684Y-73148803D01*
X63519684Y-73148803D02*
X63627433Y-73094929D01*
X63627433Y-73094929D02*
X63681308Y-73041054D01*
X63681308Y-73041054D02*
X63735183Y-72933304D01*
X63735183Y-72933304D02*
X63735183Y-72879429D01*
X63735183Y-72879429D02*
X63546621Y-72690868D01*
X63546621Y-72690868D02*
X63438871Y-72798617D01*
X64031494Y-72690868D02*
X63465809Y-72125182D01*
X63465809Y-72125182D02*
X63681308Y-71909683D01*
X63681308Y-71909683D02*
X63762120Y-71882746D01*
X63762120Y-71882746D02*
X63815995Y-71882746D01*
X63815995Y-71882746D02*
X63896807Y-71909683D01*
X63896807Y-71909683D02*
X63977619Y-71990495D01*
X63977619Y-71990495D02*
X64004557Y-72071307D01*
X64004557Y-72071307D02*
X64004557Y-72125182D01*
X64004557Y-72125182D02*
X63977619Y-72205994D01*
X63977619Y-72205994D02*
X63762120Y-72421494D01*
X64139244Y-71451747D02*
X64193119Y-71397872D01*
X64193119Y-71397872D02*
X64273931Y-71370935D01*
X64273931Y-71370935D02*
X64327806Y-71370935D01*
X64327806Y-71370935D02*
X64408618Y-71397872D01*
X64408618Y-71397872D02*
X64543305Y-71478685D01*
X64543305Y-71478685D02*
X64677992Y-71613372D01*
X64677992Y-71613372D02*
X64758804Y-71748059D01*
X64758804Y-71748059D02*
X64785741Y-71828871D01*
X64785741Y-71828871D02*
X64785741Y-71882746D01*
X64785741Y-71882746D02*
X64758804Y-71963558D01*
X64758804Y-71963558D02*
X64704929Y-72017433D01*
X64704929Y-72017433D02*
X64624117Y-72044370D01*
X64624117Y-72044370D02*
X64570242Y-72044370D01*
X64570242Y-72044370D02*
X64489430Y-72017433D01*
X64489430Y-72017433D02*
X64354743Y-71936620D01*
X64354743Y-71936620D02*
X64220056Y-71801933D01*
X64220056Y-71801933D02*
X64139244Y-71667246D01*
X64139244Y-71667246D02*
X64112306Y-71586434D01*
X64112306Y-71586434D02*
X64112306Y-71532559D01*
X64112306Y-71532559D02*
X64139244Y-71451747D01*
X63223372Y-92741494D02*
X63142560Y-92768431D01*
X63142560Y-92768431D02*
X63061748Y-92849243D01*
X63061748Y-92849243D02*
X63007873Y-92956993D01*
X63007873Y-92956993D02*
X63007873Y-93064742D01*
X63007873Y-93064742D02*
X63034810Y-93145555D01*
X63034810Y-93145555D02*
X63115623Y-93280242D01*
X63115623Y-93280242D02*
X63196435Y-93361054D01*
X63196435Y-93361054D02*
X63331122Y-93441866D01*
X63331122Y-93441866D02*
X63411934Y-93468803D01*
X63411934Y-93468803D02*
X63519684Y-93468803D01*
X63519684Y-93468803D02*
X63627433Y-93414929D01*
X63627433Y-93414929D02*
X63681308Y-93361054D01*
X63681308Y-93361054D02*
X63735183Y-93253304D01*
X63735183Y-93253304D02*
X63735183Y-93199429D01*
X63735183Y-93199429D02*
X63546621Y-93010868D01*
X63546621Y-93010868D02*
X63438871Y-93118617D01*
X64031494Y-93010868D02*
X63465809Y-92445182D01*
X63465809Y-92445182D02*
X63681308Y-92229683D01*
X63681308Y-92229683D02*
X63762120Y-92202746D01*
X63762120Y-92202746D02*
X63815995Y-92202746D01*
X63815995Y-92202746D02*
X63896807Y-92229683D01*
X63896807Y-92229683D02*
X63977619Y-92310495D01*
X63977619Y-92310495D02*
X64004557Y-92391307D01*
X64004557Y-92391307D02*
X64004557Y-92445182D01*
X64004557Y-92445182D02*
X63977619Y-92525994D01*
X63977619Y-92525994D02*
X63762120Y-92741494D01*
X64273931Y-91637060D02*
X64166181Y-91744810D01*
X64166181Y-91744810D02*
X64139244Y-91825622D01*
X64139244Y-91825622D02*
X64139244Y-91879497D01*
X64139244Y-91879497D02*
X64166181Y-92014184D01*
X64166181Y-92014184D02*
X64246993Y-92148871D01*
X64246993Y-92148871D02*
X64462493Y-92364370D01*
X64462493Y-92364370D02*
X64543305Y-92391307D01*
X64543305Y-92391307D02*
X64597180Y-92391307D01*
X64597180Y-92391307D02*
X64677992Y-92364370D01*
X64677992Y-92364370D02*
X64785741Y-92256620D01*
X64785741Y-92256620D02*
X64812679Y-92175808D01*
X64812679Y-92175808D02*
X64812679Y-92121933D01*
X64812679Y-92121933D02*
X64785741Y-92041121D01*
X64785741Y-92041121D02*
X64651054Y-91906434D01*
X64651054Y-91906434D02*
X64570242Y-91879497D01*
X64570242Y-91879497D02*
X64516367Y-91879497D01*
X64516367Y-91879497D02*
X64435555Y-91906434D01*
X64435555Y-91906434D02*
X64327806Y-92014184D01*
X64327806Y-92014184D02*
X64300868Y-92094996D01*
X64300868Y-92094996D02*
X64300868Y-92148871D01*
X64300868Y-92148871D02*
X64327806Y-92229683D01*
X88796435Y-102928431D02*
X88715623Y-102955368D01*
X88715623Y-102955368D02*
X88634811Y-103036180D01*
X88634811Y-103036180D02*
X88580936Y-103143930D01*
X88580936Y-103143930D02*
X88580936Y-103251680D01*
X88580936Y-103251680D02*
X88607873Y-103332492D01*
X88607873Y-103332492D02*
X88688685Y-103467179D01*
X88688685Y-103467179D02*
X88769498Y-103547991D01*
X88769498Y-103547991D02*
X88904185Y-103628803D01*
X88904185Y-103628803D02*
X88984997Y-103655741D01*
X88984997Y-103655741D02*
X89092746Y-103655741D01*
X89092746Y-103655741D02*
X89200496Y-103601866D01*
X89200496Y-103601866D02*
X89254371Y-103547991D01*
X89254371Y-103547991D02*
X89308246Y-103440241D01*
X89308246Y-103440241D02*
X89308246Y-103386367D01*
X89308246Y-103386367D02*
X89119684Y-103197805D01*
X89119684Y-103197805D02*
X89011934Y-103305554D01*
X89604557Y-103197805D02*
X89038872Y-102632119D01*
X89038872Y-102632119D02*
X89927806Y-102874556D01*
X89927806Y-102874556D02*
X89362120Y-102308871D01*
X90197180Y-102605182D02*
X89631494Y-102039497D01*
X89631494Y-102039497D02*
X89766181Y-101904810D01*
X89766181Y-101904810D02*
X89873931Y-101850935D01*
X89873931Y-101850935D02*
X89981680Y-101850935D01*
X89981680Y-101850935D02*
X90062493Y-101877872D01*
X90062493Y-101877872D02*
X90197180Y-101958685D01*
X90197180Y-101958685D02*
X90277992Y-102039497D01*
X90277992Y-102039497D02*
X90358804Y-102174184D01*
X90358804Y-102174184D02*
X90385741Y-102254996D01*
X90385741Y-102254996D02*
X90385741Y-102362746D01*
X90385741Y-102362746D02*
X90331867Y-102470495D01*
X90331867Y-102470495D02*
X90197180Y-102605182D01*
X62553998Y-108250868D02*
X62473185Y-108277805D01*
X62473185Y-108277805D02*
X62392373Y-108358618D01*
X62392373Y-108358618D02*
X62338498Y-108466367D01*
X62338498Y-108466367D02*
X62338498Y-108574117D01*
X62338498Y-108574117D02*
X62365436Y-108654929D01*
X62365436Y-108654929D02*
X62446248Y-108789616D01*
X62446248Y-108789616D02*
X62527060Y-108870428D01*
X62527060Y-108870428D02*
X62661747Y-108951241D01*
X62661747Y-108951241D02*
X62742560Y-108978178D01*
X62742560Y-108978178D02*
X62850309Y-108978178D01*
X62850309Y-108978178D02*
X62958059Y-108924303D01*
X62958059Y-108924303D02*
X63011934Y-108870428D01*
X63011934Y-108870428D02*
X63065808Y-108762679D01*
X63065808Y-108762679D02*
X63065808Y-108708804D01*
X63065808Y-108708804D02*
X62877247Y-108520242D01*
X62877247Y-108520242D02*
X62769497Y-108627992D01*
X63362120Y-108520242D02*
X62796434Y-107954557D01*
X62796434Y-107954557D02*
X63011934Y-107739057D01*
X63011934Y-107739057D02*
X63092746Y-107712120D01*
X63092746Y-107712120D02*
X63146621Y-107712120D01*
X63146621Y-107712120D02*
X63227433Y-107739057D01*
X63227433Y-107739057D02*
X63308245Y-107819870D01*
X63308245Y-107819870D02*
X63335182Y-107900682D01*
X63335182Y-107900682D02*
X63335182Y-107954557D01*
X63335182Y-107954557D02*
X63308245Y-108035369D01*
X63308245Y-108035369D02*
X63092746Y-108250868D01*
X64224117Y-107658245D02*
X63900868Y-107981494D01*
X64062492Y-107819870D02*
X63496807Y-107254184D01*
X63496807Y-107254184D02*
X63523744Y-107388871D01*
X63523744Y-107388871D02*
X63523744Y-107496621D01*
X63523744Y-107496621D02*
X63496807Y-107577433D01*
X64762865Y-107119497D02*
X64439616Y-107442746D01*
X64601240Y-107281121D02*
X64035555Y-106715436D01*
X64035555Y-106715436D02*
X64062492Y-106850123D01*
X64062492Y-106850123D02*
X64062492Y-106957873D01*
X64062492Y-106957873D02*
X64035555Y-107038685D01*
X88861873Y-91171240D02*
X89131247Y-90901866D01*
X88969623Y-91386739D02*
X88592499Y-90632492D01*
X88592499Y-90632492D02*
X89346746Y-91009615D01*
X89292871Y-89985994D02*
X89212059Y-90012932D01*
X89212059Y-90012932D02*
X89131247Y-90093744D01*
X89131247Y-90093744D02*
X89077372Y-90201494D01*
X89077372Y-90201494D02*
X89077372Y-90309243D01*
X89077372Y-90309243D02*
X89104310Y-90390055D01*
X89104310Y-90390055D02*
X89185122Y-90524742D01*
X89185122Y-90524742D02*
X89265934Y-90605555D01*
X89265934Y-90605555D02*
X89400621Y-90686367D01*
X89400621Y-90686367D02*
X89481433Y-90713304D01*
X89481433Y-90713304D02*
X89589183Y-90713304D01*
X89589183Y-90713304D02*
X89696932Y-90659429D01*
X89696932Y-90659429D02*
X89750807Y-90605555D01*
X89750807Y-90605555D02*
X89804682Y-90497805D01*
X89804682Y-90497805D02*
X89804682Y-90443930D01*
X89804682Y-90443930D02*
X89616120Y-90255368D01*
X89616120Y-90255368D02*
X89508371Y-90363118D01*
X90100993Y-90255368D02*
X89535308Y-89689683D01*
X89535308Y-89689683D02*
X90424242Y-89932120D01*
X90424242Y-89932120D02*
X89858557Y-89366434D01*
X90693616Y-89662746D02*
X90127931Y-89097060D01*
X90127931Y-89097060D02*
X90262618Y-88962373D01*
X90262618Y-88962373D02*
X90370367Y-88908498D01*
X90370367Y-88908498D02*
X90478117Y-88908498D01*
X90478117Y-88908498D02*
X90558929Y-88935436D01*
X90558929Y-88935436D02*
X90693616Y-89016248D01*
X90693616Y-89016248D02*
X90774428Y-89097060D01*
X90774428Y-89097060D02*
X90855241Y-89231747D01*
X90855241Y-89231747D02*
X90882178Y-89312560D01*
X90882178Y-89312560D02*
X90882178Y-89420309D01*
X90882178Y-89420309D02*
X90828303Y-89528059D01*
X90828303Y-89528059D02*
X90693616Y-89662746D01*
X62699998Y-113330868D02*
X62619185Y-113357805D01*
X62619185Y-113357805D02*
X62538373Y-113438618D01*
X62538373Y-113438618D02*
X62484498Y-113546367D01*
X62484498Y-113546367D02*
X62484498Y-113654117D01*
X62484498Y-113654117D02*
X62511436Y-113734929D01*
X62511436Y-113734929D02*
X62592248Y-113869616D01*
X62592248Y-113869616D02*
X62673060Y-113950428D01*
X62673060Y-113950428D02*
X62807747Y-114031241D01*
X62807747Y-114031241D02*
X62888560Y-114058178D01*
X62888560Y-114058178D02*
X62996309Y-114058178D01*
X62996309Y-114058178D02*
X63104059Y-114004303D01*
X63104059Y-114004303D02*
X63157934Y-113950428D01*
X63157934Y-113950428D02*
X63211808Y-113842679D01*
X63211808Y-113842679D02*
X63211808Y-113788804D01*
X63211808Y-113788804D02*
X63023247Y-113600242D01*
X63023247Y-113600242D02*
X62915497Y-113707992D01*
X63508120Y-113600242D02*
X62942434Y-113034557D01*
X62942434Y-113034557D02*
X63157934Y-112819057D01*
X63157934Y-112819057D02*
X63238746Y-112792120D01*
X63238746Y-112792120D02*
X63292621Y-112792120D01*
X63292621Y-112792120D02*
X63373433Y-112819057D01*
X63373433Y-112819057D02*
X63454245Y-112899870D01*
X63454245Y-112899870D02*
X63481182Y-112980682D01*
X63481182Y-112980682D02*
X63481182Y-113034557D01*
X63481182Y-113034557D02*
X63454245Y-113115369D01*
X63454245Y-113115369D02*
X63238746Y-113330868D01*
X64370117Y-112738245D02*
X64046868Y-113061494D01*
X64208492Y-112899870D02*
X63642807Y-112334184D01*
X63642807Y-112334184D02*
X63669744Y-112468871D01*
X63669744Y-112468871D02*
X63669744Y-112576621D01*
X63669744Y-112576621D02*
X63642807Y-112657433D01*
X63992993Y-111983998D02*
X64343179Y-111633812D01*
X64343179Y-111633812D02*
X64370117Y-112037873D01*
X64370117Y-112037873D02*
X64450929Y-111957060D01*
X64450929Y-111957060D02*
X64531741Y-111930123D01*
X64531741Y-111930123D02*
X64585616Y-111930123D01*
X64585616Y-111930123D02*
X64666428Y-111957060D01*
X64666428Y-111957060D02*
X64801115Y-112091747D01*
X64801115Y-112091747D02*
X64828053Y-112172560D01*
X64828053Y-112172560D02*
X64828053Y-112226434D01*
X64828053Y-112226434D02*
X64801115Y-112307247D01*
X64801115Y-112307247D02*
X64639491Y-112468871D01*
X64639491Y-112468871D02*
X64558679Y-112495808D01*
X64558679Y-112495808D02*
X64504804Y-112495808D01*
X88796435Y-77528431D02*
X88715623Y-77555368D01*
X88715623Y-77555368D02*
X88634811Y-77636180D01*
X88634811Y-77636180D02*
X88580936Y-77743930D01*
X88580936Y-77743930D02*
X88580936Y-77851680D01*
X88580936Y-77851680D02*
X88607873Y-77932492D01*
X88607873Y-77932492D02*
X88688685Y-78067179D01*
X88688685Y-78067179D02*
X88769498Y-78147991D01*
X88769498Y-78147991D02*
X88904185Y-78228803D01*
X88904185Y-78228803D02*
X88984997Y-78255741D01*
X88984997Y-78255741D02*
X89092746Y-78255741D01*
X89092746Y-78255741D02*
X89200496Y-78201866D01*
X89200496Y-78201866D02*
X89254371Y-78147991D01*
X89254371Y-78147991D02*
X89308246Y-78040241D01*
X89308246Y-78040241D02*
X89308246Y-77986367D01*
X89308246Y-77986367D02*
X89119684Y-77797805D01*
X89119684Y-77797805D02*
X89011934Y-77905554D01*
X89604557Y-77797805D02*
X89038872Y-77232119D01*
X89038872Y-77232119D02*
X89927806Y-77474556D01*
X89927806Y-77474556D02*
X89362120Y-76908871D01*
X90197180Y-77205182D02*
X89631494Y-76639497D01*
X89631494Y-76639497D02*
X89766181Y-76504810D01*
X89766181Y-76504810D02*
X89873931Y-76450935D01*
X89873931Y-76450935D02*
X89981680Y-76450935D01*
X89981680Y-76450935D02*
X90062493Y-76477872D01*
X90062493Y-76477872D02*
X90197180Y-76558685D01*
X90197180Y-76558685D02*
X90277992Y-76639497D01*
X90277992Y-76639497D02*
X90358804Y-76774184D01*
X90358804Y-76774184D02*
X90385741Y-76854996D01*
X90385741Y-76854996D02*
X90385741Y-76962746D01*
X90385741Y-76962746D02*
X90331867Y-77070495D01*
X90331867Y-77070495D02*
X90197180Y-77205182D01*
X88807998Y-113330868D02*
X88727185Y-113357805D01*
X88727185Y-113357805D02*
X88646373Y-113438618D01*
X88646373Y-113438618D02*
X88592498Y-113546367D01*
X88592498Y-113546367D02*
X88592498Y-113654117D01*
X88592498Y-113654117D02*
X88619436Y-113734929D01*
X88619436Y-113734929D02*
X88700248Y-113869616D01*
X88700248Y-113869616D02*
X88781060Y-113950428D01*
X88781060Y-113950428D02*
X88915747Y-114031241D01*
X88915747Y-114031241D02*
X88996560Y-114058178D01*
X88996560Y-114058178D02*
X89104309Y-114058178D01*
X89104309Y-114058178D02*
X89212059Y-114004303D01*
X89212059Y-114004303D02*
X89265934Y-113950428D01*
X89265934Y-113950428D02*
X89319808Y-113842679D01*
X89319808Y-113842679D02*
X89319808Y-113788804D01*
X89319808Y-113788804D02*
X89131247Y-113600242D01*
X89131247Y-113600242D02*
X89023497Y-113707992D01*
X89616120Y-113600242D02*
X89050434Y-113034557D01*
X89050434Y-113034557D02*
X89265934Y-112819057D01*
X89265934Y-112819057D02*
X89346746Y-112792120D01*
X89346746Y-112792120D02*
X89400621Y-112792120D01*
X89400621Y-112792120D02*
X89481433Y-112819057D01*
X89481433Y-112819057D02*
X89562245Y-112899870D01*
X89562245Y-112899870D02*
X89589182Y-112980682D01*
X89589182Y-112980682D02*
X89589182Y-113034557D01*
X89589182Y-113034557D02*
X89562245Y-113115369D01*
X89562245Y-113115369D02*
X89346746Y-113330868D01*
X90478117Y-112738245D02*
X90154868Y-113061494D01*
X90316492Y-112899870D02*
X89750807Y-112334184D01*
X89750807Y-112334184D02*
X89777744Y-112468871D01*
X89777744Y-112468871D02*
X89777744Y-112576621D01*
X89777744Y-112576621D02*
X89750807Y-112657433D01*
X90478117Y-112091747D02*
X90397305Y-112118685D01*
X90397305Y-112118685D02*
X90343430Y-112118685D01*
X90343430Y-112118685D02*
X90262618Y-112091747D01*
X90262618Y-112091747D02*
X90235680Y-112064810D01*
X90235680Y-112064810D02*
X90208743Y-111983998D01*
X90208743Y-111983998D02*
X90208743Y-111930123D01*
X90208743Y-111930123D02*
X90235680Y-111849311D01*
X90235680Y-111849311D02*
X90343430Y-111741561D01*
X90343430Y-111741561D02*
X90424242Y-111714624D01*
X90424242Y-111714624D02*
X90478117Y-111714624D01*
X90478117Y-111714624D02*
X90558929Y-111741561D01*
X90558929Y-111741561D02*
X90585866Y-111768499D01*
X90585866Y-111768499D02*
X90612804Y-111849311D01*
X90612804Y-111849311D02*
X90612804Y-111903186D01*
X90612804Y-111903186D02*
X90585866Y-111983998D01*
X90585866Y-111983998D02*
X90478117Y-112091747D01*
X90478117Y-112091747D02*
X90451179Y-112172560D01*
X90451179Y-112172560D02*
X90451179Y-112226434D01*
X90451179Y-112226434D02*
X90478117Y-112307247D01*
X90478117Y-112307247D02*
X90585866Y-112414996D01*
X90585866Y-112414996D02*
X90666679Y-112441934D01*
X90666679Y-112441934D02*
X90720553Y-112441934D01*
X90720553Y-112441934D02*
X90801366Y-112414996D01*
X90801366Y-112414996D02*
X90909115Y-112307247D01*
X90909115Y-112307247D02*
X90936053Y-112226434D01*
X90936053Y-112226434D02*
X90936053Y-112172560D01*
X90936053Y-112172560D02*
X90909115Y-112091747D01*
X90909115Y-112091747D02*
X90801366Y-111983998D01*
X90801366Y-111983998D02*
X90720553Y-111957060D01*
X90720553Y-111957060D02*
X90666679Y-111957060D01*
X90666679Y-111957060D02*
X90585866Y-111983998D01*
X88807998Y-120950868D02*
X88727185Y-120977805D01*
X88727185Y-120977805D02*
X88646373Y-121058618D01*
X88646373Y-121058618D02*
X88592498Y-121166367D01*
X88592498Y-121166367D02*
X88592498Y-121274117D01*
X88592498Y-121274117D02*
X88619436Y-121354929D01*
X88619436Y-121354929D02*
X88700248Y-121489616D01*
X88700248Y-121489616D02*
X88781060Y-121570428D01*
X88781060Y-121570428D02*
X88915747Y-121651241D01*
X88915747Y-121651241D02*
X88996560Y-121678178D01*
X88996560Y-121678178D02*
X89104309Y-121678178D01*
X89104309Y-121678178D02*
X89212059Y-121624303D01*
X89212059Y-121624303D02*
X89265934Y-121570428D01*
X89265934Y-121570428D02*
X89319808Y-121462679D01*
X89319808Y-121462679D02*
X89319808Y-121408804D01*
X89319808Y-121408804D02*
X89131247Y-121220242D01*
X89131247Y-121220242D02*
X89023497Y-121327992D01*
X89616120Y-121220242D02*
X89050434Y-120654557D01*
X89050434Y-120654557D02*
X89265934Y-120439057D01*
X89265934Y-120439057D02*
X89346746Y-120412120D01*
X89346746Y-120412120D02*
X89400621Y-120412120D01*
X89400621Y-120412120D02*
X89481433Y-120439057D01*
X89481433Y-120439057D02*
X89562245Y-120519870D01*
X89562245Y-120519870D02*
X89589182Y-120600682D01*
X89589182Y-120600682D02*
X89589182Y-120654557D01*
X89589182Y-120654557D02*
X89562245Y-120735369D01*
X89562245Y-120735369D02*
X89346746Y-120950868D01*
X90478117Y-120358245D02*
X90154868Y-120681494D01*
X90316492Y-120519870D02*
X89750807Y-119954184D01*
X89750807Y-119954184D02*
X89777744Y-120088871D01*
X89777744Y-120088871D02*
X89777744Y-120196621D01*
X89777744Y-120196621D02*
X89750807Y-120277433D01*
X90397305Y-119307686D02*
X90289555Y-119415436D01*
X90289555Y-119415436D02*
X90262618Y-119496248D01*
X90262618Y-119496248D02*
X90262618Y-119550123D01*
X90262618Y-119550123D02*
X90289555Y-119684810D01*
X90289555Y-119684810D02*
X90370367Y-119819497D01*
X90370367Y-119819497D02*
X90585866Y-120034996D01*
X90585866Y-120034996D02*
X90666679Y-120061934D01*
X90666679Y-120061934D02*
X90720553Y-120061934D01*
X90720553Y-120061934D02*
X90801366Y-120034996D01*
X90801366Y-120034996D02*
X90909115Y-119927247D01*
X90909115Y-119927247D02*
X90936053Y-119846434D01*
X90936053Y-119846434D02*
X90936053Y-119792560D01*
X90936053Y-119792560D02*
X90909115Y-119711747D01*
X90909115Y-119711747D02*
X90774428Y-119577060D01*
X90774428Y-119577060D02*
X90693616Y-119550123D01*
X90693616Y-119550123D02*
X90639741Y-119550123D01*
X90639741Y-119550123D02*
X90558929Y-119577060D01*
X90558929Y-119577060D02*
X90451179Y-119684810D01*
X90451179Y-119684810D02*
X90424242Y-119765622D01*
X90424242Y-119765622D02*
X90424242Y-119819497D01*
X90424242Y-119819497D02*
X90451179Y-119900309D01*
X63223372Y-87661494D02*
X63142560Y-87688431D01*
X63142560Y-87688431D02*
X63061748Y-87769243D01*
X63061748Y-87769243D02*
X63007873Y-87876993D01*
X63007873Y-87876993D02*
X63007873Y-87984742D01*
X63007873Y-87984742D02*
X63034810Y-88065555D01*
X63034810Y-88065555D02*
X63115623Y-88200242D01*
X63115623Y-88200242D02*
X63196435Y-88281054D01*
X63196435Y-88281054D02*
X63331122Y-88361866D01*
X63331122Y-88361866D02*
X63411934Y-88388803D01*
X63411934Y-88388803D02*
X63519684Y-88388803D01*
X63519684Y-88388803D02*
X63627433Y-88334929D01*
X63627433Y-88334929D02*
X63681308Y-88281054D01*
X63681308Y-88281054D02*
X63735183Y-88173304D01*
X63735183Y-88173304D02*
X63735183Y-88119429D01*
X63735183Y-88119429D02*
X63546621Y-87930868D01*
X63546621Y-87930868D02*
X63438871Y-88038617D01*
X64031494Y-87930868D02*
X63465809Y-87365182D01*
X63465809Y-87365182D02*
X63681308Y-87149683D01*
X63681308Y-87149683D02*
X63762120Y-87122746D01*
X63762120Y-87122746D02*
X63815995Y-87122746D01*
X63815995Y-87122746D02*
X63896807Y-87149683D01*
X63896807Y-87149683D02*
X63977619Y-87230495D01*
X63977619Y-87230495D02*
X64004557Y-87311307D01*
X64004557Y-87311307D02*
X64004557Y-87365182D01*
X64004557Y-87365182D02*
X63977619Y-87445994D01*
X63977619Y-87445994D02*
X63762120Y-87661494D01*
X64300868Y-86530123D02*
X64031494Y-86799497D01*
X64031494Y-86799497D02*
X64273931Y-87095808D01*
X64273931Y-87095808D02*
X64273931Y-87041933D01*
X64273931Y-87041933D02*
X64300868Y-86961121D01*
X64300868Y-86961121D02*
X64435555Y-86826434D01*
X64435555Y-86826434D02*
X64516367Y-86799497D01*
X64516367Y-86799497D02*
X64570242Y-86799497D01*
X64570242Y-86799497D02*
X64651054Y-86826434D01*
X64651054Y-86826434D02*
X64785741Y-86961121D01*
X64785741Y-86961121D02*
X64812679Y-87041933D01*
X64812679Y-87041933D02*
X64812679Y-87095808D01*
X64812679Y-87095808D02*
X64785741Y-87176620D01*
X64785741Y-87176620D02*
X64651054Y-87311307D01*
X64651054Y-87311307D02*
X64570242Y-87338245D01*
X64570242Y-87338245D02*
X64516367Y-87338245D01*
X88796435Y-115628431D02*
X88715623Y-115655368D01*
X88715623Y-115655368D02*
X88634811Y-115736180D01*
X88634811Y-115736180D02*
X88580936Y-115843930D01*
X88580936Y-115843930D02*
X88580936Y-115951680D01*
X88580936Y-115951680D02*
X88607873Y-116032492D01*
X88607873Y-116032492D02*
X88688685Y-116167179D01*
X88688685Y-116167179D02*
X88769498Y-116247991D01*
X88769498Y-116247991D02*
X88904185Y-116328803D01*
X88904185Y-116328803D02*
X88984997Y-116355741D01*
X88984997Y-116355741D02*
X89092746Y-116355741D01*
X89092746Y-116355741D02*
X89200496Y-116301866D01*
X89200496Y-116301866D02*
X89254371Y-116247991D01*
X89254371Y-116247991D02*
X89308246Y-116140241D01*
X89308246Y-116140241D02*
X89308246Y-116086367D01*
X89308246Y-116086367D02*
X89119684Y-115897805D01*
X89119684Y-115897805D02*
X89011934Y-116005554D01*
X89604557Y-115897805D02*
X89038872Y-115332119D01*
X89038872Y-115332119D02*
X89927806Y-115574556D01*
X89927806Y-115574556D02*
X89362120Y-115008871D01*
X90197180Y-115305182D02*
X89631494Y-114739497D01*
X89631494Y-114739497D02*
X89766181Y-114604810D01*
X89766181Y-114604810D02*
X89873931Y-114550935D01*
X89873931Y-114550935D02*
X89981680Y-114550935D01*
X89981680Y-114550935D02*
X90062493Y-114577872D01*
X90062493Y-114577872D02*
X90197180Y-114658685D01*
X90197180Y-114658685D02*
X90277992Y-114739497D01*
X90277992Y-114739497D02*
X90358804Y-114874184D01*
X90358804Y-114874184D02*
X90385741Y-114954996D01*
X90385741Y-114954996D02*
X90385741Y-115062746D01*
X90385741Y-115062746D02*
X90331867Y-115170495D01*
X90331867Y-115170495D02*
X90197180Y-115305182D01*
X88807998Y-118410868D02*
X88727185Y-118437805D01*
X88727185Y-118437805D02*
X88646373Y-118518618D01*
X88646373Y-118518618D02*
X88592498Y-118626367D01*
X88592498Y-118626367D02*
X88592498Y-118734117D01*
X88592498Y-118734117D02*
X88619436Y-118814929D01*
X88619436Y-118814929D02*
X88700248Y-118949616D01*
X88700248Y-118949616D02*
X88781060Y-119030428D01*
X88781060Y-119030428D02*
X88915747Y-119111241D01*
X88915747Y-119111241D02*
X88996560Y-119138178D01*
X88996560Y-119138178D02*
X89104309Y-119138178D01*
X89104309Y-119138178D02*
X89212059Y-119084303D01*
X89212059Y-119084303D02*
X89265934Y-119030428D01*
X89265934Y-119030428D02*
X89319808Y-118922679D01*
X89319808Y-118922679D02*
X89319808Y-118868804D01*
X89319808Y-118868804D02*
X89131247Y-118680242D01*
X89131247Y-118680242D02*
X89023497Y-118787992D01*
X89616120Y-118680242D02*
X89050434Y-118114557D01*
X89050434Y-118114557D02*
X89265934Y-117899057D01*
X89265934Y-117899057D02*
X89346746Y-117872120D01*
X89346746Y-117872120D02*
X89400621Y-117872120D01*
X89400621Y-117872120D02*
X89481433Y-117899057D01*
X89481433Y-117899057D02*
X89562245Y-117979870D01*
X89562245Y-117979870D02*
X89589182Y-118060682D01*
X89589182Y-118060682D02*
X89589182Y-118114557D01*
X89589182Y-118114557D02*
X89562245Y-118195369D01*
X89562245Y-118195369D02*
X89346746Y-118410868D01*
X90478117Y-117818245D02*
X90154868Y-118141494D01*
X90316492Y-117979870D02*
X89750807Y-117414184D01*
X89750807Y-117414184D02*
X89777744Y-117548871D01*
X89777744Y-117548871D02*
X89777744Y-117656621D01*
X89777744Y-117656621D02*
X89750807Y-117737433D01*
X90100993Y-117063998D02*
X90478117Y-116686874D01*
X90478117Y-116686874D02*
X90801366Y-117494996D01*
X88807998Y-105720868D02*
X88727185Y-105747805D01*
X88727185Y-105747805D02*
X88646373Y-105828618D01*
X88646373Y-105828618D02*
X88592498Y-105936367D01*
X88592498Y-105936367D02*
X88592498Y-106044117D01*
X88592498Y-106044117D02*
X88619436Y-106124929D01*
X88619436Y-106124929D02*
X88700248Y-106259616D01*
X88700248Y-106259616D02*
X88781060Y-106340428D01*
X88781060Y-106340428D02*
X88915747Y-106421241D01*
X88915747Y-106421241D02*
X88996560Y-106448178D01*
X88996560Y-106448178D02*
X89104309Y-106448178D01*
X89104309Y-106448178D02*
X89212059Y-106394303D01*
X89212059Y-106394303D02*
X89265934Y-106340428D01*
X89265934Y-106340428D02*
X89319808Y-106232679D01*
X89319808Y-106232679D02*
X89319808Y-106178804D01*
X89319808Y-106178804D02*
X89131247Y-105990242D01*
X89131247Y-105990242D02*
X89023497Y-106097992D01*
X89616120Y-105990242D02*
X89050434Y-105424557D01*
X89050434Y-105424557D02*
X89265934Y-105209057D01*
X89265934Y-105209057D02*
X89346746Y-105182120D01*
X89346746Y-105182120D02*
X89400621Y-105182120D01*
X89400621Y-105182120D02*
X89481433Y-105209057D01*
X89481433Y-105209057D02*
X89562245Y-105289870D01*
X89562245Y-105289870D02*
X89589182Y-105370682D01*
X89589182Y-105370682D02*
X89589182Y-105424557D01*
X89589182Y-105424557D02*
X89562245Y-105505369D01*
X89562245Y-105505369D02*
X89346746Y-105720868D01*
X89643057Y-104939683D02*
X89643057Y-104885809D01*
X89643057Y-104885809D02*
X89669995Y-104804996D01*
X89669995Y-104804996D02*
X89804682Y-104670309D01*
X89804682Y-104670309D02*
X89885494Y-104643372D01*
X89885494Y-104643372D02*
X89939369Y-104643372D01*
X89939369Y-104643372D02*
X90020181Y-104670309D01*
X90020181Y-104670309D02*
X90074056Y-104724184D01*
X90074056Y-104724184D02*
X90127930Y-104831934D01*
X90127930Y-104831934D02*
X90127930Y-105478431D01*
X90127930Y-105478431D02*
X90478117Y-105128245D01*
X91016865Y-104589497D02*
X90693616Y-104912746D01*
X90855240Y-104751121D02*
X90289555Y-104185436D01*
X90289555Y-104185436D02*
X90316492Y-104320123D01*
X90316492Y-104320123D02*
X90316492Y-104427873D01*
X90316492Y-104427873D02*
X90289555Y-104508685D01*
X80614761Y-122954200D02*
X80729047Y-122992295D01*
X80729047Y-122992295D02*
X80919523Y-122992295D01*
X80919523Y-122992295D02*
X80995714Y-122954200D01*
X80995714Y-122954200D02*
X81033809Y-122916104D01*
X81033809Y-122916104D02*
X81071904Y-122839914D01*
X81071904Y-122839914D02*
X81071904Y-122763723D01*
X81071904Y-122763723D02*
X81033809Y-122687533D01*
X81033809Y-122687533D02*
X80995714Y-122649438D01*
X80995714Y-122649438D02*
X80919523Y-122611342D01*
X80919523Y-122611342D02*
X80767142Y-122573247D01*
X80767142Y-122573247D02*
X80690952Y-122535152D01*
X80690952Y-122535152D02*
X80652857Y-122497057D01*
X80652857Y-122497057D02*
X80614761Y-122420866D01*
X80614761Y-122420866D02*
X80614761Y-122344676D01*
X80614761Y-122344676D02*
X80652857Y-122268485D01*
X80652857Y-122268485D02*
X80690952Y-122230390D01*
X80690952Y-122230390D02*
X80767142Y-122192295D01*
X80767142Y-122192295D02*
X80957619Y-122192295D01*
X80957619Y-122192295D02*
X81071904Y-122230390D01*
X81338571Y-122192295D02*
X81529047Y-122992295D01*
X81529047Y-122992295D02*
X81681428Y-122420866D01*
X81681428Y-122420866D02*
X81833809Y-122992295D01*
X81833809Y-122992295D02*
X82024286Y-122192295D01*
X82329048Y-122992295D02*
X82329048Y-122192295D01*
X82329048Y-122192295D02*
X82519524Y-122192295D01*
X82519524Y-122192295D02*
X82633810Y-122230390D01*
X82633810Y-122230390D02*
X82710000Y-122306580D01*
X82710000Y-122306580D02*
X82748095Y-122382771D01*
X82748095Y-122382771D02*
X82786191Y-122535152D01*
X82786191Y-122535152D02*
X82786191Y-122649438D01*
X82786191Y-122649438D02*
X82748095Y-122801819D01*
X82748095Y-122801819D02*
X82710000Y-122878009D01*
X82710000Y-122878009D02*
X82633810Y-122954200D01*
X82633810Y-122954200D02*
X82519524Y-122992295D01*
X82519524Y-122992295D02*
X82329048Y-122992295D01*
X83129048Y-122992295D02*
X83129048Y-122192295D01*
X83662381Y-122192295D02*
X83814762Y-122192295D01*
X83814762Y-122192295D02*
X83890952Y-122230390D01*
X83890952Y-122230390D02*
X83967143Y-122306580D01*
X83967143Y-122306580D02*
X84005238Y-122458961D01*
X84005238Y-122458961D02*
X84005238Y-122725628D01*
X84005238Y-122725628D02*
X83967143Y-122878009D01*
X83967143Y-122878009D02*
X83890952Y-122954200D01*
X83890952Y-122954200D02*
X83814762Y-122992295D01*
X83814762Y-122992295D02*
X83662381Y-122992295D01*
X83662381Y-122992295D02*
X83586190Y-122954200D01*
X83586190Y-122954200D02*
X83510000Y-122878009D01*
X83510000Y-122878009D02*
X83471904Y-122725628D01*
X83471904Y-122725628D02*
X83471904Y-122458961D01*
X83471904Y-122458961D02*
X83510000Y-122306580D01*
X83510000Y-122306580D02*
X83586190Y-122230390D01*
X83586190Y-122230390D02*
X83662381Y-122192295D01*
X63223372Y-82581494D02*
X63142560Y-82608431D01*
X63142560Y-82608431D02*
X63061748Y-82689243D01*
X63061748Y-82689243D02*
X63007873Y-82796993D01*
X63007873Y-82796993D02*
X63007873Y-82904742D01*
X63007873Y-82904742D02*
X63034810Y-82985555D01*
X63034810Y-82985555D02*
X63115623Y-83120242D01*
X63115623Y-83120242D02*
X63196435Y-83201054D01*
X63196435Y-83201054D02*
X63331122Y-83281866D01*
X63331122Y-83281866D02*
X63411934Y-83308803D01*
X63411934Y-83308803D02*
X63519684Y-83308803D01*
X63519684Y-83308803D02*
X63627433Y-83254929D01*
X63627433Y-83254929D02*
X63681308Y-83201054D01*
X63681308Y-83201054D02*
X63735183Y-83093304D01*
X63735183Y-83093304D02*
X63735183Y-83039429D01*
X63735183Y-83039429D02*
X63546621Y-82850868D01*
X63546621Y-82850868D02*
X63438871Y-82958617D01*
X64031494Y-82850868D02*
X63465809Y-82285182D01*
X63465809Y-82285182D02*
X63681308Y-82069683D01*
X63681308Y-82069683D02*
X63762120Y-82042746D01*
X63762120Y-82042746D02*
X63815995Y-82042746D01*
X63815995Y-82042746D02*
X63896807Y-82069683D01*
X63896807Y-82069683D02*
X63977619Y-82150495D01*
X63977619Y-82150495D02*
X64004557Y-82231307D01*
X64004557Y-82231307D02*
X64004557Y-82285182D01*
X64004557Y-82285182D02*
X63977619Y-82365994D01*
X63977619Y-82365994D02*
X63762120Y-82581494D01*
X63977619Y-81773372D02*
X64327806Y-81423185D01*
X64327806Y-81423185D02*
X64354743Y-81827246D01*
X64354743Y-81827246D02*
X64435555Y-81746434D01*
X64435555Y-81746434D02*
X64516367Y-81719497D01*
X64516367Y-81719497D02*
X64570242Y-81719497D01*
X64570242Y-81719497D02*
X64651054Y-81746434D01*
X64651054Y-81746434D02*
X64785741Y-81881121D01*
X64785741Y-81881121D02*
X64812679Y-81961933D01*
X64812679Y-81961933D02*
X64812679Y-82015808D01*
X64812679Y-82015808D02*
X64785741Y-82096620D01*
X64785741Y-82096620D02*
X64624117Y-82258245D01*
X64624117Y-82258245D02*
X64543305Y-82285182D01*
X64543305Y-82285182D02*
X64489430Y-82285182D01*
X88865064Y-85964049D02*
X89134438Y-85694675D01*
X88972813Y-86179549D02*
X88595690Y-85425301D01*
X88595690Y-85425301D02*
X89349937Y-85802425D01*
X89538499Y-85613863D02*
X88972813Y-85048178D01*
X88972813Y-85048178D02*
X89107500Y-84913491D01*
X89107500Y-84913491D02*
X89215250Y-84859616D01*
X89215250Y-84859616D02*
X89322999Y-84859616D01*
X89322999Y-84859616D02*
X89403812Y-84886553D01*
X89403812Y-84886553D02*
X89538499Y-84967366D01*
X89538499Y-84967366D02*
X89619311Y-85048178D01*
X89619311Y-85048178D02*
X89700123Y-85182865D01*
X89700123Y-85182865D02*
X89727060Y-85263677D01*
X89727060Y-85263677D02*
X89727060Y-85371427D01*
X89727060Y-85371427D02*
X89673186Y-85479176D01*
X89673186Y-85479176D02*
X89538499Y-85613863D01*
X90373558Y-84671054D02*
X90373558Y-84724929D01*
X90373558Y-84724929D02*
X90319683Y-84832679D01*
X90319683Y-84832679D02*
X90265808Y-84886553D01*
X90265808Y-84886553D02*
X90158059Y-84940428D01*
X90158059Y-84940428D02*
X90050309Y-84940428D01*
X90050309Y-84940428D02*
X89969497Y-84913491D01*
X89969497Y-84913491D02*
X89834810Y-84832679D01*
X89834810Y-84832679D02*
X89753998Y-84751866D01*
X89753998Y-84751866D02*
X89673186Y-84617179D01*
X89673186Y-84617179D02*
X89646248Y-84536367D01*
X89646248Y-84536367D02*
X89646248Y-84428618D01*
X89646248Y-84428618D02*
X89700123Y-84320868D01*
X89700123Y-84320868D02*
X89753998Y-84266993D01*
X89753998Y-84266993D02*
X89861747Y-84213118D01*
X89861747Y-84213118D02*
X89915622Y-84213118D01*
X90589057Y-84671054D02*
X91020056Y-84240056D01*
X90454370Y-83566621D02*
X91208618Y-83943744D01*
X91208618Y-83943744D02*
X90831494Y-83189497D01*
X91908990Y-83243372D02*
X91451054Y-83162560D01*
X91585741Y-83566621D02*
X91020056Y-83000935D01*
X91020056Y-83000935D02*
X91235555Y-82785436D01*
X91235555Y-82785436D02*
X91316367Y-82758499D01*
X91316367Y-82758499D02*
X91370242Y-82758499D01*
X91370242Y-82758499D02*
X91451054Y-82785436D01*
X91451054Y-82785436D02*
X91531866Y-82866248D01*
X91531866Y-82866248D02*
X91558804Y-82947061D01*
X91558804Y-82947061D02*
X91558804Y-83000935D01*
X91558804Y-83000935D02*
X91531866Y-83081748D01*
X91531866Y-83081748D02*
X91316367Y-83297247D01*
X91855115Y-82704624D02*
X92043677Y-82516062D01*
X92420800Y-82731561D02*
X92151426Y-83000935D01*
X92151426Y-83000935D02*
X91585741Y-82435250D01*
X91585741Y-82435250D02*
X91855115Y-82165876D01*
X92555488Y-82004251D02*
X92366926Y-82192813D01*
X92663237Y-82489125D02*
X92097552Y-81923439D01*
X92097552Y-81923439D02*
X92366926Y-81654065D01*
X89548651Y-98373710D02*
X89090716Y-98292898D01*
X89225403Y-98696959D02*
X88659717Y-98131274D01*
X88659717Y-98131274D02*
X88875216Y-97915775D01*
X88875216Y-97915775D02*
X88956029Y-97888837D01*
X88956029Y-97888837D02*
X89009903Y-97888837D01*
X89009903Y-97888837D02*
X89090716Y-97915775D01*
X89090716Y-97915775D02*
X89171528Y-97996587D01*
X89171528Y-97996587D02*
X89198465Y-98077399D01*
X89198465Y-98077399D02*
X89198465Y-98131274D01*
X89198465Y-98131274D02*
X89171528Y-98212086D01*
X89171528Y-98212086D02*
X88956029Y-98427585D01*
X89225403Y-97565588D02*
X89683338Y-98023524D01*
X89683338Y-98023524D02*
X89764151Y-98050462D01*
X89764151Y-98050462D02*
X89818025Y-98050462D01*
X89818025Y-98050462D02*
X89898838Y-98023524D01*
X89898838Y-98023524D02*
X90006587Y-97915775D01*
X90006587Y-97915775D02*
X90033525Y-97834962D01*
X90033525Y-97834962D02*
X90033525Y-97781088D01*
X90033525Y-97781088D02*
X90006587Y-97700275D01*
X90006587Y-97700275D02*
X89548651Y-97242340D01*
X90383711Y-97538651D02*
X89818025Y-96972966D01*
X89818025Y-96972966D02*
X90706959Y-97215402D01*
X90706959Y-97215402D02*
X90141274Y-96649717D01*
X63223372Y-100361494D02*
X63142560Y-100388431D01*
X63142560Y-100388431D02*
X63061748Y-100469243D01*
X63061748Y-100469243D02*
X63007873Y-100576993D01*
X63007873Y-100576993D02*
X63007873Y-100684742D01*
X63007873Y-100684742D02*
X63034810Y-100765555D01*
X63034810Y-100765555D02*
X63115623Y-100900242D01*
X63115623Y-100900242D02*
X63196435Y-100981054D01*
X63196435Y-100981054D02*
X63331122Y-101061866D01*
X63331122Y-101061866D02*
X63411934Y-101088803D01*
X63411934Y-101088803D02*
X63519684Y-101088803D01*
X63519684Y-101088803D02*
X63627433Y-101034929D01*
X63627433Y-101034929D02*
X63681308Y-100981054D01*
X63681308Y-100981054D02*
X63735183Y-100873304D01*
X63735183Y-100873304D02*
X63735183Y-100819429D01*
X63735183Y-100819429D02*
X63546621Y-100630868D01*
X63546621Y-100630868D02*
X63438871Y-100738617D01*
X64031494Y-100630868D02*
X63465809Y-100065182D01*
X63465809Y-100065182D02*
X63681308Y-99849683D01*
X63681308Y-99849683D02*
X63762120Y-99822746D01*
X63762120Y-99822746D02*
X63815995Y-99822746D01*
X63815995Y-99822746D02*
X63896807Y-99849683D01*
X63896807Y-99849683D02*
X63977619Y-99930495D01*
X63977619Y-99930495D02*
X64004557Y-100011307D01*
X64004557Y-100011307D02*
X64004557Y-100065182D01*
X64004557Y-100065182D02*
X63977619Y-100145994D01*
X63977619Y-100145994D02*
X63762120Y-100361494D01*
X64624117Y-100038245D02*
X64731867Y-99930495D01*
X64731867Y-99930495D02*
X64758804Y-99849683D01*
X64758804Y-99849683D02*
X64758804Y-99795808D01*
X64758804Y-99795808D02*
X64731867Y-99661121D01*
X64731867Y-99661121D02*
X64651054Y-99526434D01*
X64651054Y-99526434D02*
X64435555Y-99310935D01*
X64435555Y-99310935D02*
X64354743Y-99283998D01*
X64354743Y-99283998D02*
X64300868Y-99283998D01*
X64300868Y-99283998D02*
X64220056Y-99310935D01*
X64220056Y-99310935D02*
X64112306Y-99418685D01*
X64112306Y-99418685D02*
X64085369Y-99499497D01*
X64085369Y-99499497D02*
X64085369Y-99553372D01*
X64085369Y-99553372D02*
X64112306Y-99634184D01*
X64112306Y-99634184D02*
X64246993Y-99768871D01*
X64246993Y-99768871D02*
X64327806Y-99795808D01*
X64327806Y-99795808D02*
X64381680Y-99795808D01*
X64381680Y-99795808D02*
X64462493Y-99768871D01*
X64462493Y-99768871D02*
X64570242Y-99661121D01*
X64570242Y-99661121D02*
X64597180Y-99580309D01*
X64597180Y-99580309D02*
X64597180Y-99526434D01*
X64597180Y-99526434D02*
X64570242Y-99445622D01*
X63323372Y-95251494D02*
X63242560Y-95278431D01*
X63242560Y-95278431D02*
X63161748Y-95359243D01*
X63161748Y-95359243D02*
X63107873Y-95466993D01*
X63107873Y-95466993D02*
X63107873Y-95574742D01*
X63107873Y-95574742D02*
X63134810Y-95655555D01*
X63134810Y-95655555D02*
X63215623Y-95790242D01*
X63215623Y-95790242D02*
X63296435Y-95871054D01*
X63296435Y-95871054D02*
X63431122Y-95951866D01*
X63431122Y-95951866D02*
X63511934Y-95978803D01*
X63511934Y-95978803D02*
X63619684Y-95978803D01*
X63619684Y-95978803D02*
X63727433Y-95924929D01*
X63727433Y-95924929D02*
X63781308Y-95871054D01*
X63781308Y-95871054D02*
X63835183Y-95763304D01*
X63835183Y-95763304D02*
X63835183Y-95709429D01*
X63835183Y-95709429D02*
X63646621Y-95520868D01*
X63646621Y-95520868D02*
X63538871Y-95628617D01*
X64131494Y-95520868D02*
X63565809Y-94955182D01*
X63565809Y-94955182D02*
X63781308Y-94739683D01*
X63781308Y-94739683D02*
X63862120Y-94712746D01*
X63862120Y-94712746D02*
X63915995Y-94712746D01*
X63915995Y-94712746D02*
X63996807Y-94739683D01*
X63996807Y-94739683D02*
X64077619Y-94820495D01*
X64077619Y-94820495D02*
X64104557Y-94901307D01*
X64104557Y-94901307D02*
X64104557Y-94955182D01*
X64104557Y-94955182D02*
X64077619Y-95035994D01*
X64077619Y-95035994D02*
X63862120Y-95251494D01*
X64077619Y-94443372D02*
X64454743Y-94066248D01*
X64454743Y-94066248D02*
X64777992Y-94874370D01*
X62699998Y-105710868D02*
X62619185Y-105737805D01*
X62619185Y-105737805D02*
X62538373Y-105818618D01*
X62538373Y-105818618D02*
X62484498Y-105926367D01*
X62484498Y-105926367D02*
X62484498Y-106034117D01*
X62484498Y-106034117D02*
X62511436Y-106114929D01*
X62511436Y-106114929D02*
X62592248Y-106249616D01*
X62592248Y-106249616D02*
X62673060Y-106330428D01*
X62673060Y-106330428D02*
X62807747Y-106411241D01*
X62807747Y-106411241D02*
X62888560Y-106438178D01*
X62888560Y-106438178D02*
X62996309Y-106438178D01*
X62996309Y-106438178D02*
X63104059Y-106384303D01*
X63104059Y-106384303D02*
X63157934Y-106330428D01*
X63157934Y-106330428D02*
X63211808Y-106222679D01*
X63211808Y-106222679D02*
X63211808Y-106168804D01*
X63211808Y-106168804D02*
X63023247Y-105980242D01*
X63023247Y-105980242D02*
X62915497Y-106087992D01*
X63508120Y-105980242D02*
X62942434Y-105414557D01*
X62942434Y-105414557D02*
X63157934Y-105199057D01*
X63157934Y-105199057D02*
X63238746Y-105172120D01*
X63238746Y-105172120D02*
X63292621Y-105172120D01*
X63292621Y-105172120D02*
X63373433Y-105199057D01*
X63373433Y-105199057D02*
X63454245Y-105279870D01*
X63454245Y-105279870D02*
X63481182Y-105360682D01*
X63481182Y-105360682D02*
X63481182Y-105414557D01*
X63481182Y-105414557D02*
X63454245Y-105495369D01*
X63454245Y-105495369D02*
X63238746Y-105710868D01*
X64370117Y-105118245D02*
X64046868Y-105441494D01*
X64208492Y-105279870D02*
X63642807Y-104714184D01*
X63642807Y-104714184D02*
X63669744Y-104848871D01*
X63669744Y-104848871D02*
X63669744Y-104956621D01*
X63669744Y-104956621D02*
X63642807Y-105037433D01*
X64154618Y-104202373D02*
X64208492Y-104148499D01*
X64208492Y-104148499D02*
X64289305Y-104121561D01*
X64289305Y-104121561D02*
X64343179Y-104121561D01*
X64343179Y-104121561D02*
X64423992Y-104148499D01*
X64423992Y-104148499D02*
X64558679Y-104229311D01*
X64558679Y-104229311D02*
X64693366Y-104363998D01*
X64693366Y-104363998D02*
X64774178Y-104498685D01*
X64774178Y-104498685D02*
X64801115Y-104579497D01*
X64801115Y-104579497D02*
X64801115Y-104633372D01*
X64801115Y-104633372D02*
X64774178Y-104714184D01*
X64774178Y-104714184D02*
X64720303Y-104768059D01*
X64720303Y-104768059D02*
X64639491Y-104794996D01*
X64639491Y-104794996D02*
X64585616Y-104794996D01*
X64585616Y-104794996D02*
X64504804Y-104768059D01*
X64504804Y-104768059D02*
X64370117Y-104687247D01*
X64370117Y-104687247D02*
X64235430Y-104552560D01*
X64235430Y-104552560D02*
X64154618Y-104417873D01*
X64154618Y-104417873D02*
X64127680Y-104337060D01*
X64127680Y-104337060D02*
X64127680Y-104283186D01*
X64127680Y-104283186D02*
X64154618Y-104202373D01*
X63196435Y-115628431D02*
X63115623Y-115655368D01*
X63115623Y-115655368D02*
X63034811Y-115736180D01*
X63034811Y-115736180D02*
X62980936Y-115843930D01*
X62980936Y-115843930D02*
X62980936Y-115951680D01*
X62980936Y-115951680D02*
X63007873Y-116032492D01*
X63007873Y-116032492D02*
X63088685Y-116167179D01*
X63088685Y-116167179D02*
X63169498Y-116247991D01*
X63169498Y-116247991D02*
X63304185Y-116328803D01*
X63304185Y-116328803D02*
X63384997Y-116355741D01*
X63384997Y-116355741D02*
X63492746Y-116355741D01*
X63492746Y-116355741D02*
X63600496Y-116301866D01*
X63600496Y-116301866D02*
X63654371Y-116247991D01*
X63654371Y-116247991D02*
X63708246Y-116140241D01*
X63708246Y-116140241D02*
X63708246Y-116086367D01*
X63708246Y-116086367D02*
X63519684Y-115897805D01*
X63519684Y-115897805D02*
X63411934Y-116005554D01*
X64004557Y-115897805D02*
X63438872Y-115332119D01*
X63438872Y-115332119D02*
X64327806Y-115574556D01*
X64327806Y-115574556D02*
X63762120Y-115008871D01*
X64597180Y-115305182D02*
X64031494Y-114739497D01*
X64031494Y-114739497D02*
X64166181Y-114604810D01*
X64166181Y-114604810D02*
X64273931Y-114550935D01*
X64273931Y-114550935D02*
X64381680Y-114550935D01*
X64381680Y-114550935D02*
X64462493Y-114577872D01*
X64462493Y-114577872D02*
X64597180Y-114658685D01*
X64597180Y-114658685D02*
X64677992Y-114739497D01*
X64677992Y-114739497D02*
X64758804Y-114874184D01*
X64758804Y-114874184D02*
X64785741Y-114954996D01*
X64785741Y-114954996D02*
X64785741Y-115062746D01*
X64785741Y-115062746D02*
X64731867Y-115170495D01*
X64731867Y-115170495D02*
X64597180Y-115305182D01*
X63196435Y-77528431D02*
X63115623Y-77555368D01*
X63115623Y-77555368D02*
X63034811Y-77636180D01*
X63034811Y-77636180D02*
X62980936Y-77743930D01*
X62980936Y-77743930D02*
X62980936Y-77851680D01*
X62980936Y-77851680D02*
X63007873Y-77932492D01*
X63007873Y-77932492D02*
X63088685Y-78067179D01*
X63088685Y-78067179D02*
X63169498Y-78147991D01*
X63169498Y-78147991D02*
X63304185Y-78228803D01*
X63304185Y-78228803D02*
X63384997Y-78255741D01*
X63384997Y-78255741D02*
X63492746Y-78255741D01*
X63492746Y-78255741D02*
X63600496Y-78201866D01*
X63600496Y-78201866D02*
X63654371Y-78147991D01*
X63654371Y-78147991D02*
X63708246Y-78040241D01*
X63708246Y-78040241D02*
X63708246Y-77986367D01*
X63708246Y-77986367D02*
X63519684Y-77797805D01*
X63519684Y-77797805D02*
X63411934Y-77905554D01*
X64004557Y-77797805D02*
X63438872Y-77232119D01*
X63438872Y-77232119D02*
X64327806Y-77474556D01*
X64327806Y-77474556D02*
X63762120Y-76908871D01*
X64597180Y-77205182D02*
X64031494Y-76639497D01*
X64031494Y-76639497D02*
X64166181Y-76504810D01*
X64166181Y-76504810D02*
X64273931Y-76450935D01*
X64273931Y-76450935D02*
X64381680Y-76450935D01*
X64381680Y-76450935D02*
X64462493Y-76477872D01*
X64462493Y-76477872D02*
X64597180Y-76558685D01*
X64597180Y-76558685D02*
X64677992Y-76639497D01*
X64677992Y-76639497D02*
X64758804Y-76774184D01*
X64758804Y-76774184D02*
X64785741Y-76854996D01*
X64785741Y-76854996D02*
X64785741Y-76962746D01*
X64785741Y-76962746D02*
X64731867Y-77070495D01*
X64731867Y-77070495D02*
X64597180Y-77205182D01*
X63123372Y-80041494D02*
X63042560Y-80068431D01*
X63042560Y-80068431D02*
X62961748Y-80149243D01*
X62961748Y-80149243D02*
X62907873Y-80256993D01*
X62907873Y-80256993D02*
X62907873Y-80364742D01*
X62907873Y-80364742D02*
X62934810Y-80445555D01*
X62934810Y-80445555D02*
X63015623Y-80580242D01*
X63015623Y-80580242D02*
X63096435Y-80661054D01*
X63096435Y-80661054D02*
X63231122Y-80741866D01*
X63231122Y-80741866D02*
X63311934Y-80768803D01*
X63311934Y-80768803D02*
X63419684Y-80768803D01*
X63419684Y-80768803D02*
X63527433Y-80714929D01*
X63527433Y-80714929D02*
X63581308Y-80661054D01*
X63581308Y-80661054D02*
X63635183Y-80553304D01*
X63635183Y-80553304D02*
X63635183Y-80499429D01*
X63635183Y-80499429D02*
X63446621Y-80310868D01*
X63446621Y-80310868D02*
X63338871Y-80418617D01*
X63931494Y-80310868D02*
X63365809Y-79745182D01*
X63365809Y-79745182D02*
X63581308Y-79529683D01*
X63581308Y-79529683D02*
X63662120Y-79502746D01*
X63662120Y-79502746D02*
X63715995Y-79502746D01*
X63715995Y-79502746D02*
X63796807Y-79529683D01*
X63796807Y-79529683D02*
X63877619Y-79610495D01*
X63877619Y-79610495D02*
X63904557Y-79691307D01*
X63904557Y-79691307D02*
X63904557Y-79745182D01*
X63904557Y-79745182D02*
X63877619Y-79825994D01*
X63877619Y-79825994D02*
X63662120Y-80041494D01*
X63958432Y-79260309D02*
X63958432Y-79206434D01*
X63958432Y-79206434D02*
X63985369Y-79125622D01*
X63985369Y-79125622D02*
X64120056Y-78990935D01*
X64120056Y-78990935D02*
X64200868Y-78963998D01*
X64200868Y-78963998D02*
X64254743Y-78963998D01*
X64254743Y-78963998D02*
X64335555Y-78990935D01*
X64335555Y-78990935D02*
X64389430Y-79044810D01*
X64389430Y-79044810D02*
X64443305Y-79152559D01*
X64443305Y-79152559D02*
X64443305Y-79799057D01*
X64443305Y-79799057D02*
X64793491Y-79448871D01*
X88807998Y-100630868D02*
X88727185Y-100657805D01*
X88727185Y-100657805D02*
X88646373Y-100738618D01*
X88646373Y-100738618D02*
X88592498Y-100846367D01*
X88592498Y-100846367D02*
X88592498Y-100954117D01*
X88592498Y-100954117D02*
X88619436Y-101034929D01*
X88619436Y-101034929D02*
X88700248Y-101169616D01*
X88700248Y-101169616D02*
X88781060Y-101250428D01*
X88781060Y-101250428D02*
X88915747Y-101331241D01*
X88915747Y-101331241D02*
X88996560Y-101358178D01*
X88996560Y-101358178D02*
X89104309Y-101358178D01*
X89104309Y-101358178D02*
X89212059Y-101304303D01*
X89212059Y-101304303D02*
X89265934Y-101250428D01*
X89265934Y-101250428D02*
X89319808Y-101142679D01*
X89319808Y-101142679D02*
X89319808Y-101088804D01*
X89319808Y-101088804D02*
X89131247Y-100900242D01*
X89131247Y-100900242D02*
X89023497Y-101007992D01*
X89616120Y-100900242D02*
X89050434Y-100334557D01*
X89050434Y-100334557D02*
X89265934Y-100119057D01*
X89265934Y-100119057D02*
X89346746Y-100092120D01*
X89346746Y-100092120D02*
X89400621Y-100092120D01*
X89400621Y-100092120D02*
X89481433Y-100119057D01*
X89481433Y-100119057D02*
X89562245Y-100199870D01*
X89562245Y-100199870D02*
X89589182Y-100280682D01*
X89589182Y-100280682D02*
X89589182Y-100334557D01*
X89589182Y-100334557D02*
X89562245Y-100415369D01*
X89562245Y-100415369D02*
X89346746Y-100630868D01*
X89643057Y-99849683D02*
X89643057Y-99795809D01*
X89643057Y-99795809D02*
X89669995Y-99714996D01*
X89669995Y-99714996D02*
X89804682Y-99580309D01*
X89804682Y-99580309D02*
X89885494Y-99553372D01*
X89885494Y-99553372D02*
X89939369Y-99553372D01*
X89939369Y-99553372D02*
X90020181Y-99580309D01*
X90020181Y-99580309D02*
X90074056Y-99634184D01*
X90074056Y-99634184D02*
X90127930Y-99741934D01*
X90127930Y-99741934D02*
X90127930Y-100388431D01*
X90127930Y-100388431D02*
X90478117Y-100038245D01*
X90181805Y-99310935D02*
X90181805Y-99257060D01*
X90181805Y-99257060D02*
X90208743Y-99176248D01*
X90208743Y-99176248D02*
X90343430Y-99041561D01*
X90343430Y-99041561D02*
X90424242Y-99014624D01*
X90424242Y-99014624D02*
X90478117Y-99014624D01*
X90478117Y-99014624D02*
X90558929Y-99041561D01*
X90558929Y-99041561D02*
X90612804Y-99095436D01*
X90612804Y-99095436D02*
X90666679Y-99203186D01*
X90666679Y-99203186D02*
X90666679Y-99849683D01*
X90666679Y-99849683D02*
X91016865Y-99499497D01*
X69200475Y-122954200D02*
X69314761Y-122992295D01*
X69314761Y-122992295D02*
X69505237Y-122992295D01*
X69505237Y-122992295D02*
X69581428Y-122954200D01*
X69581428Y-122954200D02*
X69619523Y-122916104D01*
X69619523Y-122916104D02*
X69657618Y-122839914D01*
X69657618Y-122839914D02*
X69657618Y-122763723D01*
X69657618Y-122763723D02*
X69619523Y-122687533D01*
X69619523Y-122687533D02*
X69581428Y-122649438D01*
X69581428Y-122649438D02*
X69505237Y-122611342D01*
X69505237Y-122611342D02*
X69352856Y-122573247D01*
X69352856Y-122573247D02*
X69276666Y-122535152D01*
X69276666Y-122535152D02*
X69238571Y-122497057D01*
X69238571Y-122497057D02*
X69200475Y-122420866D01*
X69200475Y-122420866D02*
X69200475Y-122344676D01*
X69200475Y-122344676D02*
X69238571Y-122268485D01*
X69238571Y-122268485D02*
X69276666Y-122230390D01*
X69276666Y-122230390D02*
X69352856Y-122192295D01*
X69352856Y-122192295D02*
X69543333Y-122192295D01*
X69543333Y-122192295D02*
X69657618Y-122230390D01*
X69924285Y-122192295D02*
X70114761Y-122992295D01*
X70114761Y-122992295D02*
X70267142Y-122420866D01*
X70267142Y-122420866D02*
X70419523Y-122992295D01*
X70419523Y-122992295D02*
X70610000Y-122192295D01*
X71371905Y-122916104D02*
X71333809Y-122954200D01*
X71333809Y-122954200D02*
X71219524Y-122992295D01*
X71219524Y-122992295D02*
X71143333Y-122992295D01*
X71143333Y-122992295D02*
X71029047Y-122954200D01*
X71029047Y-122954200D02*
X70952857Y-122878009D01*
X70952857Y-122878009D02*
X70914762Y-122801819D01*
X70914762Y-122801819D02*
X70876666Y-122649438D01*
X70876666Y-122649438D02*
X70876666Y-122535152D01*
X70876666Y-122535152D02*
X70914762Y-122382771D01*
X70914762Y-122382771D02*
X70952857Y-122306580D01*
X70952857Y-122306580D02*
X71029047Y-122230390D01*
X71029047Y-122230390D02*
X71143333Y-122192295D01*
X71143333Y-122192295D02*
X71219524Y-122192295D01*
X71219524Y-122192295D02*
X71333809Y-122230390D01*
X71333809Y-122230390D02*
X71371905Y-122268485D01*
X72095714Y-122992295D02*
X71714762Y-122992295D01*
X71714762Y-122992295D02*
X71714762Y-122192295D01*
X72362381Y-122992295D02*
X72362381Y-122192295D01*
X72819524Y-122992295D02*
X72476666Y-122535152D01*
X72819524Y-122192295D02*
X72362381Y-122649438D01*
X62553998Y-110790868D02*
X62473185Y-110817805D01*
X62473185Y-110817805D02*
X62392373Y-110898618D01*
X62392373Y-110898618D02*
X62338498Y-111006367D01*
X62338498Y-111006367D02*
X62338498Y-111114117D01*
X62338498Y-111114117D02*
X62365436Y-111194929D01*
X62365436Y-111194929D02*
X62446248Y-111329616D01*
X62446248Y-111329616D02*
X62527060Y-111410428D01*
X62527060Y-111410428D02*
X62661747Y-111491241D01*
X62661747Y-111491241D02*
X62742560Y-111518178D01*
X62742560Y-111518178D02*
X62850309Y-111518178D01*
X62850309Y-111518178D02*
X62958059Y-111464303D01*
X62958059Y-111464303D02*
X63011934Y-111410428D01*
X63011934Y-111410428D02*
X63065808Y-111302679D01*
X63065808Y-111302679D02*
X63065808Y-111248804D01*
X63065808Y-111248804D02*
X62877247Y-111060242D01*
X62877247Y-111060242D02*
X62769497Y-111167992D01*
X63362120Y-111060242D02*
X62796434Y-110494557D01*
X62796434Y-110494557D02*
X63011934Y-110279057D01*
X63011934Y-110279057D02*
X63092746Y-110252120D01*
X63092746Y-110252120D02*
X63146621Y-110252120D01*
X63146621Y-110252120D02*
X63227433Y-110279057D01*
X63227433Y-110279057D02*
X63308245Y-110359870D01*
X63308245Y-110359870D02*
X63335182Y-110440682D01*
X63335182Y-110440682D02*
X63335182Y-110494557D01*
X63335182Y-110494557D02*
X63308245Y-110575369D01*
X63308245Y-110575369D02*
X63092746Y-110790868D01*
X64224117Y-110198245D02*
X63900868Y-110521494D01*
X64062492Y-110359870D02*
X63496807Y-109794184D01*
X63496807Y-109794184D02*
X63523744Y-109928871D01*
X63523744Y-109928871D02*
X63523744Y-110036621D01*
X63523744Y-110036621D02*
X63496807Y-110117433D01*
X63927805Y-109470935D02*
X63927805Y-109417060D01*
X63927805Y-109417060D02*
X63954743Y-109336248D01*
X63954743Y-109336248D02*
X64089430Y-109201561D01*
X64089430Y-109201561D02*
X64170242Y-109174624D01*
X64170242Y-109174624D02*
X64224117Y-109174624D01*
X64224117Y-109174624D02*
X64304929Y-109201561D01*
X64304929Y-109201561D02*
X64358804Y-109255436D01*
X64358804Y-109255436D02*
X64412679Y-109363186D01*
X64412679Y-109363186D02*
X64412679Y-110009683D01*
X64412679Y-110009683D02*
X64762865Y-109659497D01*
X88807998Y-110790868D02*
X88727185Y-110817805D01*
X88727185Y-110817805D02*
X88646373Y-110898618D01*
X88646373Y-110898618D02*
X88592498Y-111006367D01*
X88592498Y-111006367D02*
X88592498Y-111114117D01*
X88592498Y-111114117D02*
X88619436Y-111194929D01*
X88619436Y-111194929D02*
X88700248Y-111329616D01*
X88700248Y-111329616D02*
X88781060Y-111410428D01*
X88781060Y-111410428D02*
X88915747Y-111491241D01*
X88915747Y-111491241D02*
X88996560Y-111518178D01*
X88996560Y-111518178D02*
X89104309Y-111518178D01*
X89104309Y-111518178D02*
X89212059Y-111464303D01*
X89212059Y-111464303D02*
X89265934Y-111410428D01*
X89265934Y-111410428D02*
X89319808Y-111302679D01*
X89319808Y-111302679D02*
X89319808Y-111248804D01*
X89319808Y-111248804D02*
X89131247Y-111060242D01*
X89131247Y-111060242D02*
X89023497Y-111167992D01*
X89616120Y-111060242D02*
X89050434Y-110494557D01*
X89050434Y-110494557D02*
X89265934Y-110279057D01*
X89265934Y-110279057D02*
X89346746Y-110252120D01*
X89346746Y-110252120D02*
X89400621Y-110252120D01*
X89400621Y-110252120D02*
X89481433Y-110279057D01*
X89481433Y-110279057D02*
X89562245Y-110359870D01*
X89562245Y-110359870D02*
X89589182Y-110440682D01*
X89589182Y-110440682D02*
X89589182Y-110494557D01*
X89589182Y-110494557D02*
X89562245Y-110575369D01*
X89562245Y-110575369D02*
X89346746Y-110790868D01*
X90478117Y-110198245D02*
X90154868Y-110521494D01*
X90316492Y-110359870D02*
X89750807Y-109794184D01*
X89750807Y-109794184D02*
X89777744Y-109928871D01*
X89777744Y-109928871D02*
X89777744Y-110036621D01*
X89777744Y-110036621D02*
X89750807Y-110117433D01*
X90747491Y-109928871D02*
X90855240Y-109821121D01*
X90855240Y-109821121D02*
X90882178Y-109740309D01*
X90882178Y-109740309D02*
X90882178Y-109686434D01*
X90882178Y-109686434D02*
X90855240Y-109551747D01*
X90855240Y-109551747D02*
X90774428Y-109417060D01*
X90774428Y-109417060D02*
X90558929Y-109201561D01*
X90558929Y-109201561D02*
X90478117Y-109174624D01*
X90478117Y-109174624D02*
X90424242Y-109174624D01*
X90424242Y-109174624D02*
X90343430Y-109201561D01*
X90343430Y-109201561D02*
X90235680Y-109309311D01*
X90235680Y-109309311D02*
X90208743Y-109390123D01*
X90208743Y-109390123D02*
X90208743Y-109443998D01*
X90208743Y-109443998D02*
X90235680Y-109524810D01*
X90235680Y-109524810D02*
X90370367Y-109659497D01*
X90370367Y-109659497D02*
X90451179Y-109686434D01*
X90451179Y-109686434D02*
X90505054Y-109686434D01*
X90505054Y-109686434D02*
X90585866Y-109659497D01*
X90585866Y-109659497D02*
X90693616Y-109551747D01*
X90693616Y-109551747D02*
X90720553Y-109470935D01*
X90720553Y-109470935D02*
X90720553Y-109417060D01*
X90720553Y-109417060D02*
X90693616Y-109336248D01*
X88632407Y-80388584D02*
X88982593Y-80038398D01*
X88982593Y-80038398D02*
X89009531Y-80442459D01*
X89009531Y-80442459D02*
X89090343Y-80361646D01*
X89090343Y-80361646D02*
X89171155Y-80334709D01*
X89171155Y-80334709D02*
X89225030Y-80334709D01*
X89225030Y-80334709D02*
X89305842Y-80361646D01*
X89305842Y-80361646D02*
X89440529Y-80496333D01*
X89440529Y-80496333D02*
X89467467Y-80577146D01*
X89467467Y-80577146D02*
X89467467Y-80631020D01*
X89467467Y-80631020D02*
X89440529Y-80711833D01*
X89440529Y-80711833D02*
X89278905Y-80873457D01*
X89278905Y-80873457D02*
X89198093Y-80900394D01*
X89198093Y-80900394D02*
X89144218Y-80900394D01*
X89144218Y-79876773D02*
X89898465Y-80253897D01*
X89898465Y-80253897D02*
X89521342Y-79499649D01*
X89656028Y-79364963D02*
X90006215Y-79014776D01*
X90006215Y-79014776D02*
X90033152Y-79418837D01*
X90033152Y-79418837D02*
X90113964Y-79338025D01*
X90113964Y-79338025D02*
X90194776Y-79311088D01*
X90194776Y-79311088D02*
X90248651Y-79311088D01*
X90248651Y-79311088D02*
X90329464Y-79338025D01*
X90329464Y-79338025D02*
X90464151Y-79472712D01*
X90464151Y-79472712D02*
X90491088Y-79553524D01*
X90491088Y-79553524D02*
X90491088Y-79607399D01*
X90491088Y-79607399D02*
X90464151Y-79688211D01*
X90464151Y-79688211D02*
X90302526Y-79849836D01*
X90302526Y-79849836D02*
X90221714Y-79876773D01*
X90221714Y-79876773D02*
X90167839Y-79876773D01*
X90733525Y-79526587D02*
X91164523Y-79095588D01*
X90949024Y-78610715D02*
X91137586Y-78422153D01*
X91514709Y-78637652D02*
X91245335Y-78907026D01*
X91245335Y-78907026D02*
X90679650Y-78341341D01*
X90679650Y-78341341D02*
X90949024Y-78071967D01*
X91757146Y-78395215D02*
X91191461Y-77829530D01*
X91191461Y-77829530D02*
X92080395Y-78071967D01*
X92080395Y-78071967D02*
X91514710Y-77506281D01*
X62699998Y-120950868D02*
X62619185Y-120977805D01*
X62619185Y-120977805D02*
X62538373Y-121058618D01*
X62538373Y-121058618D02*
X62484498Y-121166367D01*
X62484498Y-121166367D02*
X62484498Y-121274117D01*
X62484498Y-121274117D02*
X62511436Y-121354929D01*
X62511436Y-121354929D02*
X62592248Y-121489616D01*
X62592248Y-121489616D02*
X62673060Y-121570428D01*
X62673060Y-121570428D02*
X62807747Y-121651241D01*
X62807747Y-121651241D02*
X62888560Y-121678178D01*
X62888560Y-121678178D02*
X62996309Y-121678178D01*
X62996309Y-121678178D02*
X63104059Y-121624303D01*
X63104059Y-121624303D02*
X63157934Y-121570428D01*
X63157934Y-121570428D02*
X63211808Y-121462679D01*
X63211808Y-121462679D02*
X63211808Y-121408804D01*
X63211808Y-121408804D02*
X63023247Y-121220242D01*
X63023247Y-121220242D02*
X62915497Y-121327992D01*
X63508120Y-121220242D02*
X62942434Y-120654557D01*
X62942434Y-120654557D02*
X63157934Y-120439057D01*
X63157934Y-120439057D02*
X63238746Y-120412120D01*
X63238746Y-120412120D02*
X63292621Y-120412120D01*
X63292621Y-120412120D02*
X63373433Y-120439057D01*
X63373433Y-120439057D02*
X63454245Y-120519870D01*
X63454245Y-120519870D02*
X63481182Y-120600682D01*
X63481182Y-120600682D02*
X63481182Y-120654557D01*
X63481182Y-120654557D02*
X63454245Y-120735369D01*
X63454245Y-120735369D02*
X63238746Y-120950868D01*
X64370117Y-120358245D02*
X64046868Y-120681494D01*
X64208492Y-120519870D02*
X63642807Y-119954184D01*
X63642807Y-119954184D02*
X63669744Y-120088871D01*
X63669744Y-120088871D02*
X63669744Y-120196621D01*
X63669744Y-120196621D02*
X63642807Y-120277433D01*
X64316242Y-119280749D02*
X64046868Y-119550123D01*
X64046868Y-119550123D02*
X64289305Y-119846434D01*
X64289305Y-119846434D02*
X64289305Y-119792560D01*
X64289305Y-119792560D02*
X64316242Y-119711747D01*
X64316242Y-119711747D02*
X64450929Y-119577060D01*
X64450929Y-119577060D02*
X64531741Y-119550123D01*
X64531741Y-119550123D02*
X64585616Y-119550123D01*
X64585616Y-119550123D02*
X64666428Y-119577060D01*
X64666428Y-119577060D02*
X64801115Y-119711747D01*
X64801115Y-119711747D02*
X64828053Y-119792560D01*
X64828053Y-119792560D02*
X64828053Y-119846434D01*
X64828053Y-119846434D02*
X64801115Y-119927247D01*
X64801115Y-119927247D02*
X64666428Y-120061934D01*
X64666428Y-120061934D02*
X64585616Y-120088871D01*
X64585616Y-120088871D02*
X64531741Y-120088871D01*
X63196435Y-90228431D02*
X63115623Y-90255368D01*
X63115623Y-90255368D02*
X63034811Y-90336180D01*
X63034811Y-90336180D02*
X62980936Y-90443930D01*
X62980936Y-90443930D02*
X62980936Y-90551680D01*
X62980936Y-90551680D02*
X63007873Y-90632492D01*
X63007873Y-90632492D02*
X63088685Y-90767179D01*
X63088685Y-90767179D02*
X63169498Y-90847991D01*
X63169498Y-90847991D02*
X63304185Y-90928803D01*
X63304185Y-90928803D02*
X63384997Y-90955741D01*
X63384997Y-90955741D02*
X63492746Y-90955741D01*
X63492746Y-90955741D02*
X63600496Y-90901866D01*
X63600496Y-90901866D02*
X63654371Y-90847991D01*
X63654371Y-90847991D02*
X63708246Y-90740241D01*
X63708246Y-90740241D02*
X63708246Y-90686367D01*
X63708246Y-90686367D02*
X63519684Y-90497805D01*
X63519684Y-90497805D02*
X63411934Y-90605554D01*
X64004557Y-90497805D02*
X63438872Y-89932119D01*
X63438872Y-89932119D02*
X64327806Y-90174556D01*
X64327806Y-90174556D02*
X63762120Y-89608871D01*
X64597180Y-89905182D02*
X64031494Y-89339497D01*
X64031494Y-89339497D02*
X64166181Y-89204810D01*
X64166181Y-89204810D02*
X64273931Y-89150935D01*
X64273931Y-89150935D02*
X64381680Y-89150935D01*
X64381680Y-89150935D02*
X64462493Y-89177872D01*
X64462493Y-89177872D02*
X64597180Y-89258685D01*
X64597180Y-89258685D02*
X64677992Y-89339497D01*
X64677992Y-89339497D02*
X64758804Y-89474184D01*
X64758804Y-89474184D02*
X64785741Y-89554996D01*
X64785741Y-89554996D02*
X64785741Y-89662746D01*
X64785741Y-89662746D02*
X64731867Y-89770495D01*
X64731867Y-89770495D02*
X64597180Y-89905182D01*
X63223372Y-85121494D02*
X63142560Y-85148431D01*
X63142560Y-85148431D02*
X63061748Y-85229243D01*
X63061748Y-85229243D02*
X63007873Y-85336993D01*
X63007873Y-85336993D02*
X63007873Y-85444742D01*
X63007873Y-85444742D02*
X63034810Y-85525555D01*
X63034810Y-85525555D02*
X63115623Y-85660242D01*
X63115623Y-85660242D02*
X63196435Y-85741054D01*
X63196435Y-85741054D02*
X63331122Y-85821866D01*
X63331122Y-85821866D02*
X63411934Y-85848803D01*
X63411934Y-85848803D02*
X63519684Y-85848803D01*
X63519684Y-85848803D02*
X63627433Y-85794929D01*
X63627433Y-85794929D02*
X63681308Y-85741054D01*
X63681308Y-85741054D02*
X63735183Y-85633304D01*
X63735183Y-85633304D02*
X63735183Y-85579429D01*
X63735183Y-85579429D02*
X63546621Y-85390868D01*
X63546621Y-85390868D02*
X63438871Y-85498617D01*
X64031494Y-85390868D02*
X63465809Y-84825182D01*
X63465809Y-84825182D02*
X63681308Y-84609683D01*
X63681308Y-84609683D02*
X63762120Y-84582746D01*
X63762120Y-84582746D02*
X63815995Y-84582746D01*
X63815995Y-84582746D02*
X63896807Y-84609683D01*
X63896807Y-84609683D02*
X63977619Y-84690495D01*
X63977619Y-84690495D02*
X64004557Y-84771307D01*
X64004557Y-84771307D02*
X64004557Y-84825182D01*
X64004557Y-84825182D02*
X63977619Y-84905994D01*
X63977619Y-84905994D02*
X63762120Y-85121494D01*
X64462493Y-84205622D02*
X64839616Y-84582746D01*
X64112306Y-84124810D02*
X64381680Y-84663558D01*
X64381680Y-84663558D02*
X64731867Y-84313372D01*
X88600123Y-82920868D02*
X88950309Y-82570682D01*
X88950309Y-82570682D02*
X88977247Y-82974743D01*
X88977247Y-82974743D02*
X89058059Y-82893931D01*
X89058059Y-82893931D02*
X89138871Y-82866993D01*
X89138871Y-82866993D02*
X89192746Y-82866993D01*
X89192746Y-82866993D02*
X89273558Y-82893931D01*
X89273558Y-82893931D02*
X89408245Y-83028618D01*
X89408245Y-83028618D02*
X89435182Y-83109430D01*
X89435182Y-83109430D02*
X89435182Y-83163305D01*
X89435182Y-83163305D02*
X89408245Y-83244117D01*
X89408245Y-83244117D02*
X89246621Y-83405741D01*
X89246621Y-83405741D02*
X89165808Y-83432679D01*
X89165808Y-83432679D02*
X89111934Y-83432679D01*
X89111934Y-82409057D02*
X89866181Y-82786181D01*
X89866181Y-82786181D02*
X89489057Y-82031934D01*
X89623744Y-81897247D02*
X89973930Y-81547061D01*
X89973930Y-81547061D02*
X90000868Y-81951122D01*
X90000868Y-81951122D02*
X90081680Y-81870309D01*
X90081680Y-81870309D02*
X90162492Y-81843372D01*
X90162492Y-81843372D02*
X90216367Y-81843372D01*
X90216367Y-81843372D02*
X90297179Y-81870309D01*
X90297179Y-81870309D02*
X90431866Y-82004996D01*
X90431866Y-82004996D02*
X90458804Y-82085809D01*
X90458804Y-82085809D02*
X90458804Y-82139683D01*
X90458804Y-82139683D02*
X90431866Y-82220496D01*
X90431866Y-82220496D02*
X90270242Y-82382120D01*
X90270242Y-82382120D02*
X90189430Y-82409057D01*
X90189430Y-82409057D02*
X90135555Y-82409057D01*
X63223372Y-97821494D02*
X63142560Y-97848431D01*
X63142560Y-97848431D02*
X63061748Y-97929243D01*
X63061748Y-97929243D02*
X63007873Y-98036993D01*
X63007873Y-98036993D02*
X63007873Y-98144742D01*
X63007873Y-98144742D02*
X63034810Y-98225555D01*
X63034810Y-98225555D02*
X63115623Y-98360242D01*
X63115623Y-98360242D02*
X63196435Y-98441054D01*
X63196435Y-98441054D02*
X63331122Y-98521866D01*
X63331122Y-98521866D02*
X63411934Y-98548803D01*
X63411934Y-98548803D02*
X63519684Y-98548803D01*
X63519684Y-98548803D02*
X63627433Y-98494929D01*
X63627433Y-98494929D02*
X63681308Y-98441054D01*
X63681308Y-98441054D02*
X63735183Y-98333304D01*
X63735183Y-98333304D02*
X63735183Y-98279429D01*
X63735183Y-98279429D02*
X63546621Y-98090868D01*
X63546621Y-98090868D02*
X63438871Y-98198617D01*
X64031494Y-98090868D02*
X63465809Y-97525182D01*
X63465809Y-97525182D02*
X63681308Y-97309683D01*
X63681308Y-97309683D02*
X63762120Y-97282746D01*
X63762120Y-97282746D02*
X63815995Y-97282746D01*
X63815995Y-97282746D02*
X63896807Y-97309683D01*
X63896807Y-97309683D02*
X63977619Y-97390495D01*
X63977619Y-97390495D02*
X64004557Y-97471307D01*
X64004557Y-97471307D02*
X64004557Y-97525182D01*
X64004557Y-97525182D02*
X63977619Y-97605994D01*
X63977619Y-97605994D02*
X63762120Y-97821494D01*
X64354743Y-97121121D02*
X64273931Y-97148059D01*
X64273931Y-97148059D02*
X64220056Y-97148059D01*
X64220056Y-97148059D02*
X64139244Y-97121121D01*
X64139244Y-97121121D02*
X64112306Y-97094184D01*
X64112306Y-97094184D02*
X64085369Y-97013372D01*
X64085369Y-97013372D02*
X64085369Y-96959497D01*
X64085369Y-96959497D02*
X64112306Y-96878685D01*
X64112306Y-96878685D02*
X64220056Y-96770935D01*
X64220056Y-96770935D02*
X64300868Y-96743998D01*
X64300868Y-96743998D02*
X64354743Y-96743998D01*
X64354743Y-96743998D02*
X64435555Y-96770935D01*
X64435555Y-96770935D02*
X64462493Y-96797872D01*
X64462493Y-96797872D02*
X64489430Y-96878685D01*
X64489430Y-96878685D02*
X64489430Y-96932559D01*
X64489430Y-96932559D02*
X64462493Y-97013372D01*
X64462493Y-97013372D02*
X64354743Y-97121121D01*
X64354743Y-97121121D02*
X64327806Y-97201933D01*
X64327806Y-97201933D02*
X64327806Y-97255808D01*
X64327806Y-97255808D02*
X64354743Y-97336620D01*
X64354743Y-97336620D02*
X64462493Y-97444370D01*
X64462493Y-97444370D02*
X64543305Y-97471307D01*
X64543305Y-97471307D02*
X64597180Y-97471307D01*
X64597180Y-97471307D02*
X64677992Y-97444370D01*
X64677992Y-97444370D02*
X64785741Y-97336620D01*
X64785741Y-97336620D02*
X64812679Y-97255808D01*
X64812679Y-97255808D02*
X64812679Y-97201933D01*
X64812679Y-97201933D02*
X64785741Y-97121121D01*
X64785741Y-97121121D02*
X64677992Y-97013372D01*
X64677992Y-97013372D02*
X64597180Y-96986434D01*
X64597180Y-96986434D02*
X64543305Y-96986434D01*
X64543305Y-96986434D02*
X64462493Y-97013372D01*
X63196435Y-102928431D02*
X63115623Y-102955368D01*
X63115623Y-102955368D02*
X63034811Y-103036180D01*
X63034811Y-103036180D02*
X62980936Y-103143930D01*
X62980936Y-103143930D02*
X62980936Y-103251680D01*
X62980936Y-103251680D02*
X63007873Y-103332492D01*
X63007873Y-103332492D02*
X63088685Y-103467179D01*
X63088685Y-103467179D02*
X63169498Y-103547991D01*
X63169498Y-103547991D02*
X63304185Y-103628803D01*
X63304185Y-103628803D02*
X63384997Y-103655741D01*
X63384997Y-103655741D02*
X63492746Y-103655741D01*
X63492746Y-103655741D02*
X63600496Y-103601866D01*
X63600496Y-103601866D02*
X63654371Y-103547991D01*
X63654371Y-103547991D02*
X63708246Y-103440241D01*
X63708246Y-103440241D02*
X63708246Y-103386367D01*
X63708246Y-103386367D02*
X63519684Y-103197805D01*
X63519684Y-103197805D02*
X63411934Y-103305554D01*
X64004557Y-103197805D02*
X63438872Y-102632119D01*
X63438872Y-102632119D02*
X64327806Y-102874556D01*
X64327806Y-102874556D02*
X63762120Y-102308871D01*
X64597180Y-102605182D02*
X64031494Y-102039497D01*
X64031494Y-102039497D02*
X64166181Y-101904810D01*
X64166181Y-101904810D02*
X64273931Y-101850935D01*
X64273931Y-101850935D02*
X64381680Y-101850935D01*
X64381680Y-101850935D02*
X64462493Y-101877872D01*
X64462493Y-101877872D02*
X64597180Y-101958685D01*
X64597180Y-101958685D02*
X64677992Y-102039497D01*
X64677992Y-102039497D02*
X64758804Y-102174184D01*
X64758804Y-102174184D02*
X64785741Y-102254996D01*
X64785741Y-102254996D02*
X64785741Y-102362746D01*
X64785741Y-102362746D02*
X64731867Y-102470495D01*
X64731867Y-102470495D02*
X64597180Y-102605182D01*
X88807998Y-108250868D02*
X88727185Y-108277805D01*
X88727185Y-108277805D02*
X88646373Y-108358618D01*
X88646373Y-108358618D02*
X88592498Y-108466367D01*
X88592498Y-108466367D02*
X88592498Y-108574117D01*
X88592498Y-108574117D02*
X88619436Y-108654929D01*
X88619436Y-108654929D02*
X88700248Y-108789616D01*
X88700248Y-108789616D02*
X88781060Y-108870428D01*
X88781060Y-108870428D02*
X88915747Y-108951241D01*
X88915747Y-108951241D02*
X88996560Y-108978178D01*
X88996560Y-108978178D02*
X89104309Y-108978178D01*
X89104309Y-108978178D02*
X89212059Y-108924303D01*
X89212059Y-108924303D02*
X89265934Y-108870428D01*
X89265934Y-108870428D02*
X89319808Y-108762679D01*
X89319808Y-108762679D02*
X89319808Y-108708804D01*
X89319808Y-108708804D02*
X89131247Y-108520242D01*
X89131247Y-108520242D02*
X89023497Y-108627992D01*
X89616120Y-108520242D02*
X89050434Y-107954557D01*
X89050434Y-107954557D02*
X89265934Y-107739057D01*
X89265934Y-107739057D02*
X89346746Y-107712120D01*
X89346746Y-107712120D02*
X89400621Y-107712120D01*
X89400621Y-107712120D02*
X89481433Y-107739057D01*
X89481433Y-107739057D02*
X89562245Y-107819870D01*
X89562245Y-107819870D02*
X89589182Y-107900682D01*
X89589182Y-107900682D02*
X89589182Y-107954557D01*
X89589182Y-107954557D02*
X89562245Y-108035369D01*
X89562245Y-108035369D02*
X89346746Y-108250868D01*
X89643057Y-107469683D02*
X89643057Y-107415809D01*
X89643057Y-107415809D02*
X89669995Y-107334996D01*
X89669995Y-107334996D02*
X89804682Y-107200309D01*
X89804682Y-107200309D02*
X89885494Y-107173372D01*
X89885494Y-107173372D02*
X89939369Y-107173372D01*
X89939369Y-107173372D02*
X90020181Y-107200309D01*
X90020181Y-107200309D02*
X90074056Y-107254184D01*
X90074056Y-107254184D02*
X90127930Y-107361934D01*
X90127930Y-107361934D02*
X90127930Y-108008431D01*
X90127930Y-108008431D02*
X90478117Y-107658245D01*
X90262618Y-106742373D02*
X90316492Y-106688499D01*
X90316492Y-106688499D02*
X90397305Y-106661561D01*
X90397305Y-106661561D02*
X90451179Y-106661561D01*
X90451179Y-106661561D02*
X90531992Y-106688499D01*
X90531992Y-106688499D02*
X90666679Y-106769311D01*
X90666679Y-106769311D02*
X90801366Y-106903998D01*
X90801366Y-106903998D02*
X90882178Y-107038685D01*
X90882178Y-107038685D02*
X90909115Y-107119497D01*
X90909115Y-107119497D02*
X90909115Y-107173372D01*
X90909115Y-107173372D02*
X90882178Y-107254184D01*
X90882178Y-107254184D02*
X90828303Y-107308059D01*
X90828303Y-107308059D02*
X90747491Y-107334996D01*
X90747491Y-107334996D02*
X90693616Y-107334996D01*
X90693616Y-107334996D02*
X90612804Y-107308059D01*
X90612804Y-107308059D02*
X90478117Y-107227247D01*
X90478117Y-107227247D02*
X90343430Y-107092560D01*
X90343430Y-107092560D02*
X90262618Y-106957873D01*
X90262618Y-106957873D02*
X90235680Y-106877060D01*
X90235680Y-106877060D02*
X90235680Y-106823186D01*
X90235680Y-106823186D02*
X90262618Y-106742373D01*
X88663406Y-72957585D02*
X89417653Y-73334709D01*
X89417653Y-73334709D02*
X89040529Y-72580462D01*
X89687027Y-72472712D02*
X89794776Y-72418838D01*
X89794776Y-72418838D02*
X89848651Y-72418838D01*
X89848651Y-72418838D02*
X89929463Y-72445775D01*
X89929463Y-72445775D02*
X90010276Y-72526587D01*
X90010276Y-72526587D02*
X90037213Y-72607399D01*
X90037213Y-72607399D02*
X90037213Y-72661274D01*
X90037213Y-72661274D02*
X90010276Y-72742086D01*
X90010276Y-72742086D02*
X89794776Y-72957586D01*
X89794776Y-72957586D02*
X89229091Y-72391900D01*
X89229091Y-72391900D02*
X89417653Y-72203338D01*
X89417653Y-72203338D02*
X89498465Y-72176401D01*
X89498465Y-72176401D02*
X89552340Y-72176401D01*
X89552340Y-72176401D02*
X89633152Y-72203338D01*
X89633152Y-72203338D02*
X89687027Y-72257213D01*
X89687027Y-72257213D02*
X89713964Y-72338025D01*
X89713964Y-72338025D02*
X89713964Y-72391900D01*
X89713964Y-72391900D02*
X89687027Y-72472712D01*
X89687027Y-72472712D02*
X89498465Y-72661274D01*
X89794776Y-71826215D02*
X90252712Y-72284151D01*
X90252712Y-72284151D02*
X90333524Y-72311088D01*
X90333524Y-72311088D02*
X90387399Y-72311088D01*
X90387399Y-72311088D02*
X90468211Y-72284151D01*
X90468211Y-72284151D02*
X90575961Y-72176401D01*
X90575961Y-72176401D02*
X90602898Y-72095589D01*
X90602898Y-72095589D02*
X90602898Y-72041714D01*
X90602898Y-72041714D02*
X90575961Y-71960902D01*
X90575961Y-71960902D02*
X90118025Y-71502966D01*
X90899210Y-71799277D02*
X91006959Y-71745403D01*
X91006959Y-71745403D02*
X91141646Y-71610716D01*
X91141646Y-71610716D02*
X91168584Y-71529903D01*
X91168584Y-71529903D02*
X91168584Y-71476029D01*
X91168584Y-71476029D02*
X91141646Y-71395216D01*
X91141646Y-71395216D02*
X91087771Y-71341342D01*
X91087771Y-71341342D02*
X91006959Y-71314404D01*
X91006959Y-71314404D02*
X90953084Y-71314404D01*
X90953084Y-71314404D02*
X90872272Y-71341342D01*
X90872272Y-71341342D02*
X90737585Y-71422154D01*
X90737585Y-71422154D02*
X90656773Y-71449091D01*
X90656773Y-71449091D02*
X90602898Y-71449091D01*
X90602898Y-71449091D02*
X90522086Y-71422154D01*
X90522086Y-71422154D02*
X90468211Y-71368279D01*
X90468211Y-71368279D02*
X90441274Y-71287467D01*
X90441274Y-71287467D02*
X90441274Y-71233592D01*
X90441274Y-71233592D02*
X90468211Y-71152780D01*
X90468211Y-71152780D02*
X90602898Y-71018093D01*
X90602898Y-71018093D02*
X90710648Y-70964218D01*
X63123372Y-74951494D02*
X63042560Y-74978431D01*
X63042560Y-74978431D02*
X62961748Y-75059243D01*
X62961748Y-75059243D02*
X62907873Y-75166993D01*
X62907873Y-75166993D02*
X62907873Y-75274742D01*
X62907873Y-75274742D02*
X62934810Y-75355555D01*
X62934810Y-75355555D02*
X63015623Y-75490242D01*
X63015623Y-75490242D02*
X63096435Y-75571054D01*
X63096435Y-75571054D02*
X63231122Y-75651866D01*
X63231122Y-75651866D02*
X63311934Y-75678803D01*
X63311934Y-75678803D02*
X63419684Y-75678803D01*
X63419684Y-75678803D02*
X63527433Y-75624929D01*
X63527433Y-75624929D02*
X63581308Y-75571054D01*
X63581308Y-75571054D02*
X63635183Y-75463304D01*
X63635183Y-75463304D02*
X63635183Y-75409429D01*
X63635183Y-75409429D02*
X63446621Y-75220868D01*
X63446621Y-75220868D02*
X63338871Y-75328617D01*
X63931494Y-75220868D02*
X63365809Y-74655182D01*
X63365809Y-74655182D02*
X63581308Y-74439683D01*
X63581308Y-74439683D02*
X63662120Y-74412746D01*
X63662120Y-74412746D02*
X63715995Y-74412746D01*
X63715995Y-74412746D02*
X63796807Y-74439683D01*
X63796807Y-74439683D02*
X63877619Y-74520495D01*
X63877619Y-74520495D02*
X63904557Y-74601307D01*
X63904557Y-74601307D02*
X63904557Y-74655182D01*
X63904557Y-74655182D02*
X63877619Y-74735994D01*
X63877619Y-74735994D02*
X63662120Y-74951494D01*
X64793491Y-74358871D02*
X64470242Y-74682120D01*
X64631867Y-74520495D02*
X64066181Y-73954810D01*
X64066181Y-73954810D02*
X64093119Y-74089497D01*
X64093119Y-74089497D02*
X64093119Y-74197246D01*
X64093119Y-74197246D02*
X64066181Y-74278059D01*
X88807998Y-95550868D02*
X88727185Y-95577805D01*
X88727185Y-95577805D02*
X88646373Y-95658618D01*
X88646373Y-95658618D02*
X88592498Y-95766367D01*
X88592498Y-95766367D02*
X88592498Y-95874117D01*
X88592498Y-95874117D02*
X88619436Y-95954929D01*
X88619436Y-95954929D02*
X88700248Y-96089616D01*
X88700248Y-96089616D02*
X88781060Y-96170428D01*
X88781060Y-96170428D02*
X88915747Y-96251241D01*
X88915747Y-96251241D02*
X88996560Y-96278178D01*
X88996560Y-96278178D02*
X89104309Y-96278178D01*
X89104309Y-96278178D02*
X89212059Y-96224303D01*
X89212059Y-96224303D02*
X89265934Y-96170428D01*
X89265934Y-96170428D02*
X89319808Y-96062679D01*
X89319808Y-96062679D02*
X89319808Y-96008804D01*
X89319808Y-96008804D02*
X89131247Y-95820242D01*
X89131247Y-95820242D02*
X89023497Y-95927992D01*
X89616120Y-95820242D02*
X89050434Y-95254557D01*
X89050434Y-95254557D02*
X89265934Y-95039057D01*
X89265934Y-95039057D02*
X89346746Y-95012120D01*
X89346746Y-95012120D02*
X89400621Y-95012120D01*
X89400621Y-95012120D02*
X89481433Y-95039057D01*
X89481433Y-95039057D02*
X89562245Y-95119870D01*
X89562245Y-95119870D02*
X89589182Y-95200682D01*
X89589182Y-95200682D02*
X89589182Y-95254557D01*
X89589182Y-95254557D02*
X89562245Y-95335369D01*
X89562245Y-95335369D02*
X89346746Y-95550868D01*
X89643057Y-94769683D02*
X89643057Y-94715809D01*
X89643057Y-94715809D02*
X89669995Y-94634996D01*
X89669995Y-94634996D02*
X89804682Y-94500309D01*
X89804682Y-94500309D02*
X89885494Y-94473372D01*
X89885494Y-94473372D02*
X89939369Y-94473372D01*
X89939369Y-94473372D02*
X90020181Y-94500309D01*
X90020181Y-94500309D02*
X90074056Y-94554184D01*
X90074056Y-94554184D02*
X90127930Y-94661934D01*
X90127930Y-94661934D02*
X90127930Y-95308431D01*
X90127930Y-95308431D02*
X90478117Y-94958245D01*
X90397305Y-93907686D02*
X90289555Y-94015436D01*
X90289555Y-94015436D02*
X90262618Y-94096248D01*
X90262618Y-94096248D02*
X90262618Y-94150123D01*
X90262618Y-94150123D02*
X90289555Y-94284810D01*
X90289555Y-94284810D02*
X90370367Y-94419497D01*
X90370367Y-94419497D02*
X90585866Y-94634996D01*
X90585866Y-94634996D02*
X90666679Y-94661934D01*
X90666679Y-94661934D02*
X90720553Y-94661934D01*
X90720553Y-94661934D02*
X90801366Y-94634996D01*
X90801366Y-94634996D02*
X90909115Y-94527247D01*
X90909115Y-94527247D02*
X90936053Y-94446434D01*
X90936053Y-94446434D02*
X90936053Y-94392560D01*
X90936053Y-94392560D02*
X90909115Y-94311747D01*
X90909115Y-94311747D02*
X90774428Y-94177060D01*
X90774428Y-94177060D02*
X90693616Y-94150123D01*
X90693616Y-94150123D02*
X90639741Y-94150123D01*
X90639741Y-94150123D02*
X90558929Y-94177060D01*
X90558929Y-94177060D02*
X90451179Y-94284810D01*
X90451179Y-94284810D02*
X90424242Y-94365622D01*
X90424242Y-94365622D02*
X90424242Y-94419497D01*
X90424242Y-94419497D02*
X90451179Y-94500309D01*
X88807998Y-87676868D02*
X88727185Y-87703805D01*
X88727185Y-87703805D02*
X88646373Y-87784618D01*
X88646373Y-87784618D02*
X88592498Y-87892367D01*
X88592498Y-87892367D02*
X88592498Y-88000117D01*
X88592498Y-88000117D02*
X88619436Y-88080929D01*
X88619436Y-88080929D02*
X88700248Y-88215616D01*
X88700248Y-88215616D02*
X88781060Y-88296428D01*
X88781060Y-88296428D02*
X88915747Y-88377241D01*
X88915747Y-88377241D02*
X88996560Y-88404178D01*
X88996560Y-88404178D02*
X89104309Y-88404178D01*
X89104309Y-88404178D02*
X89212059Y-88350303D01*
X89212059Y-88350303D02*
X89265934Y-88296428D01*
X89265934Y-88296428D02*
X89319808Y-88188679D01*
X89319808Y-88188679D02*
X89319808Y-88134804D01*
X89319808Y-88134804D02*
X89131247Y-87946242D01*
X89131247Y-87946242D02*
X89023497Y-88053992D01*
X89616120Y-87946242D02*
X89050434Y-87380557D01*
X89050434Y-87380557D02*
X89265934Y-87165057D01*
X89265934Y-87165057D02*
X89346746Y-87138120D01*
X89346746Y-87138120D02*
X89400621Y-87138120D01*
X89400621Y-87138120D02*
X89481433Y-87165057D01*
X89481433Y-87165057D02*
X89562245Y-87245870D01*
X89562245Y-87245870D02*
X89589182Y-87326682D01*
X89589182Y-87326682D02*
X89589182Y-87380557D01*
X89589182Y-87380557D02*
X89562245Y-87461369D01*
X89562245Y-87461369D02*
X89346746Y-87676868D01*
X89643057Y-86895683D02*
X89643057Y-86841809D01*
X89643057Y-86841809D02*
X89669995Y-86760996D01*
X89669995Y-86760996D02*
X89804682Y-86626309D01*
X89804682Y-86626309D02*
X89885494Y-86599372D01*
X89885494Y-86599372D02*
X89939369Y-86599372D01*
X89939369Y-86599372D02*
X90020181Y-86626309D01*
X90020181Y-86626309D02*
X90074056Y-86680184D01*
X90074056Y-86680184D02*
X90127930Y-86787934D01*
X90127930Y-86787934D02*
X90127930Y-87434431D01*
X90127930Y-87434431D02*
X90478117Y-87084245D01*
X90478117Y-86437747D02*
X90397305Y-86464685D01*
X90397305Y-86464685D02*
X90343430Y-86464685D01*
X90343430Y-86464685D02*
X90262618Y-86437747D01*
X90262618Y-86437747D02*
X90235680Y-86410810D01*
X90235680Y-86410810D02*
X90208743Y-86329998D01*
X90208743Y-86329998D02*
X90208743Y-86276123D01*
X90208743Y-86276123D02*
X90235680Y-86195311D01*
X90235680Y-86195311D02*
X90343430Y-86087561D01*
X90343430Y-86087561D02*
X90424242Y-86060624D01*
X90424242Y-86060624D02*
X90478117Y-86060624D01*
X90478117Y-86060624D02*
X90558929Y-86087561D01*
X90558929Y-86087561D02*
X90585866Y-86114499D01*
X90585866Y-86114499D02*
X90612804Y-86195311D01*
X90612804Y-86195311D02*
X90612804Y-86249186D01*
X90612804Y-86249186D02*
X90585866Y-86329998D01*
X90585866Y-86329998D02*
X90478117Y-86437747D01*
X90478117Y-86437747D02*
X90451179Y-86518560D01*
X90451179Y-86518560D02*
X90451179Y-86572434D01*
X90451179Y-86572434D02*
X90478117Y-86653247D01*
X90478117Y-86653247D02*
X90585866Y-86760996D01*
X90585866Y-86760996D02*
X90666679Y-86787934D01*
X90666679Y-86787934D02*
X90720553Y-86787934D01*
X90720553Y-86787934D02*
X90801366Y-86760996D01*
X90801366Y-86760996D02*
X90909115Y-86653247D01*
X90909115Y-86653247D02*
X90936053Y-86572434D01*
X90936053Y-86572434D02*
X90936053Y-86518560D01*
X90936053Y-86518560D02*
X90909115Y-86437747D01*
X90909115Y-86437747D02*
X90801366Y-86329998D01*
X90801366Y-86329998D02*
X90720553Y-86303060D01*
X90720553Y-86303060D02*
X90666679Y-86303060D01*
X90666679Y-86303060D02*
X90585866Y-86329998D01*
X101433333Y-88354819D02*
X101100000Y-87878628D01*
X100861905Y-88354819D02*
X100861905Y-87354819D01*
X100861905Y-87354819D02*
X101242857Y-87354819D01*
X101242857Y-87354819D02*
X101338095Y-87402438D01*
X101338095Y-87402438D02*
X101385714Y-87450057D01*
X101385714Y-87450057D02*
X101433333Y-87545295D01*
X101433333Y-87545295D02*
X101433333Y-87688152D01*
X101433333Y-87688152D02*
X101385714Y-87783390D01*
X101385714Y-87783390D02*
X101338095Y-87831009D01*
X101338095Y-87831009D02*
X101242857Y-87878628D01*
X101242857Y-87878628D02*
X100861905Y-87878628D01*
X101814286Y-87450057D02*
X101861905Y-87402438D01*
X101861905Y-87402438D02*
X101957143Y-87354819D01*
X101957143Y-87354819D02*
X102195238Y-87354819D01*
X102195238Y-87354819D02*
X102290476Y-87402438D01*
X102290476Y-87402438D02*
X102338095Y-87450057D01*
X102338095Y-87450057D02*
X102385714Y-87545295D01*
X102385714Y-87545295D02*
X102385714Y-87640533D01*
X102385714Y-87640533D02*
X102338095Y-87783390D01*
X102338095Y-87783390D02*
X101766667Y-88354819D01*
X101766667Y-88354819D02*
X102385714Y-88354819D01*
X52461905Y-117454819D02*
X52461905Y-116454819D01*
X52461905Y-116454819D02*
X52700000Y-116454819D01*
X52700000Y-116454819D02*
X52842857Y-116502438D01*
X52842857Y-116502438D02*
X52938095Y-116597676D01*
X52938095Y-116597676D02*
X52985714Y-116692914D01*
X52985714Y-116692914D02*
X53033333Y-116883390D01*
X53033333Y-116883390D02*
X53033333Y-117026247D01*
X53033333Y-117026247D02*
X52985714Y-117216723D01*
X52985714Y-117216723D02*
X52938095Y-117311961D01*
X52938095Y-117311961D02*
X52842857Y-117407200D01*
X52842857Y-117407200D02*
X52700000Y-117454819D01*
X52700000Y-117454819D02*
X52461905Y-117454819D01*
X53414286Y-116550057D02*
X53461905Y-116502438D01*
X53461905Y-116502438D02*
X53557143Y-116454819D01*
X53557143Y-116454819D02*
X53795238Y-116454819D01*
X53795238Y-116454819D02*
X53890476Y-116502438D01*
X53890476Y-116502438D02*
X53938095Y-116550057D01*
X53938095Y-116550057D02*
X53985714Y-116645295D01*
X53985714Y-116645295D02*
X53985714Y-116740533D01*
X53985714Y-116740533D02*
X53938095Y-116883390D01*
X53938095Y-116883390D02*
X53366667Y-117454819D01*
X53366667Y-117454819D02*
X53985714Y-117454819D01*
X101433333Y-110754819D02*
X101100000Y-110278628D01*
X100861905Y-110754819D02*
X100861905Y-109754819D01*
X100861905Y-109754819D02*
X101242857Y-109754819D01*
X101242857Y-109754819D02*
X101338095Y-109802438D01*
X101338095Y-109802438D02*
X101385714Y-109850057D01*
X101385714Y-109850057D02*
X101433333Y-109945295D01*
X101433333Y-109945295D02*
X101433333Y-110088152D01*
X101433333Y-110088152D02*
X101385714Y-110183390D01*
X101385714Y-110183390D02*
X101338095Y-110231009D01*
X101338095Y-110231009D02*
X101242857Y-110278628D01*
X101242857Y-110278628D02*
X100861905Y-110278628D01*
X102290476Y-109754819D02*
X102100000Y-109754819D01*
X102100000Y-109754819D02*
X102004762Y-109802438D01*
X102004762Y-109802438D02*
X101957143Y-109850057D01*
X101957143Y-109850057D02*
X101861905Y-109992914D01*
X101861905Y-109992914D02*
X101814286Y-110183390D01*
X101814286Y-110183390D02*
X101814286Y-110564342D01*
X101814286Y-110564342D02*
X101861905Y-110659580D01*
X101861905Y-110659580D02*
X101909524Y-110707200D01*
X101909524Y-110707200D02*
X102004762Y-110754819D01*
X102004762Y-110754819D02*
X102195238Y-110754819D01*
X102195238Y-110754819D02*
X102290476Y-110707200D01*
X102290476Y-110707200D02*
X102338095Y-110659580D01*
X102338095Y-110659580D02*
X102385714Y-110564342D01*
X102385714Y-110564342D02*
X102385714Y-110326247D01*
X102385714Y-110326247D02*
X102338095Y-110231009D01*
X102338095Y-110231009D02*
X102290476Y-110183390D01*
X102290476Y-110183390D02*
X102195238Y-110135771D01*
X102195238Y-110135771D02*
X102004762Y-110135771D01*
X102004762Y-110135771D02*
X101909524Y-110183390D01*
X101909524Y-110183390D02*
X101861905Y-110231009D01*
X101861905Y-110231009D02*
X101814286Y-110326247D01*
D14*
X131588333Y-111853365D02*
X131527857Y-111913842D01*
X131527857Y-111913842D02*
X131346428Y-111974318D01*
X131346428Y-111974318D02*
X131225476Y-111974318D01*
X131225476Y-111974318D02*
X131044047Y-111913842D01*
X131044047Y-111913842D02*
X130923095Y-111792889D01*
X130923095Y-111792889D02*
X130862618Y-111671937D01*
X130862618Y-111671937D02*
X130802142Y-111430032D01*
X130802142Y-111430032D02*
X130802142Y-111248603D01*
X130802142Y-111248603D02*
X130862618Y-111006699D01*
X130862618Y-111006699D02*
X130923095Y-110885746D01*
X130923095Y-110885746D02*
X131044047Y-110764794D01*
X131044047Y-110764794D02*
X131225476Y-110704318D01*
X131225476Y-110704318D02*
X131346428Y-110704318D01*
X131346428Y-110704318D02*
X131527857Y-110764794D01*
X131527857Y-110764794D02*
X131588333Y-110825270D01*
X132676904Y-111127651D02*
X132676904Y-111974318D01*
X132374523Y-110643842D02*
X132072142Y-111550984D01*
X132072142Y-111550984D02*
X132858333Y-111550984D01*
D10*
X101653333Y-82654819D02*
X101320000Y-82178628D01*
X101081905Y-82654819D02*
X101081905Y-81654819D01*
X101081905Y-81654819D02*
X101462857Y-81654819D01*
X101462857Y-81654819D02*
X101558095Y-81702438D01*
X101558095Y-81702438D02*
X101605714Y-81750057D01*
X101605714Y-81750057D02*
X101653333Y-81845295D01*
X101653333Y-81845295D02*
X101653333Y-81988152D01*
X101653333Y-81988152D02*
X101605714Y-82083390D01*
X101605714Y-82083390D02*
X101558095Y-82131009D01*
X101558095Y-82131009D02*
X101462857Y-82178628D01*
X101462857Y-82178628D02*
X101081905Y-82178628D01*
X102605714Y-82654819D02*
X102034286Y-82654819D01*
X102320000Y-82654819D02*
X102320000Y-81654819D01*
X102320000Y-81654819D02*
X102224762Y-81797676D01*
X102224762Y-81797676D02*
X102129524Y-81892914D01*
X102129524Y-81892914D02*
X102034286Y-81940533D01*
X101333333Y-99754819D02*
X101000000Y-99278628D01*
X100761905Y-99754819D02*
X100761905Y-98754819D01*
X100761905Y-98754819D02*
X101142857Y-98754819D01*
X101142857Y-98754819D02*
X101238095Y-98802438D01*
X101238095Y-98802438D02*
X101285714Y-98850057D01*
X101285714Y-98850057D02*
X101333333Y-98945295D01*
X101333333Y-98945295D02*
X101333333Y-99088152D01*
X101333333Y-99088152D02*
X101285714Y-99183390D01*
X101285714Y-99183390D02*
X101238095Y-99231009D01*
X101238095Y-99231009D02*
X101142857Y-99278628D01*
X101142857Y-99278628D02*
X100761905Y-99278628D01*
X102190476Y-99088152D02*
X102190476Y-99754819D01*
X101952381Y-98707200D02*
X101714286Y-99421485D01*
X101714286Y-99421485D02*
X102333333Y-99421485D01*
X101333333Y-124254819D02*
X101000000Y-123778628D01*
X100761905Y-124254819D02*
X100761905Y-123254819D01*
X100761905Y-123254819D02*
X101142857Y-123254819D01*
X101142857Y-123254819D02*
X101238095Y-123302438D01*
X101238095Y-123302438D02*
X101285714Y-123350057D01*
X101285714Y-123350057D02*
X101333333Y-123445295D01*
X101333333Y-123445295D02*
X101333333Y-123588152D01*
X101333333Y-123588152D02*
X101285714Y-123683390D01*
X101285714Y-123683390D02*
X101238095Y-123731009D01*
X101238095Y-123731009D02*
X101142857Y-123778628D01*
X101142857Y-123778628D02*
X100761905Y-123778628D01*
X101904762Y-123683390D02*
X101809524Y-123635771D01*
X101809524Y-123635771D02*
X101761905Y-123588152D01*
X101761905Y-123588152D02*
X101714286Y-123492914D01*
X101714286Y-123492914D02*
X101714286Y-123445295D01*
X101714286Y-123445295D02*
X101761905Y-123350057D01*
X101761905Y-123350057D02*
X101809524Y-123302438D01*
X101809524Y-123302438D02*
X101904762Y-123254819D01*
X101904762Y-123254819D02*
X102095238Y-123254819D01*
X102095238Y-123254819D02*
X102190476Y-123302438D01*
X102190476Y-123302438D02*
X102238095Y-123350057D01*
X102238095Y-123350057D02*
X102285714Y-123445295D01*
X102285714Y-123445295D02*
X102285714Y-123492914D01*
X102285714Y-123492914D02*
X102238095Y-123588152D01*
X102238095Y-123588152D02*
X102190476Y-123635771D01*
X102190476Y-123635771D02*
X102095238Y-123683390D01*
X102095238Y-123683390D02*
X101904762Y-123683390D01*
X101904762Y-123683390D02*
X101809524Y-123731009D01*
X101809524Y-123731009D02*
X101761905Y-123778628D01*
X101761905Y-123778628D02*
X101714286Y-123873866D01*
X101714286Y-123873866D02*
X101714286Y-124064342D01*
X101714286Y-124064342D02*
X101761905Y-124159580D01*
X101761905Y-124159580D02*
X101809524Y-124207200D01*
X101809524Y-124207200D02*
X101904762Y-124254819D01*
X101904762Y-124254819D02*
X102095238Y-124254819D01*
X102095238Y-124254819D02*
X102190476Y-124207200D01*
X102190476Y-124207200D02*
X102238095Y-124159580D01*
X102238095Y-124159580D02*
X102285714Y-124064342D01*
X102285714Y-124064342D02*
X102285714Y-123873866D01*
X102285714Y-123873866D02*
X102238095Y-123778628D01*
X102238095Y-123778628D02*
X102190476Y-123731009D01*
X102190476Y-123731009D02*
X102095238Y-123683390D01*
X52361905Y-125754819D02*
X52361905Y-124754819D01*
X52361905Y-124754819D02*
X52600000Y-124754819D01*
X52600000Y-124754819D02*
X52742857Y-124802438D01*
X52742857Y-124802438D02*
X52838095Y-124897676D01*
X52838095Y-124897676D02*
X52885714Y-124992914D01*
X52885714Y-124992914D02*
X52933333Y-125183390D01*
X52933333Y-125183390D02*
X52933333Y-125326247D01*
X52933333Y-125326247D02*
X52885714Y-125516723D01*
X52885714Y-125516723D02*
X52838095Y-125611961D01*
X52838095Y-125611961D02*
X52742857Y-125707200D01*
X52742857Y-125707200D02*
X52600000Y-125754819D01*
X52600000Y-125754819D02*
X52361905Y-125754819D01*
X53266667Y-124754819D02*
X53885714Y-124754819D01*
X53885714Y-124754819D02*
X53552381Y-125135771D01*
X53552381Y-125135771D02*
X53695238Y-125135771D01*
X53695238Y-125135771D02*
X53790476Y-125183390D01*
X53790476Y-125183390D02*
X53838095Y-125231009D01*
X53838095Y-125231009D02*
X53885714Y-125326247D01*
X53885714Y-125326247D02*
X53885714Y-125564342D01*
X53885714Y-125564342D02*
X53838095Y-125659580D01*
X53838095Y-125659580D02*
X53790476Y-125707200D01*
X53790476Y-125707200D02*
X53695238Y-125754819D01*
X53695238Y-125754819D02*
X53409524Y-125754819D01*
X53409524Y-125754819D02*
X53314286Y-125707200D01*
X53314286Y-125707200D02*
X53266667Y-125659580D01*
D14*
X131788333Y-89853365D02*
X131727857Y-89913842D01*
X131727857Y-89913842D02*
X131546428Y-89974318D01*
X131546428Y-89974318D02*
X131425476Y-89974318D01*
X131425476Y-89974318D02*
X131244047Y-89913842D01*
X131244047Y-89913842D02*
X131123095Y-89792889D01*
X131123095Y-89792889D02*
X131062618Y-89671937D01*
X131062618Y-89671937D02*
X131002142Y-89430032D01*
X131002142Y-89430032D02*
X131002142Y-89248603D01*
X131002142Y-89248603D02*
X131062618Y-89006699D01*
X131062618Y-89006699D02*
X131123095Y-88885746D01*
X131123095Y-88885746D02*
X131244047Y-88764794D01*
X131244047Y-88764794D02*
X131425476Y-88704318D01*
X131425476Y-88704318D02*
X131546428Y-88704318D01*
X131546428Y-88704318D02*
X131727857Y-88764794D01*
X131727857Y-88764794D02*
X131788333Y-88825270D01*
X132272142Y-88825270D02*
X132332618Y-88764794D01*
X132332618Y-88764794D02*
X132453571Y-88704318D01*
X132453571Y-88704318D02*
X132755952Y-88704318D01*
X132755952Y-88704318D02*
X132876904Y-88764794D01*
X132876904Y-88764794D02*
X132937380Y-88825270D01*
X132937380Y-88825270D02*
X132997857Y-88946222D01*
X132997857Y-88946222D02*
X132997857Y-89067175D01*
X132997857Y-89067175D02*
X132937380Y-89248603D01*
X132937380Y-89248603D02*
X132211666Y-89974318D01*
X132211666Y-89974318D02*
X132997857Y-89974318D01*
X131588333Y-124253365D02*
X131527857Y-124313842D01*
X131527857Y-124313842D02*
X131346428Y-124374318D01*
X131346428Y-124374318D02*
X131225476Y-124374318D01*
X131225476Y-124374318D02*
X131044047Y-124313842D01*
X131044047Y-124313842D02*
X130923095Y-124192889D01*
X130923095Y-124192889D02*
X130862618Y-124071937D01*
X130862618Y-124071937D02*
X130802142Y-123830032D01*
X130802142Y-123830032D02*
X130802142Y-123648603D01*
X130802142Y-123648603D02*
X130862618Y-123406699D01*
X130862618Y-123406699D02*
X130923095Y-123285746D01*
X130923095Y-123285746D02*
X131044047Y-123164794D01*
X131044047Y-123164794D02*
X131225476Y-123104318D01*
X131225476Y-123104318D02*
X131346428Y-123104318D01*
X131346428Y-123104318D02*
X131527857Y-123164794D01*
X131527857Y-123164794D02*
X131588333Y-123225270D01*
X132737380Y-123104318D02*
X132132618Y-123104318D01*
X132132618Y-123104318D02*
X132072142Y-123709080D01*
X132072142Y-123709080D02*
X132132618Y-123648603D01*
X132132618Y-123648603D02*
X132253571Y-123588127D01*
X132253571Y-123588127D02*
X132555952Y-123588127D01*
X132555952Y-123588127D02*
X132676904Y-123648603D01*
X132676904Y-123648603D02*
X132737380Y-123709080D01*
X132737380Y-123709080D02*
X132797857Y-123830032D01*
X132797857Y-123830032D02*
X132797857Y-124132413D01*
X132797857Y-124132413D02*
X132737380Y-124253365D01*
X132737380Y-124253365D02*
X132676904Y-124313842D01*
X132676904Y-124313842D02*
X132555952Y-124374318D01*
X132555952Y-124374318D02*
X132253571Y-124374318D01*
X132253571Y-124374318D02*
X132132618Y-124313842D01*
X132132618Y-124313842D02*
X132072142Y-124253365D01*
D10*
X52561905Y-109254819D02*
X52561905Y-108254819D01*
X52561905Y-108254819D02*
X52800000Y-108254819D01*
X52800000Y-108254819D02*
X52942857Y-108302438D01*
X52942857Y-108302438D02*
X53038095Y-108397676D01*
X53038095Y-108397676D02*
X53085714Y-108492914D01*
X53085714Y-108492914D02*
X53133333Y-108683390D01*
X53133333Y-108683390D02*
X53133333Y-108826247D01*
X53133333Y-108826247D02*
X53085714Y-109016723D01*
X53085714Y-109016723D02*
X53038095Y-109111961D01*
X53038095Y-109111961D02*
X52942857Y-109207200D01*
X52942857Y-109207200D02*
X52800000Y-109254819D01*
X52800000Y-109254819D02*
X52561905Y-109254819D01*
X54085714Y-109254819D02*
X53514286Y-109254819D01*
X53800000Y-109254819D02*
X53800000Y-108254819D01*
X53800000Y-108254819D02*
X53704762Y-108397676D01*
X53704762Y-108397676D02*
X53609524Y-108492914D01*
X53609524Y-108492914D02*
X53514286Y-108540533D01*
X101433333Y-105154819D02*
X101100000Y-104678628D01*
X100861905Y-105154819D02*
X100861905Y-104154819D01*
X100861905Y-104154819D02*
X101242857Y-104154819D01*
X101242857Y-104154819D02*
X101338095Y-104202438D01*
X101338095Y-104202438D02*
X101385714Y-104250057D01*
X101385714Y-104250057D02*
X101433333Y-104345295D01*
X101433333Y-104345295D02*
X101433333Y-104488152D01*
X101433333Y-104488152D02*
X101385714Y-104583390D01*
X101385714Y-104583390D02*
X101338095Y-104631009D01*
X101338095Y-104631009D02*
X101242857Y-104678628D01*
X101242857Y-104678628D02*
X100861905Y-104678628D01*
X102338095Y-104154819D02*
X101861905Y-104154819D01*
X101861905Y-104154819D02*
X101814286Y-104631009D01*
X101814286Y-104631009D02*
X101861905Y-104583390D01*
X101861905Y-104583390D02*
X101957143Y-104535771D01*
X101957143Y-104535771D02*
X102195238Y-104535771D01*
X102195238Y-104535771D02*
X102290476Y-104583390D01*
X102290476Y-104583390D02*
X102338095Y-104631009D01*
X102338095Y-104631009D02*
X102385714Y-104726247D01*
X102385714Y-104726247D02*
X102385714Y-104964342D01*
X102385714Y-104964342D02*
X102338095Y-105059580D01*
X102338095Y-105059580D02*
X102290476Y-105107200D01*
X102290476Y-105107200D02*
X102195238Y-105154819D01*
X102195238Y-105154819D02*
X101957143Y-105154819D01*
X101957143Y-105154819D02*
X101861905Y-105107200D01*
X101861905Y-105107200D02*
X101814286Y-105059580D01*
X101533333Y-117354819D02*
X101200000Y-116878628D01*
X100961905Y-117354819D02*
X100961905Y-116354819D01*
X100961905Y-116354819D02*
X101342857Y-116354819D01*
X101342857Y-116354819D02*
X101438095Y-116402438D01*
X101438095Y-116402438D02*
X101485714Y-116450057D01*
X101485714Y-116450057D02*
X101533333Y-116545295D01*
X101533333Y-116545295D02*
X101533333Y-116688152D01*
X101533333Y-116688152D02*
X101485714Y-116783390D01*
X101485714Y-116783390D02*
X101438095Y-116831009D01*
X101438095Y-116831009D02*
X101342857Y-116878628D01*
X101342857Y-116878628D02*
X100961905Y-116878628D01*
X101866667Y-116354819D02*
X102533333Y-116354819D01*
X102533333Y-116354819D02*
X102104762Y-117354819D01*
X85604761Y-139154819D02*
X85271428Y-138678628D01*
X85033333Y-139154819D02*
X85033333Y-138154819D01*
X85033333Y-138154819D02*
X85414285Y-138154819D01*
X85414285Y-138154819D02*
X85509523Y-138202438D01*
X85509523Y-138202438D02*
X85557142Y-138250057D01*
X85557142Y-138250057D02*
X85604761Y-138345295D01*
X85604761Y-138345295D02*
X85604761Y-138488152D01*
X85604761Y-138488152D02*
X85557142Y-138583390D01*
X85557142Y-138583390D02*
X85509523Y-138631009D01*
X85509523Y-138631009D02*
X85414285Y-138678628D01*
X85414285Y-138678628D02*
X85033333Y-138678628D01*
X85890476Y-138154819D02*
X86223809Y-139154819D01*
X86223809Y-139154819D02*
X86557142Y-138154819D01*
X87414285Y-139154819D02*
X86842857Y-139154819D01*
X87128571Y-139154819D02*
X87128571Y-138154819D01*
X87128571Y-138154819D02*
X87033333Y-138297676D01*
X87033333Y-138297676D02*
X86938095Y-138392914D01*
X86938095Y-138392914D02*
X86842857Y-138440533D01*
D14*
X131488333Y-101053365D02*
X131427857Y-101113842D01*
X131427857Y-101113842D02*
X131246428Y-101174318D01*
X131246428Y-101174318D02*
X131125476Y-101174318D01*
X131125476Y-101174318D02*
X130944047Y-101113842D01*
X130944047Y-101113842D02*
X130823095Y-100992889D01*
X130823095Y-100992889D02*
X130762618Y-100871937D01*
X130762618Y-100871937D02*
X130702142Y-100630032D01*
X130702142Y-100630032D02*
X130702142Y-100448603D01*
X130702142Y-100448603D02*
X130762618Y-100206699D01*
X130762618Y-100206699D02*
X130823095Y-100085746D01*
X130823095Y-100085746D02*
X130944047Y-99964794D01*
X130944047Y-99964794D02*
X131125476Y-99904318D01*
X131125476Y-99904318D02*
X131246428Y-99904318D01*
X131246428Y-99904318D02*
X131427857Y-99964794D01*
X131427857Y-99964794D02*
X131488333Y-100025270D01*
X131911666Y-99904318D02*
X132697857Y-99904318D01*
X132697857Y-99904318D02*
X132274523Y-100388127D01*
X132274523Y-100388127D02*
X132455952Y-100388127D01*
X132455952Y-100388127D02*
X132576904Y-100448603D01*
X132576904Y-100448603D02*
X132637380Y-100509080D01*
X132637380Y-100509080D02*
X132697857Y-100630032D01*
X132697857Y-100630032D02*
X132697857Y-100932413D01*
X132697857Y-100932413D02*
X132637380Y-101053365D01*
X132637380Y-101053365D02*
X132576904Y-101113842D01*
X132576904Y-101113842D02*
X132455952Y-101174318D01*
X132455952Y-101174318D02*
X132093095Y-101174318D01*
X132093095Y-101174318D02*
X131972142Y-101113842D01*
X131972142Y-101113842D02*
X131911666Y-101053365D01*
D10*
X101433333Y-94054819D02*
X101100000Y-93578628D01*
X100861905Y-94054819D02*
X100861905Y-93054819D01*
X100861905Y-93054819D02*
X101242857Y-93054819D01*
X101242857Y-93054819D02*
X101338095Y-93102438D01*
X101338095Y-93102438D02*
X101385714Y-93150057D01*
X101385714Y-93150057D02*
X101433333Y-93245295D01*
X101433333Y-93245295D02*
X101433333Y-93388152D01*
X101433333Y-93388152D02*
X101385714Y-93483390D01*
X101385714Y-93483390D02*
X101338095Y-93531009D01*
X101338095Y-93531009D02*
X101242857Y-93578628D01*
X101242857Y-93578628D02*
X100861905Y-93578628D01*
X101766667Y-93054819D02*
X102385714Y-93054819D01*
X102385714Y-93054819D02*
X102052381Y-93435771D01*
X102052381Y-93435771D02*
X102195238Y-93435771D01*
X102195238Y-93435771D02*
X102290476Y-93483390D01*
X102290476Y-93483390D02*
X102338095Y-93531009D01*
X102338095Y-93531009D02*
X102385714Y-93626247D01*
X102385714Y-93626247D02*
X102385714Y-93864342D01*
X102385714Y-93864342D02*
X102338095Y-93959580D01*
X102338095Y-93959580D02*
X102290476Y-94007200D01*
X102290476Y-94007200D02*
X102195238Y-94054819D01*
X102195238Y-94054819D02*
X101909524Y-94054819D01*
X101909524Y-94054819D02*
X101814286Y-94007200D01*
X101814286Y-94007200D02*
X101766667Y-93959580D01*
D15*
X115650000Y-94800000D02*
X115650000Y-96300000D01*
X116900000Y-98800000D02*
X121400000Y-98800000D01*
X121400000Y-92300000D02*
X116900000Y-92300000D01*
X122650000Y-96300000D02*
X122650000Y-94800000D01*
X115750000Y-118400000D02*
X115750000Y-119900000D01*
X117000000Y-122400000D02*
X121500000Y-122400000D01*
X121500000Y-115900000D02*
X117000000Y-115900000D01*
X122750000Y-119900000D02*
X122750000Y-118400000D01*
X115750000Y-106000000D02*
X115750000Y-107500000D01*
X117000000Y-110000000D02*
X121500000Y-110000000D01*
X121500000Y-103500000D02*
X117000000Y-103500000D01*
X122750000Y-107500000D02*
X122750000Y-106000000D01*
X50635000Y-128255000D02*
X50635000Y-131345000D01*
X56184999Y-129800462D02*
G75*
G03*
X50635001Y-128255170I-2989999J462D01*
G01*
X50635000Y-131344830D02*
G75*
G03*
X56185000Y-129799538I2560000J1544830D01*
G01*
X55695000Y-129800000D02*
G75*
G03*
X55695000Y-129800000I-2500000J0D01*
G01*
D16*
X137225000Y-68300000D02*
G75*
G03*
X137225000Y-68300000I-5125000J0D01*
G01*
X47350000Y-90100000D02*
X47350000Y-82700000D01*
X56550000Y-90100000D02*
X47350000Y-90100000D01*
X47350000Y-82700000D02*
X58850000Y-82700000D01*
D15*
X66210000Y-70930000D02*
X66210000Y-71230000D01*
X66210000Y-70930000D02*
X87210000Y-70930000D01*
X66210000Y-73330000D02*
X66210000Y-73730000D01*
X66210000Y-73597000D02*
X69217000Y-73597000D01*
X66210000Y-75930000D02*
X66210000Y-76330000D01*
X66210000Y-78430000D02*
X66210000Y-78830000D01*
X66210000Y-81030000D02*
X66210000Y-81430000D01*
X66210000Y-83530000D02*
X66210000Y-83930000D01*
X66210000Y-86030000D02*
X66210000Y-86430000D01*
X66210000Y-88630000D02*
X66210000Y-89030000D01*
X66210000Y-91130000D02*
X66210000Y-91530000D01*
X66210000Y-93730000D02*
X66210000Y-94130000D01*
X66210000Y-96230000D02*
X66210000Y-96630000D01*
X66210000Y-98730000D02*
X66210000Y-99130000D01*
X66210000Y-101330000D02*
X66210000Y-101730000D01*
X66210000Y-103830000D02*
X66210000Y-104230000D01*
X66210000Y-106430000D02*
X66210000Y-106830000D01*
X66210000Y-108930000D02*
X66210000Y-109330000D01*
X66210000Y-111530000D02*
X66210000Y-111930000D01*
X66210000Y-114030000D02*
X66210000Y-114430000D01*
X66210000Y-116530000D02*
X66210000Y-116930000D01*
X66210000Y-119130000D02*
X66210000Y-119530000D01*
X69217000Y-73597000D02*
X69217000Y-70930000D01*
X73010000Y-121930000D02*
X66210000Y-121930000D01*
X75210000Y-121930000D02*
X75610000Y-121930000D01*
X77810000Y-121930000D02*
X78210000Y-121930000D01*
X87210000Y-70930000D02*
X87210000Y-71230000D01*
X87210000Y-73330000D02*
X87210000Y-73730000D01*
X87210000Y-75930000D02*
X87210000Y-76330000D01*
X87210000Y-78430000D02*
X87210000Y-78830000D01*
X87210000Y-81030000D02*
X87210000Y-81430000D01*
X87210000Y-83530000D02*
X87210000Y-83930000D01*
X87210000Y-86030000D02*
X87210000Y-86430000D01*
X87210000Y-88630000D02*
X87210000Y-89030000D01*
X87210000Y-91130000D02*
X87210000Y-91530000D01*
X87210000Y-93730000D02*
X87210000Y-94130000D01*
X87210000Y-96230000D02*
X87210000Y-96630000D01*
X87210000Y-98730000D02*
X87210000Y-99130000D01*
X87210000Y-101330000D02*
X87210000Y-101730000D01*
X87210000Y-103830000D02*
X87210000Y-104230000D01*
X87210000Y-106430000D02*
X87210000Y-106830000D01*
X87210000Y-108930000D02*
X87210000Y-109330000D01*
X87210000Y-111530000D02*
X87210000Y-111930000D01*
X87210000Y-114030000D02*
X87210000Y-114430000D01*
X87210000Y-116530000D02*
X87210000Y-116930000D01*
X87210000Y-119130000D02*
X87210000Y-119530000D01*
X87210000Y-121930000D02*
X80410000Y-121930000D01*
X97680000Y-87800000D02*
X98450000Y-87800000D01*
X98450000Y-86430000D02*
X98450000Y-89170000D01*
X98450000Y-89170000D02*
X104990000Y-89170000D01*
X104990000Y-86430000D02*
X98450000Y-86430000D01*
X104990000Y-89170000D02*
X104990000Y-86430000D01*
X105760000Y-87800000D02*
X104990000Y-87800000D01*
X50710000Y-111355000D02*
X50710000Y-114445000D01*
X56259999Y-112900462D02*
G75*
G03*
X50710001Y-111355170I-2989999J462D01*
G01*
X50710000Y-114444830D02*
G75*
G03*
X56260000Y-112899538I2560000J1544830D01*
G01*
X55770000Y-112900000D02*
G75*
G03*
X55770000Y-112900000I-2500000J0D01*
G01*
X97760000Y-110200000D02*
X98530000Y-110200000D01*
X98530000Y-108830000D02*
X98530000Y-111570000D01*
X98530000Y-111570000D02*
X105070000Y-111570000D01*
X105070000Y-108830000D02*
X98530000Y-108830000D01*
X105070000Y-111570000D02*
X105070000Y-108830000D01*
X105840000Y-110200000D02*
X105070000Y-110200000D01*
D16*
X136925000Y-111400000D02*
G75*
G03*
X136925000Y-111400000I-5125000J0D01*
G01*
D15*
X97780000Y-82200000D02*
X98550000Y-82200000D01*
X98550000Y-80830000D02*
X98550000Y-83570000D01*
X98550000Y-83570000D02*
X105090000Y-83570000D01*
X105090000Y-80830000D02*
X98550000Y-80830000D01*
X105090000Y-83570000D02*
X105090000Y-80830000D01*
X105860000Y-82200000D02*
X105090000Y-82200000D01*
X97760000Y-98900000D02*
X98530000Y-98900000D01*
X98530000Y-97530000D02*
X98530000Y-100270000D01*
X98530000Y-100270000D02*
X105070000Y-100270000D01*
X105070000Y-97530000D02*
X98530000Y-97530000D01*
X105070000Y-100270000D02*
X105070000Y-97530000D01*
X105840000Y-98900000D02*
X105070000Y-98900000D01*
D12*
X127905000Y-135860000D02*
X127905000Y-140940000D01*
X119775000Y-135860000D02*
X127905000Y-135860000D01*
X127905000Y-140940000D02*
X119775000Y-140940000D01*
X119775000Y-140940000D02*
X119775000Y-135860000D01*
X121300000Y-141300000D02*
X121300000Y-141300000D01*
X121300000Y-141400000D02*
X121300000Y-141400000D01*
X121300000Y-141400000D02*
G75*
G03*
X121300000Y-141300000I0J50000D01*
G01*
X121300000Y-141300000D02*
G75*
G03*
X121300000Y-141400000I0J-50000D01*
G01*
D15*
X97680000Y-123700000D02*
X98450000Y-123700000D01*
X98450000Y-122330000D02*
X98450000Y-125070000D01*
X98450000Y-125070000D02*
X104990000Y-125070000D01*
X104990000Y-122330000D02*
X98450000Y-122330000D01*
X104990000Y-125070000D02*
X104990000Y-122330000D01*
X105760000Y-123700000D02*
X104990000Y-123700000D01*
D16*
X76350000Y-141300000D02*
X76350000Y-129800000D01*
X66450000Y-141300000D02*
X76350000Y-141300000D01*
X66450000Y-132100000D02*
X66450000Y-141300000D01*
X106562500Y-55487500D02*
X97562500Y-55487500D01*
X97562500Y-55487500D02*
X97562500Y-64087500D01*
X97562500Y-68087500D02*
X97562500Y-69987500D01*
X106562500Y-69987500D02*
X106562500Y-55487500D01*
X103562500Y-69987500D02*
X106562500Y-69987500D01*
X97562500Y-69987500D02*
X100562500Y-69987500D01*
D15*
X50635000Y-119455000D02*
X50635000Y-122545000D01*
X56184999Y-121000462D02*
G75*
G03*
X50635001Y-119455170I-2989999J462D01*
G01*
X50635000Y-122544830D02*
G75*
G03*
X56185000Y-120999538I2560000J1544830D01*
G01*
X55695000Y-121000000D02*
G75*
G03*
X55695000Y-121000000I-2500000J0D01*
G01*
D16*
X137125000Y-89400000D02*
G75*
G03*
X137125000Y-89400000I-5125000J0D01*
G01*
X136925000Y-123800000D02*
G75*
G03*
X136925000Y-123800000I-5125000J0D01*
G01*
D15*
X50735000Y-103255000D02*
X50735000Y-106345000D01*
X56284999Y-104800462D02*
G75*
G03*
X50735001Y-103255170I-2989999J462D01*
G01*
X50735000Y-106344830D02*
G75*
G03*
X56285000Y-104799538I2560000J1544830D01*
G01*
X55795000Y-104800000D02*
G75*
G03*
X55795000Y-104800000I-2500000J0D01*
G01*
X97880000Y-104500000D02*
X98650000Y-104500000D01*
X98650000Y-103130000D02*
X98650000Y-105870000D01*
X98650000Y-105870000D02*
X105190000Y-105870000D01*
X105190000Y-103130000D02*
X98650000Y-103130000D01*
X105190000Y-105870000D02*
X105190000Y-103130000D01*
X105960000Y-104500000D02*
X105190000Y-104500000D01*
X97780000Y-116900000D02*
X98550000Y-116900000D01*
X98550000Y-115530000D02*
X98550000Y-118270000D01*
X98550000Y-118270000D02*
X105090000Y-118270000D01*
X105090000Y-115530000D02*
X98550000Y-115530000D01*
X105090000Y-118270000D02*
X105090000Y-115530000D01*
X105860000Y-116900000D02*
X105090000Y-116900000D01*
D16*
X47450000Y-80100000D02*
X47450000Y-72700000D01*
X56650000Y-80100000D02*
X47450000Y-80100000D01*
X47450000Y-72700000D02*
X58950000Y-72700000D01*
X136825000Y-100600000D02*
G75*
G03*
X136825000Y-100600000I-5125000J0D01*
G01*
X50350000Y-143100000D02*
X50350000Y-135700000D01*
X59550000Y-143100000D02*
X50350000Y-143100000D01*
X50350000Y-135700000D02*
X61850000Y-135700000D01*
D15*
X97760000Y-93300000D02*
X98530000Y-93300000D01*
X98530000Y-91930000D02*
X98530000Y-94670000D01*
X98530000Y-94670000D02*
X105070000Y-94670000D01*
X105070000Y-91930000D02*
X98530000Y-91930000D01*
X105070000Y-94670000D02*
X105070000Y-91930000D01*
X105840000Y-93300000D02*
X105070000Y-93300000D01*
D16*
X47450000Y-99800000D02*
X47450000Y-92400000D01*
X56650000Y-99800000D02*
X47450000Y-99800000D01*
X47450000Y-92400000D02*
X58950000Y-92400000D01*
D15*
X115650000Y-83700000D02*
X115650000Y-85200000D01*
X116900000Y-87700000D02*
X121400000Y-87700000D01*
X121400000Y-81200000D02*
X116900000Y-81200000D01*
X122650000Y-85200000D02*
X122650000Y-83700000D01*
D16*
X47650000Y-66000000D02*
X47650000Y-58600000D01*
X56850000Y-66000000D02*
X47650000Y-66000000D01*
X47650000Y-58600000D02*
X59150000Y-58600000D01*
M02*
